<svg width="1000" height="800" xmlns="http://www.w3.org/2000/svg"><path id="E15000001" d="M556.7 399v.3h-.4l1.5 2.2 3 2.7-.1.8h.5l.1 1.2.6.9.6.7 1 .6 1.2-.7.7 1.3-.8.7.6.8 1.1-1 .8.1 1.5 1.2.5.5.3.3.7.4.2.4-.2.2.1.2 1 1.3-.6.1-.2.6.2.3.3.3.5.8v.2l-.2.3h.2l-.1 1 .9.5V421.9l.6.5v.8l-.2.1V424.1l-.1.2h-.3v.4l-.7.8-.6-.2.6.4.3 1.5.8 1.6h-.4l.3.2.4-.3.3.3.6 1-.4 1.3-.2.6v.2l-.3 1 .8 2 1 1.3.3 1.4.8 1.4-.6.3-.4 1.3h-.6l.5.2.3.5v.2l.7 1.3-.6-.4.8.9v1l.2.4v.2l1 1.5.1.2.5 1.1v.2l.2.3.6 1.4.3.4.1.4.6.3-.5-.1-.2.2h-.3l-.3.4-.3.7-.3.5-3 .4h3.1l1-1.5h.2v.2l.3-.2v.4l.2.2 1.9 2 .1.4-.2.7-.4.6-.2.4.4-.5v1.2l.3.2h-.2l-.3.8.5-.4.1 1-.2.3.2 1.4.3 1.2 1 1.5.8 4.6.1.1.1.2.7.9 1.4 2 2.5 1.6.2.5-.9-.5.3.3v.1h-.1l-.1.4-.2.4.6 1.4.4.3v.1l.6.4-.4.3-.2.7h-.6l-.2.3-.3.4h1.5l.1.9-1.5 1.8 1.5-1.4.4-.7-.2-.9.8-.1v-.7l.6.7 1.8.6.8.2.7.6 1.3 1 .6.2 1 .4 1.3-.1 1.2 1h1.7l.3.1 1.4.8.7-.2-.3.7-1 .1-1 1.3v2.8l-1.2-.6-2.8.6-2-1-1.3.6-2.2-.8-1 .5-4.5-.8-.9.6v1l-.9-.3-.8 1-1.6.8v-.5l-.9.4-.3-.4-.3-1.5-.6.6-.4-.6-.2 1.1-.8-.1-.1-.6-1-1-.6.2.7.5-.2 2.8-.5-1.5-.9-.1.3-.8-.8.8-.1-.6h-.6l.4.8h-1l-.4-.9-1-.8v-.5h-.4l.3-.2v-.4l-.8.2-.2-.6-1 .4v-.8h-.8l-.1-.6-1.5-.1-1-.4-.4 1-1.9-.3.2 1.7-.7 1.4-1.8-1.6-.7.4v1.4l-3.3 2h-1l-1.1-1-1.9-.5v-.6l-2.8 1.4-2.1.3.4-1-.5-4h-1l-.4-1.3-3.7-3-.8-2.4 1.4-1.2-.2-1-1.3-.4-1.1-1.8 1.1-2 .6-4.3-.6-1-.9-.1-1.6-1.7-.8-1.7-.5 1-1.4.6-1.4 1.6-1.4.2-1.4-1.1-.6-1.5.4-.6-1.3-2 1.1-.9.4-1.5.9-.7-1-.8v-1.2l-1-.3-.2-.6 1-1v-2l3.6-1.6-.8-1.6.7-1.3-.7-.6-2.3.5-.2-.9-1-.6-.2-1.3-2.3-.8-.8-1.3.1-1.4-.6-.9 1-2.2 1.3-.2v-1.4l.8-.2-1.4-.9.8-.1.7-1.4 1.4-1 .5-1.4 1.5-.4 1.6-2 2.5-.4 1 .8 2-1.4-.3-.4.7-.6-.6-1.2.3-.6h1l2-1.7 1.1.3 1.4-1.1.3-1.2.9-.5-1.4-.4v-1l-1-1.4-.5-3.2-2-1.7v-1.6l-1-1.1.3-.6-.6.2-.4-.6 1.2-.9 2.7.4-.5-.7 1.1-.9v-.8l2-2-.3-1 1-.3.2-1h1l.4-1.5.9-.2v-2.1l2-1.3 1.3 2.1zm8.1 5.8v1.3h-.8l-.6-1-1 .2-.5-.5z"/><path id="E15000002" d="M534 445.3l.3 1 2.3-.6.7.6-.7 1.3.8 1.6-3.5 1.6v2l-1.1 1 .2.6 1 .3v1.2l1 .8-.9.7-.4 1.5-1 .9 1.2 2-.4.6.6 1.5 1.4 1.1 1.4-.2 1.4-1.6 1.4-.6.5-1 .8 1.7 1.6 1.7.9.1.6 1-.6 4.3-1.1 2 1 1.8 1.4.5.2.9-1.4 1.2.8 2.4 3.7 3 .4 1.3h1l.5 4-.4 1-.3-.2-.4.8-2.4-.2-1.7.9-.6 1.3.1 1.5.6.4-.3 1h-.7l-1.1 1.1-1 .3 2.4 2-.6 1.5.2 3-.7 1.4-1-.8-.4.6h-1l-.3 1h-2.1l-2.9 4.5-1 .3-.1 2 1.5 1.4v.5h.6l1.7 1.3-.2 2 1.7.5 2-.8.7 2 .7.7-.5-.1v1l.5.4.8-.3 1 1.3 2.5-.5.3.3-.4.4.2.7 1.2-.6.4 1.2.1 1 2 .7.7.7.4 1.6.9 1-.4.5 1.7 1.2v1.4l-.5.3-2 1.3-.7.4.2.7-.5.6.2 1.8-1.6 2 1 2.6.2.3.3-.5.6 1h1l1.6-.9 1 4 .1.5h.6l2.6 3.6 1.1.6.2.9-.7 1.1.2.7-1.2.4-.4-.3-1 1.8.1 1.7-.9 1 .2.3-.4-.3-.5.7.5 1h.8l-.4 1.8-1.2.8.1.3 1 1-.1 6.2 1.3 1.9-.6.5.1.6-.5 1.3h-1.8l-.9 1.5-1.6.2-1.2-1v1.7l-.5-.2-2.7 3.7-.5.2-.4.7-.2-.3-1.2.9H544l-1.2 1.6-1.5.5v1.4l.6.8-.5.4v.6l-2.2.8.2 1-1.8.8-1.6-1-.3 1.7-1.3-1.1-1 .6-.4-.5.1-1-1.4-1.2-1.7.7-1-.6-1 .8-1.3-.2-.3-.6-1.4.4-1.3-.5-.3-1.3-.7-.4v-1l-.3-.4.3-.8-.4-.1.4-.1-.8-1 .3-.4-1-.7.5-.8.2-1-1 .5-2.2-1.3-.6-1.2-.6-.2 2.6-1.1.2-1.2-1-1.4-3-2.4-1.4-.3-.7-.3-.4-.2-.1-.1-.3-.6h.7l-.4-.5h.6-.3v-.7l-.3.3-.4-.2v-.8l-.2.2-.3-1-.3-.7-.6-.7-1.9-2-.5-1.5 1-1 1.2-.6 4-2 1 2 .1.6.4 1.8.3.4 2.4 3.6.2.3 1 .6 1 .6h1.2l1.3-1 1 .6 1.4-1.2.5.5-.3-.5-.6-1 .3-.9h.6v-.2l-.8-.2-.6.7-.4 1-1.4-.6-.3.2-.3.2-1.6-.4-1-.8-.9-.7-2.2-1.7-.8-2-.2-1.6-.7-1v-.1l-.7-1-.2-.5-.3-1-.3-.8v-1.3h-.5l-1-1.5.2-1.8.4-.8 1.8-3.3 1.6-2.3 1.2-1.7v.4l.5-.4h.4l-.3-.5h.8l-.6-.4.4-.9.5.3-.1-.3h.5l.2-.1 1.7-.5h.1l.6.3-.2-.4 1.1-.6-1.3.5-1.6.3h-2l.4-.2-1.3.1-1.6-.3-1.3-1.2-.5-1.3.2-3v-2l.2-1.5v-3.1l1.8-.4v1.7l.3-2 3.2-1.3-.2.4.2.2.4.3.7-.2-.3-.4h.4l.6-.3-.7-.4h.6l.4-.5h.7l-1-.3-.4-.6 1-1.4h.9v-.6l-1.1.3h-.5l-.3 1-.2-.3-.5.2-.2-2-.6-.4-.2-.3h.2l.2-.1h-.3l.1-.1.5-.3 1-2.3h.2l1-.2 1.2-.8h-.4v-.7l.8-.6.6-1.4-.2.2-1.2-1.2.4-.7h-.4l-.2-.4-.1-.9-.2-.1-.8-.5v-.6l.8-.9-2.5.8-.6 1.6-.4 1.2-3.2 1.4.5-1.4v-1l-1.5-2v-.2l.3-.8-.9.9-.3 1.2v1.2l-.6.6-1 2.2-1.5 1.5-.3.3-1 .8 1 1.1-1.1-.7.1-.5-.8-1.4-1 1-.2-.3-.6-1 .2-3h-.5l-.3-1 1-.4h.2l.3-.2v-.6l.4-1.6v-.3l.1-.2.6-1-.3.3-.6-1.9-.6-.2v.2l.2.3-.2.1h-.1v.1l.3.1-.2.4-.4.6.2.3-.7.8.2.5.3.4-.6.7-1.2-.2-.6.5h-.7l-.8-1.4-3.2-5 .3-5-.9 1-1.7-2.9-1.2-2-1.3-1.7-2-2.7-.6-.4-1-1.4v-.3l.6-.6.3-.2v-.2l.2-.2.4-1.5h.2l.2-.8.5-2.3.3-.8-.5-2.8.3.1.8-1 1.3-1.8.2-1 .3-.8 1.9-1.8.7-.7v-3l1.6-4.6.9-1.1.4-.5 1-.5v.2l1.7 1.1.5.4-.2-1.2h1l.5-.7-.2-.5-.8.5-1.4-.6-.1-.5.4-.6.7-1 1.3-.1h.1l1.4-.8 1 .4 1.3 1.2.9.2.5.1.3-.1 1.4-.6-.6.1-1.5.2-.1-1h.9l-.3-.8.5-.8h.2l1 .2.6-1v-.2h-.2l1.4-3.3-1-.8v-.4l3.6.2.9-.7-.2-.6 1.7-.6.5-1.2 1-.9 1.2-1.1.1-1 1.6-.2 3.2-2.1.5-1 .6.8v1.4l.7 1.3 2.3.8.2 1.3zm-24.8 70.3l.4.3.9-.5v.6l-1 .2-.6-.4-.4-.8-1.8-3-.3-2.3.4-.2.6 1.2.3 1.8-.2.1 1 1 .1.2-.1.8.5.2z"/><path id="E15000003" d="M604.4 482.5l.8 1.3.4-.1.8-.3.6.5.3.4h.3v.1l.5 1.3 1.5.2.8.2v.4-.4h.2l.7.3 2.6 2.9-.4.9.4 1.1.3.2.4.4.3-.1.2.1 1 1.1.8 2 .5 1.4.6.6.4 2.5.6.3.3.1-.5 1 .3.2.8 1.3v.1l.1.1.3.1 2 1 .2.3 1.3.6.4.1h-.7l-.3.9.3.8.1.2.4.8.5.3.1.2 1 .5.4.2 1.9.8 2.6 1.1.8.9-1.1.8-2.4.4-.4.5-.5.7-.4.1-.5 1.4v3.3l.9 2.6v.6l.2.4.4 1.1.7 2.1 1 1.6.4 1.1 1.8 2.6 1.2 1.9 2.4 3.4 3.5 5 .3.3v.2l.1.2.4.8.7 2.9v.4l-.2.1-1.1 1.3-.1.1.1-.2 1.3-1.8-.2-.5-1-1-.4-.4-1-.6-1.8-.5-3.4 1.3-2.3-.7-1.5-1.5-1.3-1.3-1.7-1.7-.4-1.2-.2-.3-.3-.1-1.4-.7-1.8.3-3.4 1.3-1 .3-.7-.1h-.9l-2.6.4-1.2-1.1-1.6-.2-1.9.5-.9 1.2-1.1-.2.3.2.7.4v.9l.5.5-.3-1.2 3.2-1.3 1 1.4 2.5 1 1.3-.8v-.1l.7-.4h3l.3-.3 3.6-.8 1.8 2.5v.2l.6.7 1.1 1.6.7.6 3 2.5 1.2 1 .3-.6.8.8 2 2.2.6.8-1.2.8-2-.2-.3 1.9-.8.2.2.6-.7.5 1 1.2-1.5 1.2-.5-.2-.6-.7-.2-1.2-1.1-.2-.3-1-.8-.2.2-1.7-.2-1.3h-.4l1.3-2-.3-.6-1.1.2-.5-1.2-.6.1v-.6l-2-1.4v1.6l-1.3 2.2-.5-.1-2.7-.2-.5-.8-1.4 1.7-1 .2-.4.5 2.8-.5.9.9v1l-3.1.8v1.6l.6.3-3.1 1-3 .1.1-3.5-4.5-.5-.5 1.3h-.6l-.1 1.4-.5.1v.9l-.5.5-3-.7-1.7.4-.1-.3.7-.7-1.3-1.8-.7 1.2-1.3.9-.4 2.2-.7.7-.6.1v-.4l-2 .3-1.4 1.3v.6l-.7.5.2 1-.6.4.3.8h-1l.2.8.7-.2v.4l-2.3 2-.2.4-1-.3-.6.5-1.4-.5-.6-.4.3-.7-.4-.4-1 .2-.5.9h-1l-1-.2v-1.2l-.8-.4-.5.5-.8-.2-.7.5v.7l-1.4.2-1.7.8-.9-.1v-.7l-.7.3-.2-.6-.5.7-.4-.8-.6.4-.3-.3.8-1.4.8-.2-2.8-1.4.4-1.6-2-.9v-.6l-.5-.3-.5.2-.7-.7v-2.3l-.8-.2-1.3-1 .2-1.5-1-1.2h-.8l-1.2-1.3-.8.5-.6-.3-.2-.9-1.1-.6-2.6-3.7h-.6l-.1-.5-1-3.9-1.6 1-1-.2-.6-1-.3.6-.2-.3-1-2.7 1.6-1.9-.2-1.8.5-.6-.2-.7.7-.4 2-1.3.5-.3V529l-1.7-1.2.4-.5-.9-1-.4-1.6-.7-.7-2-.6v-1.1l-.5-1.2-1.2.6-.2-.7.4-.4-.3-.3-2.5.5-1-1.3-.8.3-.5-.3v-1.1h.5l-.7-.6-.7-2-2 .8-1.7-.6.2-1.9-1.7-1.3h-.6v-.5l-1.5-1.5V509l1.1-.3 2.9-4.6 2.1.1.4-1h.9l.4-.6 1 .8.7-1.3-.2-3.1.6-1.4-2.3-2.1.9-.3 1-1.1h.8l.3-1-.6-.4v-1.5l.5-1.3 1.7-.9 2.4.2.4-.8.3.2 2-.3 3-1.4-.1.6 1.9.5 1 1h1l3.3-2v-1.4l.8-.4 1.8 1.6.7-1.4-.2-1.7 1.9.2.4-1 1 .5h1.5l.1.7h.8v.8l1-.4.2.6.9-.2-.1.4-.3.2h.5l-.2.5 1.1.8.4 1h1l-.4-1h.6l.1.7.8-.8-.3.8h1l.4 1.6.2-2.8-.7-.5.7-.3.9 1.1.1.6.8.1.2-1 .4.5.6-.6.3 1.5.3.4.8-.4v.5l1.7-.8.8-1 1 .3v-1l.8-.6 4.5.8 1-.5 2.2.8 1.3-.6 2 1 2.8-.6 1.3.6v-2.8l.8-1.3 1-.1.5-.6.8.6z"/><path id="E15000004" d="M624.6 546l-.1.5h.6l.5 1.1 1-.2.4.5-1.3 2 .4.1.2 1.3-.2 1.7.8.1.3 1 1 .3.3 1.2.6.7.5.2 1.5-1.2-1-1.2.7-.5-.2-.6.8-.2.4-2 2 .3 1-.8h.2l1.1.8-.3-.8 2 .8-.4.8.5.6.6.3.2.1.2-.4-.3-.6 1 .5-.3.7.6.2.1-.8.7.8.1.3-.4-.1h.1l1.3 2-.3.3.6.5-.5-.1 1 1-.6.3 1.2.8.6 2.1 2.1 5.1 1.5 3.6.5 2v4.7l-.2 1.5-.1 1.1-.5.5h-.6l-2.6 2.6-3.5 2.6-2.5 3.4-.4.7v.1l-.1.4v.3h-1.5l1.4.1-1 .9-.2.2-.8 1 .7-.4 1-.8-.2.9.6.2 1.3.5 1.4.7 1 .6 1.5 3-.3 2.8.5-2.4.4-.2 1.3.5h.2l-.8 2 1 .8-3.3 2.4-.6-.2h-1.5l-1.7 1-1-.3-.8.9.2 2.1-1 1-2.1.3-1.3-1-1 .6-.5-.3-1.5 1.3-1.5-.6-.5.6-.6-1-2 1-1.2-1.2-1.2-.3h-.6l-.2.6-.9.4-2.1.8-1.4-.5-1.6 1 1 1.4-1.1 2 .7.8 2.5-.3.3 1-.5.3.7 1.3-.5.8 2.4 1.2-.2 1.1.7 1.5-1.2 1.7.3.4-2 1.4-1 1.7-2.2.4.3.3-.4.9.8.7-.2.5.7.2v1l-2.1.4-.9 1.7.5 1.2-.5 1-.9.1-1.5-1.6-2 .7.7 2.6-1.2 2-1.4.3-1.8 1.5-1-.1-.6 1.1-.6-.3-.3.9-.7-.1.2.7-2 .4-.3.8.6.1v.8l1 .5.5 1.3-.3.5h-.5l-.4.2.4.6-.7.7-.3.6h-.4l-.7.6-1.8-3.9-.6.7-2.3-.3-.6.1.6.7h-1.4l-2.3 1.2-.6 1.4.8.4-.7 1.2-1.1.2-1.3 1-1.8-.5-1.6.4.2-2.2-1.3-2.3.6-1.7-.9-.2v-.4l2.8-.6-3.3-4.6.7-1.4h1.3l1-.5-1.1-2.5.7.2 2-1.9-.8-1.6 1-1.6-2.2-.9.4-.6 3.1-1.2-1-2.5-1.5-2.8-3.3-4-3.6-2-3.4-2-.7-.4-.6-1.2-1-.4.3-1.2-.6-1.3 1-.6-.3-1.5-1.4-1.3-.4-.8h-2.2v-1.4l-2-.7.6-.7-.2-.6 1-1.3.2-.8.5.4.6-.5.4.5.3-.4.3.3-.1-.5 1-.9-.9-1 1-.9-1.6-1.5-2.5-.6-.4.2-.1-.4-.8.5-.8-.6-1.3-1h-2l-1-2.5 1-1.5.1-2 2.5-1.5.1-2.4-.7-.5.1-1-.7-1.8.4-1-1.5-2.2.4-1.1-2-2.2-1.4-.8-2.3-.9-.2-.8-1 .8v-.6l.5-.5-1.3-2v-6l-.9-1.1v-.3l1-.8.5-1.8h-.8l-.5-1 .5-.7.4.3-.2-.4.9-.9v-1.7l.9-1.8.4.3 1.2-.4-.2-.7.7-1.1.6.3.8-.5 1.2 1.4h.8l1 1-.2 1.5 1.3 1.1.9.2v2.3l.6.7.5-.2.5.3v.6l2 .9-.4 1.6 2.8 1.4-.8.2-.8 1.4.3.3.6-.4.4.8.5-.7.2.6.7-.3v.7h1l1.6-.7 1.5-.2v-.7l.6-.5.8.2.5-.5.8.4v1.2l1 .2h1l.5-.9 1-.2.4.4-.3.7.6.4 1.4.5.6-.5 1 .3.2-.5 2.4-2-.1-.3-.7.2-.2-.8h1l-.3-.8.6-.4-.2-1 .8-.5v-.6l1.3-1.3 2-.3v.4h.6l.7-.8.4-2.2 1.3-.9.7-1.2 1.3 1.8-.7.7.1.3 1.8-.4 2.9.7.5-.5v-.9l.5-.1.1-1.3.6-.1.5-1.3 4.5.5-.2 3.5h3l3.2-1-.6-.4v-1.6l3.2-.9-.1-1-1-.8-2.7.5.4-.5 1-.2 1.4-1.7.5.8 2.7.2h.5l1.2-2 .1-1.7z"/><path id="E15000007" d="M633.8 669v2.2l1.4.3v.7l.7.9.5-.2-.2.3.5.4 1 .2.2-.6 1.4-.5.4-.1 2.3-.1 1-.4 1.1.8.5.6-.4.5h.6l.8 2.3h1l.7 1.4-.4.1-2.3.5v1h-.4l-.1-.8-.3.3v1l-.7.1.2.5-.7.2v.4l-1 .1-.2-.7-.2-.6-.6-.2-.8-.3-.5-.2-1.2.3-.4.1-.6.8-.6.1h-1.3l-.2-.2h-.1l-.1-.1-.3-.3-.5.3v.1l.2.8-.4.2h-.1l-.4-.3-.2-.7v-.4h-.6l-.6.4-.5-.3v.1l.1.1.3.2h.2v-.1l.6-.3h.3l.1.3v.6l.4.5.2.2v-.1l.6-.3h.2l-.2-.9.1-.1h.1l.2.1.3.3.2.2h1.4l.8-.1.1-.2.3-.4.2-.2 1-.2h.4l1.5.5v.3l.4 1h.3l1.3.2h.1l-.7 1.6-1.2.8-.3.8h-.4v1.3h-.2l.5 1h-.5l.1 1.4-.6 1.6h-.7v.9l-1.3.8v1.5H636l-.3-1-.7 1-.5-2.3-1.6-.6-.5 1-1 .2-.6 1.2-1.3.9-.5-.9h-.7v-1.3l-1.1-1.1h-.7l-.5.6-.6-.4.5-.6-.4-1-.7-.3v-.9h-.6l-1 1-.7 1.8-.8.6-.2-.2v-1.2l.9-1.8-.4-1-.4.1-1.2-1.2-1 .2-.3-.9-2.5-1-.1-1.1-2-.8.8-1.6.1-1-.3-1.8.7-1.3-1-2.5.2-2 1.6 1.2.6-.5 1.4.4 1-.3.4-.1.2-.2 1.8-1 .5.2 1.4-.4h.6l.1-.9 1.5-.3.4-.5.4.3.4-.3.7-1v-.2l2.3-.2z"/><path id="E15000005" d="M561.7 572.5l1.9 2.2-.4 1.1 1.5 2.2-.4 1 .7 1.9-.1.9.7.5v2.4l-2.6 1.5-.1 2-1 1.5 1 2.5h2l1.3 1 .8.6.8-.5.1.4.4-.2 2.5.6 1.6 1.5-1 1 1 1-1.1.8.1.5-.3-.3-.3.4-.4-.5-.6.5-.5-.4-.2.8-1 1.3.2.6-.5.7 1.8.7.1 1.5 2.2-.1.4.8 1.4 1.3.3 1.5-1 .6.6 1.3-.2 1.2.9.4.6 1.2.7.4 3.4 2 3.6 2 3.3 4 1.5 2.8 1 2.5-3.1 1.2-.4.6 2.2.9-1 1.6.7 1.6-2 1.9-.6-.2 1.1 2.5-1 .4-1.3.1-.7 1.4-.6 2.1h-.7l-1 1 .8.2.5 1-1 .4-1.6-1.5-1.1.3.2 1-1.2-.2-1 1.9.3.8-1 4-1.4.2.3.7-.5.3h-1.5l.4.4-.8 1-2.1-2v-.7l1.9-2.3-.3-.4-1.5.5-1.2-.5.2-.8-.7-.5.2-.8-.5.4-.6-.4v-1.7l-.6.4-.9-1.2-1.3 1-.5 1.1-.2-.4-.5.8-.6-.4-1 .6.4 1 1.1.6.4.9-.6 1.5-2.9-2.4-.7 1-.8-.6-1.2.1-2.2 2h-.4l-.4-.6-1 .3-1-.4-1.1 1-.4-.4.4-1.3 1-.7-1.9-.8-.7.5.1 1.3-.4.2 1 1v.5h-.5l-.2-.2-.2.5-1.4-.3-1.2 1.8h-1.9l-.5-.6h-.5v-1.7l-1-.6v-.5l-1.6.5-.2 1-.6.2-1-.2.1-1.1h-1v-.6h-.6l-.6 1 .9.9-1 .8.1 1-.3.3 1.4.6-.1.9 1 2.5-1.8 1-.8-.2-.9 1.5h-2v.7l-.7-.4-1 1.1-.4-.3-.5 1.1-.7-.6-1 .1-.2-.7-.7.3-.1-.5-.8.8-1.6-1.9.5-1-2.7-1.5-.2-.8-.8.3.7-.5-1.3-.8-3.7 1.8-.2-1.4H517l-.7-1.9-1.6-1.6-1.3-2.5.6-1.1-.2-.7-1.4-1.7.1-1.6.7-.2v-.7l-1.4-.7.2-.6 1.7-.4.8-.8-.4-.4-.6.5-1-.6 1.1-1.3-.3-1.2 1.2-.6v-1.5l1-.1v-.8l.4-.4 1.2-.5 1.1.3 1-.6-2.4-.6.5-2.7 1.3-.5.5-1.3-.8-.4-2.6.7-.9-.3-1.8-1.8-1.7-.7-1-1.3-1.6-.8-.6-1.4.2-.7 1.3-1.4.7.1 2.7-1.6 3.2-.1-.1-1.5 1.2.1.2-2-.7-1.4-2.9 1.6v1l-1.7.5-.2-.3 1-.6-1.1-2.9h.8l1.1-.8-.1-.7.8-1.2.5-.1-1-.7 1.3-.4.3-1.2-.1-1.6 1-1v-1.2l.8.3.9-.4v.7h.5l.1-.6-.5-.7-.6.1v-.6l-1.2-.5.4-.5-.3-.6-.7.3-.1-.4h-.5l.2-.2H514l-.5-.9.2-.6-1.2.8-1.6-.6.2-.9h-.5v-.8l.6-1.5-.4-.3 1.3-1.3-1-.7.7-.4-.4-.4 1.3-.2.7-2.4.7.3 1.6-.2 1-1.7 1.1-.2.3-.7.6 1.2 1.2.8 1.6-1 .2.5 1.6.2 1.7 3 1.7-1.8h1l.2-2.1-.5-.8.4-.9 1-.8 1 .6 1.7-.7 1.4 1.1v1.1l.4.5 1-.6 1.2 1.1.3-1.7 1.6 1 1.8-.7-.2-1 2.3-.9-.1-.6.5-.4-.6-.8v-1.4l1.5-.5 1.2-1.7 1.3.1 1.2-.9.2.3.4-.7.5-.2 2.7-3.7.5.2v-1.7l1.2 1 1.6-.2 1-1.4h1.7l.5-1.4 1-.8.2.8 2.3 1z"/><path id="E15000006" d="M672.4 586l5 1.6 1 .3 5.4.8h.1l2.1.9 3 2 1.2.8 5 4.3.8.8 3.7 3.9.8 1.3v.1l.2.1 1.2 4 .2.6v4.8l-.3-.6.1.6h.2l-.2.5v.5l.3 1.3v.3l.9 3.3v.2l-.2.2v.1-.3l-.7 1.4-.2.5v.1l-.2 3-.2.4-1 2.1-.3.8-.6 2.2h-.3v.1l-.5.5-.1.2-.3.4-.3.8-.1.2v.2l-.1.2-.5 5.7v.2l-1.5 5.8-3.2 1.8-.5.3.5-.4 2-1.2-1.3.3-.4.4h-.2l-1.5 1.6-1.2 2.3v.2l-1.5 1.1-.2-.7-1-.5 1.1 1.1-.1.7-1.7 1.3-1 1.5v-1l-1.4-1.2-.1-1.5-2.6-.9-.4-.3-.4-.2-.5-.4h-.1l-.7-.6-.3-.2.7 1.1v.1l1.3 1 .3.1 2.1.6.3 2h-.1l-1.1-.3-1 .5-.3-.2h-.9l-.9-1-1.3 1.2-1.7-.4-.7.6h.1l.7.3 1.2.3 2-.5.7.5.4-.1.8-.2-.1.3h.4l.8-.5 1.2.6.4-.7.3.9h-.6l-.8 1.2-.6 1.6-.5.2-.3-1-.4.4h-.1l.5.4h.1l-1.1.4.4.4-.6.2-.6.3h1.1l.7-.6-.5.7.6-.2.2 1 .2-.3h.4v.3l.2-.5h.7l-.1-.8.9.2-.2 1-1.2 1.6-.8.9-1.8 1.2-2.2 1.4-.4.2-2.4.3h-.7l-.5-1.2.2.4v-.5l-.7-.7h1.2l.6-.6v-.3l.2-.4-.4.7-1.3.4-1.2-.7-.4-.8v-.1l.3-.6-.2-.1-.3-.2v.2l.1 1.5-1.1-.5 1.1.8-2 .3.3.1-1.2.4-.3.7-.3.5v.2l-1-.4 1.1 1h-1.3l-.1-.5-.6.2 1.5 1-1 .8-.3.2-1.4.1-.8-.4v.3l-.1.3-.5-.5v.3l-.4-.1-.2-.1-.1.2-.3.4-.2.1-.4.1-.9-.5-.3.9-.7-.5 1 1.1 2.2.3-.7.5-.1.6-.4-.1v.4l.7-.2.4-.8 1.1-.3v-.7l1-.2.7.4 1.2-.4 1-1.2.5-.3h1l.7 1-.5 1.7.5 1.2-.6 1.4v1.6l-1.2.9h-1.7l-2.6-.2-1.1-.8.7.8 3.2.6v1h-1.8l-.6-.6.6.7-1.7 1 .6-.2h.5l-.4.6.5-.2.4 1 1.3.4-1.2 1-1.3 1.2-.7-.3-3-.6-2-.3-.6.1-.6.2-.6-.2-1.3-.3 1.3.8h.2l1.2.4-.5.3.7-.1-.7.4-1 .3-.7.1h-.8l-.2-.3-.1-.1-.2-.4-.5.2-.4-.7v.4l.2.4.7.3-1.3.4h-2l-.4.5v.2l-.5 2-1.2.6-1.7.1h-.7l-.7-1.4h-1l-.6.8-2.7-1.8v-.4l.7-.2-.2-.5h.6v-1l.4-.4.1.7h.4v-.9l2.3-.5.4-.1-.8-1.5-.9.1-.8-2.2-.6-.1.4-.5-.5-.6-1-.8-1.1.4h-2.3l-.4.2-1.4.5-.2.6-1-.2-.5-.4.2-.3-.5.2-.8-.9v-.7l-1.3-.3V669l-3.6-.7-2.3.2v.2l-.7 1-.4.3-.4-.3-.4.5-1.5.3-.1.8-.6.1-1.4.4-.5-.3-1.8 1-.2.3-.4.1-1 .3-1.4-.4-.6.5-1.6-1.2-.1 2-.9-.4-.7-2 .1-1.4h.6v-.5l.7-.3-.3-.5-1.4-.1.2-1-.8-.9.5-1.2-.5-.5-.4.1-.5-1-1 .4-2.4-1.3-.6-1.5.1-.5-.9-1.3-.6.1-.6-1-.2-.5 1-.9 1-.1.3.6-.3.5 1 1.6 1.4-.3 2 .8.8-1.4.3.2.4.1.2-.4-1.8-2.5-1.4-1h-1.3l-.8-1-.7.1-.4-.5.7-2.1.5-.1v-.8h.4l.4-.8.2-.2-.6-1.8.7-.7-.3-.5.4-.3-.1-.8-1-.8 3-4-.6-1.4-1.1-.3-.2-.9.4-.1.1-1.7-1.6-.9 1.2-2-.6-2.6 2-.7 1.4 1.6 1-.2.4-.9-.5-1.2.9-1.7 2.1-.4v-1l-.7-.2.2-.5-.8-.7.4-.9-.3-.3 2.2-.4 1-1.7 2-1.4-.3-.4 1.2-1.7-.7-1.5.2-1-2.4-1.3.5-.8-.7-1.3.5-.4-.3-.9-2.5.3-.7-.8 1-2-1-1.5 1.7-.9 1.4.5 2.1-.8.9-.4.2-.6h.6l1.2.3 1.2 1.2 2-1 .6 1 .5-.6 1.5.6 1.5-1.3.6.3.9-.5 1.3.9 2-.2 1-1.1v-2.1l.7-.9 1 .3 1.7-1h1.5l.6.2 3.3-2.4-1-.8.8-2 2.5-.1.8.5.6 1.2.2.5.1.3-.1-.5-.2-.6-.3-1 .5-.6 2-1.8.9-.3V593l1.3-3.8.3-.7 2.1-2 .8-.2.4.6.6-.3.7.3-.6-.6 1.1.2v.4-.4l2.2-.1-.3.3.5-.2.6-.3.5.3 1 .1.2.5.8-.3.1-.4h-.4l1.2-.1 1.2.5v-.5l1.5.2v1l.8.2.1-.3h1.7v-.4l.7.5 1.6-.3h1.5v.5l.1-.6.7-.2-1.7-.6-.6.2-.7.1zm-3.6 90l-1 .8-.7-.3-.6-.2.3-.7.5-.4-.3-.8H668.1l.4-1.3h.4l2.8-.3-1.2 1.8zm2.6-13l-1.8.1-.3-.4 1.8-1.7h1l1.4.5-.6.8zm-3.2-75.6h-.6l.5-1.4 1.8 1-.4.2h-1.1zM667 675l-.7 1.2-.5-1.3.8-.6h.3zm-5.5-89.5l2.1.6-1.4.1-.7-.5-.6.5v-.6h-.8.7zm22 70.8l-.6.8-.8-.4.2-.4zm-18.5 10l-.6.3-.7-.4h1zm-2.2.2h-.9l.5-.7zm20.4-9.7l.3.1h.1l.2.3v.2h-.2l-.2-.3h-.3v-.1zm1-.3l-.3.1-.3-.6zm-.6 0v.4l-.3-.1v-.1l.2-.3z"/><path id="E15000008" d="M609.8 637.3l-.1 1.7-.4.1.2.9 1 .3.7 1.5-3 4 1 .7.1.8-.4.3.3.5-.7.7.6 1.8-.3.2-.3.8h-.4v.8h-.5l-.7 2.2.4.5h.7l.8.9h1.3l1.4 1 1.8 2.5-.2.4-.4-.1-.3-.2-.8 1.4-2-.8-1.3.3-1.1-1.6.3-.5-.4-.6-1 .1-1 1 .3.4.6 1 .6-.1 1 1.3-.2.5.6 1.5 2.4 1.3 1-.3.5 1 .4-.2.5.5-.5 1.2.8 1-.2.9 1.4.1.3.5-.6.3-.1.6-.6-.1v1.4l.6 2 .9.4.9 2.5-.7 1.3.3 1.8-.1 1-.8 1.6 2 .8v1.1l2.6 1 .3.9 1-.2 1.2 1.2.4-.1.4 1-1 1.8v1.2l.3.2.8-.6.8-1.8.9-1h.6v.9l.7.2.4 1.1-.5.6.6.4.5-.7.7.1 1 1.1.1 1.3h.7l.5.9 1.3-1 .5-1 1-.3.6-1 1.6.6.5 2.4.7-1 .3 1 1.7-.1v-1.5l1.3-.8v-1h.7l.6-1.5-.1-1.5h.5l-.5-1h.2V685h.4l.3-.9 1.2-.8.7-1.5 2 1.5 1.2-.4.5-.3.4 1 2.2.4 3-.8v-.2l-.2-.3h.5l-.3-.2.4-1 3-.3.3.4.8-.2.3.3.1-.3.3.1.9.5 1.7-.2.5.4h1.1l.8.8.1 1-.4.5-1.4.1-.2-1-.2.4-.4-.4-.8.2-.7 1.1.3.3-.6.4h-.9l-2 .3-.6 1.2.6-1 .8.7.2.2 1 .4.3.1.8.6.2-.7h.5l.3-.4.7.2.5 1 .6-1h.6l-.3.8.7-.3.2-.3-.6-.4-.3-.8h.4l-.3-.7 1.2-.3.1.3-.5.2.3 1 1.5 1-.3 1.9.4-.6 1.9.3 2 .2h.2l1 .7v.4l.3-.3 1.8-.2 2.4-.4.8-.8 2-.4h.6l2.3-.3 2.6-.2 1.2.1 1.2-.3h1.1l2.8-.7h1.5l.9 1v.9l-.3 1-.6 1.3v-.3l-.4.5-1.5-.4-.4.3-.1.7.3.1.3 1.4.6 2 .3 3.6v2l-.4.7-.5.9-1.4.7-.7.4h-.3v.1l.1.3.1.2h-.3l.5.2-1-.1h-.1l-2.5.8h-.6l-.1.2-1.2 1 .3.3-2.2.4-2.4.4-.3.2h-.3l-1.6 1.5-1 .8-.7 2-.1.3-.4 1 .4 1.7.2 1v.6l-.1.2-2.6-.3-2.1-.4h-.5l-2.8-.4.1.2-1.6.8-1.8 1.8-.8.8-.3.2-3.9 1.1h-.1l-2 .5-2.5.7-1.7.4-.2.2-.6.1-1.5 1.3v.2l-1 1-.2.2-1.6 2-.3.4H642.5l-2.4-1.3h-1l-2-1.4-.6-.1v.1h-.1l.2.4-1-.4h-.2l-1.7-.7-.9-.4-2.1-.7-.6.2v-.3l-.9-.3-.2-.1-.7-.1h-.1l-.7-.1-1.6-.3h-1.2l.1-.2h-.3v.3h-1.1l-.7.1-1.4.4-1 .5-6.4.5h-.8l-1.5.4-1 .2-1 .2-2.7.7-1 .4h-.2l-.7.7-.3-.5-.1-.1h-.8l-.2.6.5-.1.5.6.3-.4-.8 1.3-.6.8h-.2l-.5-.5-1.4-1.3-.6-.4h-.1l-.2-.1-2-1.2.2-.5-.1.5.4-.1.5-.8.5-.8.5.2.8.3.8-.3.4-.9-1 .9-1-.5h-.1l.1-.4.2-.5v-.8h-.4l.2.8-.4 1-.6-.5-.1-1.2h-.7v.7l-.3-.4-.6.2.1-.8h-1.6l-.3.5-.8-.5h-.7l-.2 1-.5-.5-.3.2V724.5l.5-.3v-.1.6l-2.2.6-.2-.2-.6-.7V723.5l.8-.2v-.1l-.1-.2-.3-.8.6.2.3-.8 1.2.2-1.4-.3-.3.6-.7-.6.1-.5-.4.1h-.1l.2.6-.6-.1-.9-.4-.2-.1-.7.3h-.1l1 .3v.5l1 1.3-.5.3.5-.2.2.5v.2l-.6.5.9-.3-.8.7-.4.3-.3-.2-1.6-.8-.3-.4-.6-.8h-.1l-1-.4h-.1l-2.4-1.5.3-2.4-.2.1-.3.3v1.5l-2-1.9-.8-.7v-.8l.5-.6-.2.1-.5.3v.5l-.3 1-.1-.8v.3l-.8-.5-.5-.4-.3-.2-.4.3-.6-.5-.5-.9.2.7-.1.2 1 .6.7.3.4.1 1.8 2.6.9.3-.3.3.4-.2.6.6v.6l.6.2-.2.3v.2-.1l.4.1v-.3h.1l.2.2-.1.2-.6.6-.1.2-.2.2-.7.8h-2.4l1 .4-.4.2-1.5.5-2.6.8h-.7l-.6-.6v.1l.3 1.1-.4.1.2.4-1 .9-.7.3.8.5v-.2h.1v.3l-1-.5-.3-.2-.3-.1h-.1l-1.8-.7-1.9-.3.4-1-2.5.3.2-1-.4-1-1.5.9-1-2.5.4-1.5.5-.4-.5-.4-.1-1.2-1 .5-.7-.2v-2l1.3-.8.2-1.5-1.2-.3-1.2 1-1.9-2.8-1.3-1v-.8l.2.5.9-1h1.6l.4-.5v1.4l.9-1.3.6-.3.8 1.5.6-.4 1.8.9h1.4l1.7 1.7.5.3 1-.9h.7l.6-1.2-.6-.2-.4-1 1-.2-.2-.5.4.1v-1l-1.3-.5.2-2.8-.4-1 .4-1.5-1.4-.6.2-2-.6-1.2.2-.7-1-.8.2-.7 2.1-.2 1-2.2 1.2-.2 1.3.7.3-.2.3-.8h-.4l-.1-1.3.8-.3v-.6l-.5-1.3.3-1.4 1.1.6.5-1.1-.6-.6.2-.8-2.3-1.6v-1l-.6-.3.2-.4 1.5-.1.1-1.5-2.3-2.9v-2l-.8.5-1.7-3.4-.3-.3-.8.5-.6-.9v-1.4l1-.7-.3-.4.5-.7-1.2-1.1-.4-1.2.7-1.2.6.6.8-.2-1.6-1.8-.3-.7.4-1-.6-2-.7-.8 1.5-1.3-.2-2 .4-1-.4-.9.7-.7.4-1.2 1-.2-.5-1.5 1.2-1-.7-1-1.2-.6-.1-1.5 2 2 .9-1-.4-.3h1.5l.5-.3-.3-.7 1.4-.3 1-4-.2-.7 1-2 1.1.3-.2-1 1-.3 1.6 1.5 1.1-.4-.5-1-.9-.1 1-1.1h.8l.6-2 3.3 4.5-2.9.6.1.4.9.2-.6 1.7 1.3 2.3-.2 2.2 1.6-.4 1.8.6 1.3-1 1.1-.3.7-1.2-.8-.4.6-1.4 2.3-1.2h1.4l-.6-.7h.6l2.3.2.6-.7 1.8 3.9.7-.7.4.1.3-.6.7-.7-.4-.6.4-.3h.5l.3-.4-.6-1.3-.8-.5-.1-.8-.6-.1.2-.8 2-.4v-.7h.6l.3-.8.6.3.5-1.1 1.1.1 1.8-1.5 1.4-.3zm-26 89.4l.4 1.5-.3-2 .7-.2 1 .8.3.6 1 .3-.2.4.3-.2h.3l1.7.1.4.1 1.3.5.4.5v.3l.3.8-.1-.1-.3.4 1-.1.5.6-1 1.2-1.4.2-.8.5-.2.2-.7 2-.4 1.3-1.3.4-2.4.7h-.7l-1.2-1-.4-.4-1.7-1.3-.2-.2-1.8-.9-.5-.2-1.5-1.4-4 .2 1.5-.9.2-.2.9-1.6h.7v.2l.1-.1h.6l.1-.1.5-.1 1.4-.9.3-.2h.3l.1.1h-.2l.4.3-.1.6.4-.6.7-.1-.9-.2.6-.3 1.5-.5.7-.8.8-.9h.3l.5.2.1.3zm85.7-41.1l1.9 2.7-2.1 1.2-1-.5-.5-.2h-.7l-1.4-.4h-1.5v-1l-1.4-.9-.4-.8.5.3.3-.2-.2-.7.3-1.4 1.8.4 1.3.9 2 .4zm-72.3 36.8l-.3 1-.1-.2h-.4l.4.2h-.5l.2.3.6.1-.2.4-.3.5h.6l-.3.3.8-.3v.6l-3.3-.6v-.5h-.1l1.2-.2.3-1.8.7-.4zm1.7.4l-.2.9-1.2-.8.1-.9 1.1.2zm62.3-37l.2 1-.9-.1-.2-.6zm-.2-.6l.2.4-1.2-.2.2-.3zm-4 1.2h-.8l.1-.3zM591.6 723h-.3l.2-.4z"/><path id="E15000009" d="M565.3 641.7l.9 1.2.6-.4v1.7l.6.4.5-.4-.2.8.7.5-.2.8 1.2.5 1.5-.5.3.4-2 2.3v.6l.2 1.5 1.2.5.7 1.2-1.2 1 .5 1.4-1 .2-.4 1.2-.7.7.4 1-.4 1 .2 2-1.5 1.2.7.8.6 2-.4 1 .3.7 1.6 1.8-.8.2-.6-.6-.7 1.2.4 1.2 1.2 1-.5.8.2.4-.9.7v1.4l.6.9.8-.5.3.3 1.7 3.4.7-.4.1 2 2.3 2.8v1.5l-1.6.1-.2.4.7.4-.1.9 2.3 1.6-.2.8.6.6-.5 1.1-1.1-.6-.3 1.4.6 1.3-.1.6-.8.3v1.3h.5l-.3.8-.3.2-1.3-.7-1.1.2-1 2.2-2.2.2-.2.7 1 .8-.2.7.6 1.2-.2 2 1.4.6-.4 1.6.4.9-.2 2.8 1.3.5v1l-.4-.1.1.5-.9.2.4 1 .6.2-.6 1.3h-.6l-1 .8-.6-.3-1.7-1.6-1.4-.1-1.8-.9-.6.4-.8-1.5-.6.3-.8 1.3V711l-.5.4-1.6.2-.9 1-.3-.6v.8l1.4 1 1.9 2.7 1.2-.9 1.2.3-.2 1.5-1.2.8-.1 2 .8.2.9-.5.1 1.2.5.4-.5.4-.3 1.5 1 2.5 1.4-.8.4 1-.2 1 2.5-.3-.4.9h-.7l-.4.1h-.2v.1h-.1l-.6.6-.6-.4-.2.3v.1l-.2-.1.2.4.6.2.2-.3-.3.6-2.2-.6h-.8l-1.5.2-1.2.4h-.2l-1.8 1.7.5-1-.7-.3.2-.3-.4-.4-1.3.2.3-.5-.5-1-.2.2-.4.4.4.5.6.7-.6-.2-1.3-.4h-.2l.1-.2.5-.6h-1.1l.2.4.2-.2-.2.7h-.6l-.4.5.6.1h-.6l-.4 1.1h.7l.4-.7 1.1-.5.3.4h-.6l.4.8-.9.6.9-.4-.1.4.2-.2h.4l.2.3H556.3l.1.6.7-.6-.3.4.4.3 1-1 .3.5-.2 1.4v.3l1 .2-1.3 1.4v.7h.4l-.2.8-3 .4-1.1.7-.2-.4-.2-.6-1.8-.3-.9-.9-.5.3-.4-.4h-.6l-1-.5h-.2l-1.4.4-1.1-.2h-.6l-1.6-.3-.6-.5h-.2l-3.1-.2-.7.6-.2.5-.2.3.4.2-.4.4h.2v.1l.5.3h-.2l-.4-.3-.1.1-.8 1-.6-.4-.2-.3-1-1.4-1.2-.4.2-.4h-.5l-.1-.5-.3-.1-1.7-.8 1.7 1.4 1 .8 1.5 1.3h.1l1.6 1.6 1.5.1-.3.2.5 1-.3.5-.6.8-.7.9.3-2.8-2.1-2.3-1.7-1.3-.8-.7-2.3-1.9h-.2v-.1l-5-3-.7-.2h-.1l-3-.7-2-.5-1.5 1-2.2 1-.5.1-2.5-.2-.6 1H510l-.1.1-1.1.3-1.5.4-.3.2h-.1l-.1.2-.4.3-.7 1.5-.3.4-1.6.6h-.2l-.3.6-.2.3-1-.3-1-.2-.4-.3.3-.6-1.3-2.7-.1-.4-.2.3-.4-.3v-.1 1.1l.6 1V733.9l.2 1.6.1.6.7-.5-1.5 1.8v.2l-.2.8-.2.4-.7.8v.1h-.2l-.5-.2v.2l.5.3-.4 1.1v.2l-.3 2.2 1.4 1-1.4.7-.8-.6-.8 1.3v2.2h.4l.6.1h.4l.4.4.2-.1-.3-.4 1.2.4-.8.7.3.4-.4.1h-.1l-.1.3-.2.1v.3l-.2.6.1.2v.3l-1 1-1.1-.9v.1l-.2-1.7-.7-.4.6.5-.2.8.8 1.5-.6.6-1.3.5-1 1.6h-.1l-.7 3.3.5.7.2.3h-1.6l-1 .8-.6.4-.6-.8-1.4-.6.5-.7.7-.3-.5.1.3-1-.4.2-.3-.5.3 1.2-.5.5-.4.2v1l-.2.1-.8-.1-.4-.2-.9-.6-1-.8v-.2h.3v-1.2l-.9-.8v-.5l-.5.1-.2-.1v-.2l-.4-.4h-.3l-.2-.2h-.8l-.2-.5.3-.6-.8.6h-.2l-1-.2-.9.3v.2l-.6.3H476l-.7-.6.5-.3.7-.2-3-.4-.2-.7v-1.2l-.3-.5h.7l.1-.4.4-1.1-.6 1.3-.7-.3v.2l-.8-.1-.4.3-.1-.4h-.7v-.1l.1-.5-.5-.9-.4-.5.4-1.2v-.3l.2-.2.2-.4-.6-.7v.6l-.9.6h.5l-.1.4-.1.3.3.4-1 1h.4l.8.2.3 1-.6.2.2.2.3.4-.4.7 1-.7h.2l.4.4v.3l-1.3.8.4 1h-.8l-.5.3v-.2l-.1-1h-.2v-.1l-.8-.5-1.2-.9-1-.1-.3-.2h-.9l-2-.2-1.8.3-.6.6-.2-.3.2.5-1 .9-.8-.3-1.6.8-1.6-.5-.8.5-.3-.3-1 .3-.2-.3.8-.3-.5-.3-.2.1-.8.9h-.5l-.2.5-.4-.3.1-1.1-.5-.6-2.4 1-.4.6v.1l.5 1.3-.4-.1-.7.6v.4l-.2.8.1.2v.3l.6.5-.4.3-.3.2.2.5-.7.5v.2l-.1.3-.4-.4-.1-.2-1.9-.3-.6.7-1.6 1.7-.5-.6-1 .3-.6 1-.3 2-1.1.8-.3-.6.1-.1.7-.7-1 .3h-.2l.4-1.6h-.3l-.4-1.3.3-.3.1-.8.7-.3h-.3l-.3-1 .2 1-.5.3v.4l-.1.6-.1-.2-1 1v.1l.5 1.2-.3.7h-.1l-.8-.4.5 1 .6-.3.3.7-.4-.3-.4.3h-.1l-.2.2-.2.1-.2.2-.4.6.4 1-.5.5-1.5.2-.3-.5-.2.6h-.5l-.3-.3.1.3.2.1-.5.3 1.7-.3h.8l.5.3-.4.2h1.1v.2l-.1.9.7.8.1.2-.3.8-.1.2-.2.1-.9.5.2.6-.4.7-.8-.3-1.6.2-.9 1.6v1l-1 .2-.2-.5v-.2h-.4l-.7-.3v-.5l-.3-.4v-.3l-.3-.2-.2-.2.2-.6v-.1l.2-.4-.2-.3v-.4l-.1-.1-.7-.6v-.8l-.5-.6-.9-1-.6-.3-.3-.2H425.6l-.5.1h-.1l-.8-.7h-.4l-.7-.1-.1.2-.6.2v-.5l-1.3-1.1h-.8v-.2h-1.6v.1h-.1v.4l-.2.2-.3.2-.2.2h-.2l.7 1.2-.9 1.7-.3-.1-.3.3-1 .3h-.9l-.4.4-.5.2-.2-.1-.6.3-.5.2-.3-.1-.1-.2-.3-.8-.4-.2-.5-.7.6-.8.5-.5-.8-2.3 1.4-2.3 1.2-.1h.5l1.1-1.6.4.3 1.2-1 .8-.7h.4l1.3-.1.4.2.3-.2.3.8v.3l1.3.4h.1l.9-1 .6-.7v-1.2H424.5l.1.2h.2l1.3-.1.2-.3 3-2.3.5-.8.2-.3v-1.1l1.3-.2.8-1.2h.2l.9-.3.2-1.8v-.3l-.2-.3-.2-.3h.6l-.1-.5v-.4l.4.2v-.2l.1-.1.3.1.6-.3h-.3l.3-.2h.3v-.8l.2.2.5.5 1.1-.8.5-1 .3-2.2v-.9l-.5-.2.6-.7h.4l-.2-.3v-.3l.1-1.2-.4-.3v-.4l2 .5 1.1-1.4.2-.2v.7l.7.6v1l.8-.3-.5-.6-.2-1.2.6-.7-.5-.4-.3-.3.5-.4.3.1.2.5h.4l.5.1.2-.1.5-.3v-.2l.4-.2h.6l.3.1 1.4-.3h.1l1-1.5.5-1.8-.2-1 1-.3.1.1.2-.1.2-.7 1.7-.7v-.5l1-.7v-1.5h.8v-.4l.4-.4 1.5-1.1.6-.4h.1v-.1l.2-.2.2-2.9h.3l-.2-.5-.1-.7v-.4l-.3-2.1-.1-1 .1-.4.6-1h.2V714.5l.1-.1.4-.8V712l.2-1.9h2.3l1.7.5 2 1.4h1.4l.5-.2.6-.1v-.1l.4-.1.7-1 1-1.4.7-.3.8-1.4.3.7.5-.3.2.2.5.4v-1.2l1.2-1-1.3.4-.3.8-1-.7-.3-2.6-.7-.2v-.8l-.3-.2-.5-.4h1.5l.2-.5.2-1.7-.7-.6.7-.1.4-.6h.1l.9.1 2-.9h.3l.8.1.4-.4 1.9.7.4-.6.9-.1 1.8-.1 1.3-.8 1.3.5 1.7-.7 1.4.2h.1l1-.9.6.5 1.9.3 3.4.6.3.3.2.1 1.6-1h1.4l1.8.6 1 1h1l.5.5 1.2 1 5 .2 2.8-1.3.9.1 1.3-.5.6-.2 2.1.6 1-.1 1-1h.3l-.4 1.3-.9.7 1-.4.4-1 .7-1-.2-1.2-.7-1.3.4-3.4-1-.5 1.4.4h.2l.3-.8.2-1-.5-.3 1-.5.3-.7v-.5l-.7-.4.4-.1 1.2-.4v.4l.8-.3.3-.3 1-.8.2-1.2.6-.6 2.5-2.7 1-.6h.1l1.6.1.1-.6 1.4.8-1-1.2.4-.5 1.3-1.7.4-1.9.8-1 .6-1-.4-.2-.8-.5.1-.4-.4-1.4-.5-.1.6-1h-.8l1.1-.7-.6-.4.1-.8-.5-.5.6-.3-.8-1.5.6-.4.4-1.1-.7-1 .4-1.6-.3-.5.7-.5v-.8l.4-.2.5-1 .4.2 1-1 .7.3v-.7h2l.9-1.5.8.3 1.9-1-1.1-2.6v-1l-1.3-.5.3-.2v-1l.9-1-.9-.8.6-1h.5v.6h1.1v1.1l1 .2.5-.1.2-1.1 1.6-.5v.5l1 .6v1.8h.5l.5.5h2l1.1-1.8 1.4.3.2-.5.2.2h.4v-.5l-.9-1 .4-.2-.1-1.3.7-.5 1.8.8-1 .7-.3 1.3.4.5 1-1 1.1.3 1-.3.4.7h.4l2.2-2 1.2-.2.8.5.7-.9 3 2.4.5-1.5-.4-.9-1.1-.6-.5-1 1.1-.6.6.4.5-.8.2.4.5-1.1zm-176 135.5v.8h-.3v.2h-.7v.5l-.2-.2-.2-.4-.3.3-.2-.1.2-.2.5-.2-.1-.7.4-.5 1 .5zm62.8-75.6l-.3-.4V699l.9 2.4-.4.2zm-64.4 74.6l-.6.3-.6-1.6.8.5.4.6zm1-2l.2.6v.1h.4l.5.1-.5.4h-.4l-.5-.3v-.2l.2-.6.1.1zM558 730.7l-.5.3-.8-.4.5-.3zm-171.8 48.5l.8.2v-.2l.3.2h-.3l-.2.7-.6-1zm.3-3.1v.2h-.5v-.1l.2-.1-.2-.1v-.3l.2-.3-.2-.3.3.3zm169.3-45.2l-.3.2-.1-.6zm-106 .3z"/><path id="N07000001" d="M382.4 435.6l1.8.4 1.6-.9 1.4.4.8.7h.9l2 1.9 3.8-1.7 1 1.2 2 .7.5 1.6 1 1-.2 1.6-.5.6.3 1.8-1 1.5.3 1-.3.4.7.5 2-.4 1 .5-1 4.5 2.8 1.6 1.6 3.7.8.6.6-.2.2 1.4 1.6 2h.5l.2-.5.5.4.1-.4 1.5.7 1.4 3v2.5l-.8 1.4-1.7 1.7-1-.1-1 .8-1.3.3-2.2 2.2-.7 1.7 1.5.7.7.3 2-1.7 2.5-1.3.8.8 1.6-.2.3.4.6-.5.7.3.2-.9 2 .1 2 2.3-.1 1.5.4 1.4 1.8 2.5-.3 1.2.8 3.2 1.2.8-.3.7.2 1.3-1.7 2 .6.8.2 2-1.2.6-.1.7.4.6-.6.4v1.2l-.7.6-.7.5.3.4-1 .3-.4 1.3-1.1 1.5h-.7v1l-.4.2-.2-.6-.4.2-.3-.7.2 1.4-1 1-.6-1.3-.6-.3-5.1.5-.4-1h.7V500l-1.4 2.2v.3l.7-.1.1.6-2.4 2.4.8 2.6-1 4.2-2.1 1.7-.5 1-1.3.1.3.3-1 1-1.9 1.3-1.7-1.2.3-.5 1 .2-.8-1.2-2.5-.1-1-.6-.5-1.6-2.2.1-1.5-1.1-.7.4-.3 1-.7-.2-.2-1.1-1-.1.1 2.7-1 .9-.9-.3-1.2.5-.5-1.1-.9-.3.3.7-1.5 1-.9-.6-1 .7-1.1-.5-.3.8-1.2.6-1.7-2.4.4-.3v-1.3h.5l-.6-1.7h.5l.3-.7.4-1.4-.2-1.2-1.2-1.4-1-.5-.7.1-.5 1.1h-.7l-.6-1.1h-.8l-1-1v-.5l-.6-.1-.4-2.6-2-1.2.1-.5.6.4.4-.7-.5-2.6-.5-1.1-1.2-.3-.2-1.6h-.8l.3-.5-1.4-.7-.7-1-.7.2-1.3-1.1-1 .7-.7 1.5-1.4 1.3.2.9-2 1.4-1.3-.2.4 1.9-.8-.1-.5.7 1.5 1-.2.9.7-.1.7 1.2-.7.8.6.2v1l-1 .5-.7-.5-.4.7h-.9l-.4.6-.6.1v.4h.6l-1 .4v1l.7.5-.7.4.2.6-1 2.2h-.8l-.4-.7 1-.3-.7-.5.8-1.5H349l-1.1 1.4 1.3 1.5-.5.7-.3-.8-.7.6-.7-1-1.1.7.7-1.3-1.9.2.5-1.3-1.3.2-1 .8-.5 1.3-1.9-1-.7 1-.7-.3-.4-1-1.4-.2-.7-1.6-1-1.1-.8.2-.4-1.7-2.1.3-1.1-.4-1.7.5-1-.5-1-.6v-2.8l-.4-.4v-1l.4-.8h-.7l-.8-.6-.4.4-2-1.1-1.5-3H321l-1-.6-1-2.1-3-3 .6-.6-1.3-1 2.4-.2.1-.5h.9l-.3-.5.4-.2h1.8v-1.3l1.4-2.7h1.4l.8.8h3.9l1-.7-.4-.5 1.5-1.3v-.7l1.3-.3.4-.8 1.9-.7.4-.7h-.5v-1l-1.4 1-.6-.4-.6.2-1.6-1.5-.6.8h-1v-1.2l-1.5-.4-.7-.8-.1-.5.6-.9-.9-.5.1-.4h1.5l1.7-2.3.7.1.5 1h.7l1.5 1 .6-.8.9-.6.6.1 2.3-1.8.8.5h1l.5-.5v.6h1.3l.4-.3-.5-.6v-2.3l.7-1.2 1.8-1.1 1.6-3.3-.2-4.3 2.2-.7-.6-.7v-1.8l.6-1-.6-.4.6-1.3 1.7-2 1.1.4.8-.7.4.6 1.2-1.4.1.5v-.4l.4.2-.3 1.3.8-.3.3-.9 2.7.2.3 1 1.5.1 2.2-.5.1-.5.3.3-.1-.4 1.2-1.3-.2-1.5 1.1-.7.9-2.6v-3.2l3 1.7 2.3.2 2.3-.3.2.3 1.7-.4.1-1.2 2.4-.6v-1l.4.6h1.7l2.8-1 .2-1 1.8-1.2h.6zm11.2-4.3l-.8 3-.5-1.2.4-1.2H389l.6-1 1.2-.3zm25.3 42.5l-.2.5-.8-.2.5-.6zm-1 25.5v.4l-.2-.3zm1-26.9l-.2.3v-.3zm.3.1l-.2.1.2-.3zm-43.3-36v.2h-.4zm43.3 36v-.2zM375 436.6zm44 35.7zM397 516zm22-43.4zM375 436.8zm8.4-1.2zm-8.1 1v.1zm-.2 0zm14.1-5.4zm-14 5.4h-.1zm.2 0zm0 0zm0 0zm31.7 23.8zM374.7 437zm.6-.3zm.1 0zm-.7.1zm0 .1zm15-6zm-13.7 5.7zm29 70zm10.6-4.7zm-39.5-65.3zm36.8 67zm-38.3-66.7zm14.8-5.6zm15.7 76.1zm6.4-33zm-37-37.4zm40.6 65.7zM419 474zm-44.3-37zm30.4 69.7zm-30.4-69.7zm30.4 69.8z"/><path id="S15000001" d="M502 190l.3-.2.2-.1.9.6.4 1.3h.1l1.1.2h.1l1.3-.7 2 .3.8-.5.6-.3 1.3 1.7 2.2-.7 2.5.2h.4l-.4.7v.2l-.3 2.5-1.1.5.5.8-.3 1.2-2.3 3.1-.2.3v1.4l.4 1.4v.2h.1v.1h.2l.4.3 1-.3h1v.3l-.3 2.4h-.9v.2l.4.5-.4.7-.2.6-.1.3-.7 3-1.7 1.5-.5.6-2.2 2.8-2.7.6-.3.6-2.6 1.1-.7.3-.2.3h-.1l-1.3 1.5h-.2l-3.1 5.5-4 3-.5.7-.5.3-.9.3-1.3 1.5-.2.2-1.9 1.6-1 .4-.1-.1-.7.4-.5.1-1.1 1.4-.6 2.4-.9.7-3.7 1.7-.7.3-.9 2.6h-.8v-.1l.8-1.3-.8.3-.7.4-.3-.8-1.1.2.5 1.1 1.4.7h1.2l.4 1.8-.8.9v2.3l-.5-.3-.4-.3h-1.4l-1.6 1.4-.3-.5h-.8l-.2-.1v-.3h-.6l-2-1-2.8 1-2-1.4 1.8 1.6 1 .2 2.7-.6 1.2 2.2 1.7.3-.7-1 3.7 2.1.8-.6 2.4-1.7 1.2.9.5-.3 1 .9-.8-.2-1.4 1 1.5-.6 2-.2 1.2-.8.6-1.8 1.1-.3.5-.2-.8 2.3-2 3-1 1.3-1.8 1.8-.2.5-1 2-1 1.4-.1.3h-2.5l.2-.5.3-1.3.4-.3.3-.4v-1l-.4.2-1.3.8H475l-3.2 3.1-1.2-.3-.4-.1-2 1h-.6l-.2.5-.7.3-.8 1-.6.2-1.9 2.2-.4 1.1-.4.4-.3.4.4-.3.1-.1v.2l-.2.3.3-.4v.4l.3-.8.1-.1.1-.1.3-.2v.1l.2-.2.3-.3v.2l5.3-4.2 2.3-.4v1.4l3.1-.6 2-1.4.3.1 1.1.3v.5l-3 3.7-.7.6-.3.4-.4 1.3.8 1.1-1.6-.3-.1.1h-.2l-1.3.8-.5 1.4-1.6 3-.3.4-4-.6-1.8-.2.8.7h-1l1.2.5-.5.1h.9l.3.2-1.3.4 1.3-.4v.1l-.3.2h.6l.1.1 1.6.3 1.8-1h.3l.5-.1 1.2.9h.5l1.2-1.3V275l1.4.1.4-1.3 2.4-1.9-.3-1.2-1-.4.6-.6 1.7-.1.2-.5 2.6.8.5.2 2.4-.3.4-.2 1-.4 2.1-2-1.8 1.3.5-.7.6-.5 1.3-.5 1.3-1.2h.7l-.2-.3h-.2.1l3-.8 1 .5-.1 1.2.5-1.2-.6-.5h1.6l1.2-.1h.9l1.2-1.1.3-1.3-.3-.6h1.6l2.5-1 1.9-.4h2.5l-.1.5 4.2 2.1 2.3.7 3.4 1h.4l.4-.1 3-1.5.4-.8 1.4-.5h.6l.9-.1v.6l.7.4.4-.2h.7l.3-.3.6.5h.4l1 .6v.2l1-.8 1.3.7.4-.4.2-.2 1.2.7 1.6.2h.5l.3-.3.2.2.3.5h.2l.2.2h.4l1 .3h.1l.6-.5 2 .3.3-.1 1.5.1h.2l1.3-.5.7.5.3-.3.5-.3v-.3l1-1 .5.3.6.7.3.2h2l.4.2.3.3h.1l2.8-2.1 2.2.2.5.2.3.3 1.5-.5.2 1h.1v.3l.8.2h.2l.6.2.5-.4.4.2 1 1.4.6 1.7.5.4 2.1 1.3v3.1l.8 1v1.9l.2.3v.6l1 .5.2.3-.2.6-.4-.4h-.2l-.1.1v.5h.2l.1.2-.3.4-.2.2.8.8v.4l-.2.2-.8.8-.2.6-.1.2-.4.5v.4l-.2.7-.3.3-.4.3-.3-.3-.6 1.1.3.8-.7.6-1.3 1.1-2 2.5-.6.8-.1.3-.4.5-.5 1.3-.5 1.2-1 2.4-.4 1-.4 1.1-.4 1.7-.2.7-.1 1.9v.9l.6-.2h.2l.4.3-.5.3.5.4-.9 1.8h-.1l-.5 1.3-.3 1.3-2.7 3.6-.6 2.8-1.2.8.7 1.2-.4.2.2 2.6v.2l-.8 1v.6l-.4 1.2-.2.5-.3.3-1.1 1h-.3v1l-.6.2-1 1.9-.5.3-1.1.7-.7 1h-.4l-.5-.1h-.1l-1 1.4-.4 1.7-.6 1.9-.5.1h1l-.4 1.4-.2.2-.7.7h-.4l-1.1 1.3.3 1.5.5.1.3.2v.5l-1.4 1.9v.8h-.1l-.6.4v.6l-2.7 1.2-1.2 1.6-.6.5-1.3 1-1.2.8-.7 2.2-2.4-1.1-1.7.4-1.2.8h-.4l-1.1-.3H520.5l-.6.2-1.2.4-1 .5h-1.9l-.6-.5-2.9 2-3.9 4.2-.3.2h-.8l-.4.1-1 .6-.2.2-.2.1h1.5l-.6.2 1-.3h1l1.5-.8 4.8-2.6 1-.9 2-.3.5-.5 2.1-1.7h1.6l1 .9 1.4-.4.6.3-.8 4.2-1 .8-.6.4 1.2.7.5-1 .8 1.2v.3l.5.5.4.5 1 .1 2.6.6.2.3h.8l.5.7.6 1 1.7 1v.2l-.3.4-.3.5-1 .5-.7 1-1 .8-1.4 1-1.4.6-1.5.5-.7.8-.5.4-.2-.4-.6.4-1.4-.2v-.2l.2-.2-1.1-1-2-.4-1 .7-1 .7V369.8l-.3.3-1 .9-.7.3-1.7 1.8-.5.4-1.5 1.2h-.3v.3l-.1.1-.9 3.5h-1.7l-.6.6h-.2l-.5-.5-.8.3h-.1l-.4.1-1.5 1.5-.6-.3-.5.6-1 .2-.1.1h-.4v1.4h-.1l-.8-.8h-.2l-.8-.5-.2.4-.5-.1-.2-.7-1.2-.2-.5-.1-.6-.5-1 .1-1.1-1.3-1.3.9-.4-.7-1.4.3-1.3.2h-.2l-1.9-2-.2.3.5.6.4 2.7 1-.5.4-.3.4 2 2.8-.8h.3l2.9 1.1.4.2h.1l3.3.6 1.4.2.2-.1h.1l1.2-.7 1 1.1 1.6.3.9.1.4-.1.8-.4h.1l.4.5h.8l.6-.8 1.4 1.3 1.2 1.1.6.3.2.1h.1l.6.3 1-.2.2-.2H516.8l.3-.2 1.5-1 1.7-.3.8-.5.6-1-.2-1 1.9-.3-.9-.6v-1l.4-.1.6-.2 1-1.5h2.3v.1h.5l3.1.1 1 .4.6.4.3 1 .7.4.5.5-.3.7-.3 1 2.7-.6h.6l.8.3 1.2.8h.4l.3.1 1 1.2h.4l.3.3.3.7 1 .8 1.4 1 .4.1 2.4.4 1.4-.6 2 1.1H550.7l.1.6.2 1.1.1.1.1.5.6.1.3.4h.5v.2h.4l.3 1.2.1 1 .4.6 1 1.5-2 1.3v2.1l-.9.2-.3 1.5h-1l-.3 1-1 .3.3 1-2 2v.8l-1.1.9.5.7-2.7-.4-1.2.9.4.6.6-.2-.3.6 1 1.1v1.6l2 1.7.4 3.2 1 1.4v1l1.5.4-.9.5-.3 1.2-1.4 1-1.1-.2-2 1.8-1-.1-.3.6.6 1.2-.7.6.4.4-2.2 1.4-.9-.8-2.5.3-1.6 2.1-1.5.4-.5 1.4-1.4 1-.7 1.4-.8.1 1.4 1h-.8v1.5l-1.4.2-.9 2.2-.5 1-3.2 2.2-1.6.3v.9l-1.3 1.1-1 1-.5 1-1.7.7.2.6-.9.7-3.6-.2v.4l1 .8-1.4 3.4-1.2.7h-1l-1.2.8-2.3-.9-1.3.6-.4-.3-.6.4-2.5-1-1.5.7-1.5-.3-1.2-1-1.2 1.5-2 .1-1.5-.8-.2-.5-.4-1.4v-.1l-.6.6.5 1.3-.4.2.4 1-.5 2.4.5.1h.2l.3 1.2-1.2 1.6v.7l-3.6-.4-.3-.4-1.3.3-.6 1.2-1.7.7-.3-.8-.7-.5-.3-1-.2 1.7.7 1.1-1.5-1 .4 1h-1l1.3 1.3-.1.3-.7.4-.4.1-.1.3h-.3l-1.8 1.2-.9.3-1.4 1-.4.3-.8-.4-1.6.3-.2-.3-.5-.6.7-2.2-.4-.7-.7.8.4-1.3-1 1.3v2.2l-.7.2.7.3-.2.6-.4-.1-.2-.1v-.6h-.4l-.1-.2v-.5l-.6.8-.7-.2-.9-1v-1l-1.2-.3-.1-.4-.3-.7.3-.5-.5-.3.9-1.8-1 .2-.2.8-1.1 1-1.3-.3-1.4-.7-2-1.7-.3-1.4-.4-.4v-.9.4l-.4 1 .5.2-1 .5-.3 1.3.3.2.4 2.5 2.3 1 .5 1-.3.5-.8-.2.3 1-.4.4.4.2-.2 2.8v.4l.4.2.2.4v.3l-.3.9-.3-.1v.4l-1 1-.5-.2-3.1-1.6-1-.5-.8-.7h-.2l-.3-.2v-.6l-1.1-.3-1.2-2.7-2.7-1.6-1.5-1.6-2.6-.5-.3-.2-.9-1.6-.2-.4-1.7-.4v.9l-3 1.6-1.1 2 1.7 4.1.2 1.6.2 1.3 1.6 1.2-.6.9v1l.2 1 .6.1h.3l-.6.2-1.9-.5-1.9-1.4-.3-1.8 1-.7-.7-1.2.3-.7-1.3-.4v-.3l.2-.7-.7-.4.2-.6-.4-1.3-1.3-.6-.4-1.2-2.8-2.4-.7-.7v-1l-1-1.6-.5-1v-.2l-.2-.8.1-1.7.2-1.3v-1.3l.4-1 .4-.5.8.1.3-.1 1.2-.6 1.5 3.4-.6.3.4 2.4 1.4 1.5.4-.2.3.1.7-.6v-1.2l-.3-.5-.6-2h-.1l-.8-1.7v-.2l-.8-1.8.3-1.8 1-1.7.6-1 .8-3.6 2-1.4 1.1-2.3 2-2-.2-1.2.3-.5.2-.6.7-1.5v-.5h-.1l-.3-2.4.6-.6 2.2-1.8.2-2.8.6-1 1.6-1.2 2.3-.6v-.3l.3-1.6.6-.5.1-.3.3-1-.4-1.7-2.2-1.9.4-.2.7.2v-1.5l-.5-1.4-1-1-.3-.3-1.3-.8-.4-.3-.3-.5h-1.4l-.3-.5h-.9l.3-.6-1.9-2.6-1.3-.7-.2-.2v-1.7l1.1-.6.2-.8-.2-.3v-.2.1h.2l.4.1.1-.8v-1.1l-.7-1.7-.6-1.4v-3.9l-.1-.3-.2-1 .6-.7.3-.4h.1l-.4-.4v-.2l.1-1.7 2.3-1.4.5.3h.2l.1-.3h.6l.8.4.7.9.6-.2 1 .4h.1l1.2.6h2.3l1.2-.1h.7l-1.7-.8v-.1h-.1l-1.8-1-.4.2-1-1.8-.3-.5-.8-.4v-.1l-2-1h-.4l-.2-.2v.2h-.2l.1-.8-1.2-2-.4-1.7-.4 1.3.6 1.7 1.3 2.1v.2h.8l.1 1-2.1.2-1-.3h-.2l-.7-2.9-.3-1.6 1.5-4.2 2.8-5.2.7-.6v-.6l-1.5 1.6-2.8 5.7-1-.6.1-2.3-.7-2-.6.4.7 1.2-.4 2.5 1.4 1.8-.8 1.1-.8 1.3.2.8.5 3.5v.4l-2.4-1.2.5.6-.3.2 1.7 1.6-.1.3-.7 1.3h-.1l-.1.6-1 3.2-.4.5-.3 1.4-2.6-.6.2-.8-1.1-4.9-.2-.1-1.3-1.2-.6-2.6-.3.9 1 2-.5-.4 1.4 2.4v.4l.2 2.2h-1.4l-2.4-2v-.1l-.2-.1-.6-2v.3l-.2-1v1.7l-.2 1.5-.8 1.1-.4.4-.2.5v.2l1.4 3.6V395l-.4.2-.4-.8h-.2l-1-.6v-.4l-1.2.3-.1-.5-.1-.2-.8.4v-1.7h-.2l-.6-.5-.6-.3-.1-1.2.1-.5.4-.5-.2-.3.3-1.5.2-.6v-.2l-.2-.2-.4-.5v-.1l.3-2 .8-1 .2-.3.4-.6.4-1.4.3-.8 2.9-3.5.2-1.6 4-2 .7-.7.9-2.9 1.2-1.1 1.9-.8 2.4-2.4-3 2-2 .5-.2-.9-.7.6-.1 1-1.2 2-.3-.3.3 1-.5 1-1.1 1-1.8.5-1.7 1.5-.8 2.2-1 .6-.5 1.3-.5.6-.4.2-.6-.5.3.5-.4.4-.2.2-.2 2-.5-.3-.1.2-1.1 1.3-.2-.2-.2.2-.3.2-.3-.2-.5-1-.1-1.1-.4-.2-.1 1.1h-.1l-.1 2.2-.1 1.3.2.5.6 1.2.4 3.5.7.6-.4-.1.4.9.2.4h-.4l-.3.4v.1h1.1l1.8 2.5.2.5.7 2v.8l-.2.8-.2.3-1-.1-1.6 1-2.2 3v1.4l-.4.3-.2 1.2-.6 1.6h-.1l.6 2.7.4 1.9-.3.4-.2-.8-.7.2v.5l-.2.1.1 2.6v.2l-.5.1-.2 2.8-.2.2-1.1 1.2-.1.1-.2 2.2-1.2.7h-.9l1 .7.6-.4h.4l.4.8.6 1 .2 2.3-1.6 2.5-1.6 1-1.1.1H412.2v.1l-2 1-.5.1-1.1-.5-.7-.5v-.6l.2-1.4-.1-1V426l.3-1 1.3-1.3h.1v-.2l.2-.6h1.1v-.7l.2-.5v-4.4l.1-1 .4-.8v-.2l-.1-.5-.3-2.2.7-.8h.1l.2-.8.6-2.4.4-2.4-.5-1 2.2-2 1.6-3.4.3-.5h.7l.1-.2 2.7-2.4 1.6-3.5-3.9 4.8-1.4.7-.2.2-1.3.8.3-.9.2-.2-.4-.2-.4-.1.5-1-1.2.6-1-1-.2-.9.7-3.4 1-1.4.4-1 1-1.7.8-.8-.3-.4-1.2.7-2.7 3-.1-1.4-.3-.2.7-2.3.2-.5.4-.6 2.3-3.6.7-.2.1-.2.1-.1.3-.9-1.3 1 1.3-1.8h-.1l-1.6 1.2 1.1-2-1.2 2h-.5l.5.5-1.4 2.4h-.4l.9-2.1-.8 1-.2 1h-.2l.1.1v.3H413.6l-.5 1-.6.4-.2.2.1-.2.4-.8-.9.9-.3.3-.3.2v-.2l1.7-3.7.6-1.2.8-.4v-1.7l2-2.7h.6v.1h.6v-.2h.3l-.2-1-.5.2-.2-.6.2-.5 2.1-4.2.3-.4-.3-.4-.4.3h-.2l-.3.4-.1.1-.4.4-1.3 1.2-.5 1.2-.3.5-.6.1.4-.6.5-.8-.4.1.2-.7h-.2v-.2l.6-.4.5-1.5.6-1-.2-.2v-.2l.5-.3.4-.3-.3-.8-.1-.1-.6-.4.5-.1h.4l.4-.5.4-.2.4.1.3-.4.7-.3h.2l-1-1-.4.8H417.2l-.7.8h-.6l.7-2.5-.3-.2-.1.2.4-3.5 1-1 .4.2v-.2l.4.1.5.4-.2-.3.4.1.6-.6 1-.1 1-.6-.2-.4-.9.8h-.1l-.8-.2-.8 1-.7-1 1-2.6 1.5-1.2-.4-1.6 1.7-1.4.1.6.9-.6v.4l2.5-.7.3.3.5.4.3-.3.2-.2 1.2.6.7-.1v-.5l.8 1.4h.4l.4-.6 1.5-.2 1.2-1.7.9-.3-.4-.4.5-.7.6.2-.5-.2 1.3-2.5 1.2-2.5-.5.2-.7 1.7-1.5 2.3-.8.2-1 2.8-2 1-.6-.8-.4-.4-1.2.3-2.3-.8h-.6l-.1.9h-1.6v-.5l.2-.4-.2-.3v-.6l-.5-.6-.1-.1-.2-.1.2-.7.1-.2-.1.2-1.1 1.9h-.1v-.7l-.8.5.3-.6 1.2-2h.3l.3-.6.3.4.4-.3.1.3v.3l.2.1.2.4.1-.2.2.1 1.8-.7 1.5-1.8 1.8-.2.2-.3h-.6l1.1-.7-2 1h-1.4L425 346l-.9.2-.4-1.4-.9.3.5-.7h-.4v-.5l.2-.3.7-.6v.7l.9-.5-.7-.6.8-1.6.2-.5 1.4-1.2 1.1-1.3v-.3l-.2-.3h-1l2-1.6.8.2.1.1 1.1-1.4 1.7-.2 1.3.8 1.2-.2.4-.8 2.2-1 3.2-.6h-1.7l-5.9 2-.2-.5h-.8l.1-.5-2.4-.2.7-1.9 4.5-6.3.5-.6-.4-1-1.5.1-.4-.4-1.2-.7-5.4-.2.3.5 2.7.5 2.9-.2.8.3.3.4 1 .1v.9l-2.5 2.7-1.2 1.3h-.8l.3.7-.8 1.6-.1.1.4.7.1.2-1 .4-.2.1-.4.8-.2-.6-.4-.2-.2.3h-.2l-.7 1-.9.5-.4.3.2.5-1.7 2-1.4.4-1.4 2-.5-.2-.2.5-1.2-.5 1 .7-2.1 3.8-1.2 1.2-.8.8-3.3 2-.4-.9v-.2l-2-.9-.4.4-.3-.5-.3-.4 1.2-2.1-.3-.2-1.4 2.3-4.7-1.3-.1-.1-2-2.2-.8-2-.9-.6-.1-2v-.2H401.2l.9-.4.8.4.2-.1.2-.1.5-.3.6 1.3h.5l1.8 1.1-.4-.8-1-.5-.3-.6v-.2l1-.4.4-.1.3-.2.5-.3.5-.4 2.3-2 1 .3.7 1 .6-.1 1.1.6 4.5-.8-2.8-.1-1.8.6-2.2-2.1-2 .1-.3-.5v.7l-2.4 2.4-.8-.6-1.1.5-1.2-.2h-.3l-.3-.7-.4.5-.1-.5-.7.7-.4.3-.4-.8-1.7.2-1.5-1-1.2.5-.8-.6-1 1-1.6-.4-.2-.2-1.5-1.8v-.9l.7.1v-.6l1-.1-.3-1v-.2h1l1.7-.7.6-.1 1 .1.7.3.6-.5 1.3.1.1-.5 1 .2h.2l.5-.3.2-.8 1.4 1.6.8.9.9-1 .6.5-.3.8 1-.5.1-.6-1.5-.4v-1.4l1 .5h1l.5-.5h.4l.4.1v-.2l.4-.4h-.2l.1-.2-2.7-1 .1-.8.2-.7 1.1-.3.5.5.1-.3.7-.4h.4l1.1-.8 1.5.4.5-1 .3-.5.9-.5v-.1l.4-.2-.5-.1v-.2h-.4l-1.2 1.7-.3.5-2.4-.8 1.5-1.6.6-.1.3-.1-.3-.1-.3-.1.2-.5-2.6.4-.2.1-.6.6-.1-.6-1 .5-.4-.2-1 .7-.8-.7-.5.2v-.7l.9-.4.2-.7.6.5h1v-.7h-.9l-1-.8.4-.5.6.1.6-1.1v-1.2l.9-.9-.4-.2v-.9l.6-.6v-.5l.2-.4.1.2.6-.7 2.9-.3h.3l.7 2 2.9 1.4.4-.4.8-.6.6.3 2.6-1-.2-.4h-1l-2.3 1.1-.4-.1-1.6-.6-.8-1.7v-.3l.2-.3.5-.1-.3-.4-.4-.2-.5-.2-.4-.2-1.5.5.5.2-.3.3-.2-.1-.4-.3v-.1l-.3-1.2-.7.5-.6-1.5 2.8-2.6.1-1.2h1.6l1.4-.7.3.1 1.8.5.3.5.6 1.2.3-.2.2.1.2.4h.3l.9.7.4-1.1h.7l1.6-.6 2.3-.2-1.4-.5-2.3 1-.2-.3-1.4.3-1-.8-.3-1.5h-.7l-1.2-.9-1.1.2h-1l-.7-.7-.3-.8v-.3h-.1l.3-.6.7-.8.9-.6.4-.3.3-.9v-.5l-.8-.4-.4-.2v-.7l.3-.3.4-.6 1.6-.6.5.2.7-.4 1-.6h.5l.6.7 1.2 1.7 1 1 .9.7.3-.6.7-.3v-.6l-.3.4v-.1l-.8-.3-.8-.4-2.3-2.6.7-1 .4-.6v-.6l.9-.5-1 .4v.5l-.4.5-.6.3-.3.8h-.1v-.2h-.2l-.2-.1-1 .4.1-.5-1.3 1-.4-.8-.7.5-1.1-1-.2.1-2.7.2h.1l-.4-1 .5-.4-.4-.1v-.2l.4-.6.6-.2.2-.6.3.3.7-.4h-.4l-.2-.7v-.3l1 .1h.1l.5-.4-.5.6-.2.2h.5l2.4-.7.4-.6h1.7l1-1 1.5-1.2v-.1l.5-.5.1-.8.1-.4-.2.3-.6-.4-.5.6-.8.5.2.2-.3.4-.3.2-1.4 1.8-2 .2-.4-.3.6-.4-1.4-.1v-1h.2l1-.6.4-.2-.7-.5-.2-.4-1.2 1-.6.3-1 .5-1.6 1.7-2.3.6-.8-1.9-.2.8h-.1l-.2-.1-.4-2h.1l.3.3v-.1h.1V283.4l.4.6.1.1v-.1l-.2-.5h.1l-.2-.3-.4-1 .1-.5.6-1-1.4-.3-.5-.3-.7-2 .9-6.4.4.4v-.4l.1-.7v-.3h.5v-.1h.2l.2-.6.2.1.4.7h.4l.4.3.4.8 1 .4v.7l.6-.2.8.5-.2-1h.2l.3 1.6 2 1.5-.1-.2.1.1-.2-.5-.1-1.9 1.3 1.8v-.8l1.6-.2.3.4-.2-.5.6.3v-.5l1 .6.6-1-.5-.6-2.2-.3h-1.7l-1.2.8-.2-.4v-.1h-.1l-.2-.4-.9-1 .8.3-.2-.6v-.1l-1.6-.6-.2-1.5-1-1.3-.2-.2-.8-.7h-.2l-.5-.3-.7.1.6-2 .6-1.2v-1l2-.9.3.6v.2h.1l1.6.6v-.7l.6-.2-.3-.8-.6.1.3-.5-.4-.9h-2.5l-.5-.7-1.6-.7v-.2l.5-3v-.2l-.4-4.6h1.3l.7-.8.8.4 1.1-.3.4-.1.4.2.3.1-.4 1.6.4.5v.2l.3.4.1-.1.4.5-.2 1.7 1.7 2.4h.3l.5.2.3-.6-1-1.2.5-.5.2.7 1-.3v-.6l-.8-.2.7-2.5h-.2l-.4-.2-.3-.9-1.5-.4.2-.5-.7-1.1v-.1l.5-.3h-.2v-.1l-.3-.3.1-.4 1.2-2 .1-.2 1.5.4v.4l.1.2.7-.5.8 3.5.1.1 1.1.5 1.6.7h.6l-.2-1 .6-.3.8-2.9 1.8 1.1 1.2.8 1.4 1.7 3 1-.6-1.5-2.5-.8-1.1-2-2-.5h-.1l-.4-1.4h1l.3.1.4-.7.2 1 1 .8h.2l1 .3 2.3-.5 3.5 3 1 .1 1.5 3.4.6.1-1.3-3.2-1.1-.6-.8-1.2-.5.2-.8-.8.8.2-2.3-1.7 1-.3v-.5l.2-.1h.3v-.2l.3-.1v-.6l.2-.5-.4.5-.3.3V242.8h-1.3l-.8-1-2.6-.6v-.2l.2-.5-1-1.4h-.9l.3-.4-.4-1-1.2-.2-1.2-.3.2-1.4-.1-.2-1.3-1-.3-.4.5-.5-.3-.2.1-.6.1-.4h.4l.4-.7 1.3 1 .5.4 1 2.2.1-1.6h.5l.6.8 1 .3.7-.7-.2-.5v-.2h.4v-1l.4-.4-.3-.6-.5.2v-.1l.3-.4-1-.4h1.6l-.4-.5-1-.8h1.6v-.2l.4-.6.3.1.1-.6-1.2.6-1.6-.6 1.2-.9-1.2.4-.3-.6.5-.4-1.1-.4-.3-1.3-.3-.2-.6-1.2-1.6-1.3v-.2l1.1-2 .4 1h1v.1l-.1.5.9.2.4 1.2v-.1l2.6-1.8-.6-.3-.9-.3.7-.8.2.6h.7v.8-.4l.1.1.4.3v-.6h.2v.1l.7.7 1-.4.2.8.6.6-.5-.8.2-1 .5.4v-.1l1-.4.2.7-.1-.7-.3-.3 1-.5 2 1.7 1.1-.2h.1l.2-.6.5.2.3 1.2 2.5 1.8-.6-1.3-1.7-1.4 2.8-.4-3.4-.6-.9.2.4.2-.3.3-1-.2h-.2l-1.9-1.2v-.6l-.5.2-.5.1v-.6h.3l.2.2h.1l-.1-.7-.6.1.1-.5-.2-.5.5-.4-.8-.1.8-.6-.6-.6v.1h-.1l-.5.4h-.4l.4-1-.7-.9v-.3h-.2l1-.2-.8-.6 1.2-1.8v-.2l-.3-1 .4-.8 1 1.2 1 .1v.4l.6-.3h.2l.2.8 1.8.5-1-.7.5-.5-1-.6.1-.3-.6.1.7-.6h.8l-1.3-.3-.1.5-.8.1-.6-.3-.2-.2h1l.4-.1-.4-.3-.3-.1-1-.6.6-.8.7.1-.6-.2.5-.5.2-.1.2-.2 1 .1.8.1 1.4 1.9-.3-1 .4-.3-1-.3v-.6l-2.3-.3.8-.5-1.2-.4v-.6l-.1-.1-.5-.3-.5.3-.4-.8v-.5l.7-2.4.2-.2 1-.6 1-.2.3-.7 1-2h.1V195.9l.2-.2-.2-1.6v-.4l.4-.5 1.4.8.5.3.4.1.4-.6h.3l2 .2 1 1.1 1 .2.2 2.6.1-.1v.1l1.2 1.3-1.6 1.7 1.4-1.3-.8 2.2 1-2.3.3-.4-1.4-1.4.3.1.2-.7.2-.2v-.3l1-.1-.8-1.4.5-.2.2-.1.4 1v.2l.4.1.4.2.1.4.2.8v.1l.7-.3.5 1 1 .5h1l-2 3.8-.3.3-1.6 3.3.7.1.4-1.2 2.4-1.2-.2-1.2 1-1.5.3-.2.7-.2-.1 1 1-1.8v-.2l-.2-2 .3-.8.3-.3h2.9l.5.4.2.4 1.4.5v1l.2-.2.5-.4h.2l.3.5-.2 1.5.4.2v.1l.4.2-1.8 2 .2-.1-.2.2.1 1.8h.3l-1.2 2.2 1.2-1.8.3-.9.6.2-.3-.3-.2-1 .6-.3.7-.8.7-.3 1.2-2 1-.3.4.3.5-.5.4.1 1.3.9v.3h1l-.2-.8 1 .5v-1.6l1.5.8.8-.5v-.2l.2-1 .7.1.2-.4v-.1l1.3 1 .2-.3.3.2.3.5v-.3l.1-.7.3-.2.3-.2.3-.2.2-1.4h.7l.2-.8.6 2.8 1.9-.8.4.4v.1h.1l.4-.4.3.4.8 1.2v-.8l.4-.4.7.1.5.2h.2l2.3-.7.8.7v-.3l1.6-1.6.6-.5.2-.1 1.8-.7v-.2l.5-.8 1 .4 1.1-.2 2.7-.4v.1l-.6 1 1 .8.5-.2v.4l.6-.8 1.3-.5h.2l3.2 1.2.3.1.6-.6.2-1.2-1.2-.8-1-.6-.3-.3.3-1.5zm-112.6 11.6l.3-.1 1.7 1V203.4l.3.3.4.6.7.4.2.2-.2.7-.3 1 1.1 1.2v1l-.9.6-1 3 1.2 1.5 1 .4-1.3.2-.1.1h-.1l-.6.7-.8.9v.1l-.5.7.3.1v.4l-.1.3-1.3.1-.3.5V219.7h-1.4l-.4.6.4 1.3-1 .5v.2l-.7-.2v.8l-.6.1.7.6 1-.4-.1-.4.8.6.5.7.6.1.2.2.4-.4 1.8-1.1 1-1.5 1.1-.3.5-.8.1-.1.9.3-1.2 2.3.5.5-.5.2.1.2-.1.3-1.7 1v.7l-1.4.6-.6-.3-1.1-1.5h-.8l-.3.2-.4.3v.3l-.1-.1-.4.4h-.3l-.5-.9h-.8l-.2-.1-.2-.6v.4l-.2.5.4.8.5-.1-.6.8.8 2-1.6.8-.6-.4v.6l2-.3h.1v.8l-1.2-.2-.6.3-.2.1-2.6-.9.8 1 1.5.2-1.1 1.5-6.6 1.6 1.8-.4.6.5v-.5l1.5.1.7-.5 1.4.3v-.4l1.3.3.3.1.3-.5-.4-.3.7-.4.6-.3.1.2v.3l.2.3-.4-.3v.3l.2.1.6.4H384.6v.6l.8-.5v.3l-.1.6.4.2v.2l-.4.4.4.7v.5l-.2.2H383l.6.2.6.1 1.9.4v.4l-.2 1.2-1 .7v.6l-.5-.3-.2-.2-1.2-.7-.4.8-.4-1 .1.6-.4-.5-.1.7-1.1-.6.4.6-.9.1-.6-.6v.8H378h.5-.8l3.8.3.6.3.4.4.2 1.9-.7.3-.1 1.5h-1.2l-.7 1-1.2-2.3v.4l.3 1.9v.6h-.9l-.3-.4-.1.6-.9-.5h.1l-.2-.2-.5-1.8-1.1-.8 1.4 3.2h-.7l-.4-.7-.2.3h-.3v.4l-.1-.1-2.3-3.5-.2-3.2 1.9-2.4v-.8l1.3-.1.4.6 1.3-.5-4-.3.8.3v.6l-2.1 2.4-1.2.7v.6l.6.3.7 2.2-.1.6h-.8 1.5l.1.2 1.2 2.4-1.6.1.9.6.5.4.3.2.2 1.3-1.3.1-1-.2-.8-.2-1.1-1-1.3.1.6 1v.2l-.4-.2-.5.2.4 1.1h1.1l.8 1.8h.2l.5 1v.2l-.5.3-.2-.6-.1.3-.1-.2v.5l-.2-.4v-.4.1l-.3.4-1-.6.3 2.2-.6-.8-.1.2-1-.7-.4-.9-.1.5-.5-.5.2.3-.3-.2 1.1 1.4-.2.3-.3.5-.2-.8-.2.5-.2-.4.2 1h-.5v.1l-.5-.2v.4l.2.7.2.8h-.7l-1.3-.5.7.3-.4.1h-.2v.1l.9.8-1.5.4-.3 1.4-1.4-.3.6 1.1-1.5-1.8h-.2l-.5-.7v-.1l-.1-.3.3-.1-.6-.5v.5l-.2-.1-1.6-2.2-.2-.5-1.4-.7-.4-1-.2-.5 1.1-.3.9.6v.2l.1 1v-.1l.2.7.8-.8 2.2-2 .2-1.6.4.4.8-.4.4.3.5-.5.7.5.6-.3-2.1-1.3.1-.4.3-1h.1l.4.1.7-.5 1.7.8h1l.2-.4 1.1.4v-.1h.1-.2l-.3-.3-1.5-1.2v-.2l.9-.2-.3-.5-.1.1-.3.2-2.1-.5.4-.9v.1-.2l-.7.7-.9-.7h-1l-1.2-1.1-.3.1.5.7-1 .2-.2-.1-.7-.4h-.1l-.1-.1-.2-.1-.1-.4v-.3l-.7.2h-.2l-.4-2-.5.6-.4-.1.8-.8v-.2h.1v-.5l.3-.8 1 .8v-.1h.2l.8-1.4.4-.3 4.4-1.3-2.8.2-2.1 1h-.2l-.8-.4v-.5l1.5-.5-1.4-.1v-.5l1.2-.6h.2l-.1-.3-.2-.5h-.1l-.2.2-1.2.8v.4l-.7-.2h-.1l.2-.1.2-.1-.5-.1-.4-.1-.4-3-.1-.3-.6-.4-.3-.2.2-1v-.1h.5l.4-.5-.3-.5H357.2l.2-.6h.1l.1-.4-.5-1.4.2-.1h.6v.1l1 .3.1-.4.4 1 .3-1h.7l-.5-1.2-.4 1-.7-.5-.2-.1.5-1-.3-.2.3-1 .1-.5 1-.9-.1.9h1.3l.6.9.1-.1.2.1.4-1h.2l.5 1h.2v.2l1 .3v.7h-1.3v.4l-.7-.4 1.1 1.3h1.6v2l1.1 3.2-.7-4v-.2h.5l-.2-1 .5.3h.1v-.4l.2-.6.3-.2.2.1.5-.5h.4v.2l1.1.4.3.4h.6l.3.3.4-.4.6 1.9v-.7l.7.4-.3-1h.7l-.1-.1-1-1-.2.2h-.5l-.2-.1v-.9l.8.3-.1-.6-.5-.2h-.2l-.6-1.3-.1-.4v.2h-.5l-.5-.7.4-.3-.7-.3-.1-.3-.3-1 1-.5.6-.2H368l.8-.9.3-.3-.3-.6 1.7-.1h.1l.4-.6h.4l-.2-.2.3-.4 1.2-1.1.6.4 1.4-1.7.5.9.5-.4.3.1 1.3-1.1.2-.2h1.3l1.1-2.5h.8l2.4-2.7 2.5-1.5.7-.4.8-1.4h.6l.7-.2 1.1-1.3v-.7h-.3V201.6h.2zm-3 59.5l.8.6.4-.2.9-.4v.1l-.1 1 1.8 1.2.1.2.7 2.6 1.7.3 1.6 3.4h.5l-.5 1.5.1.3.3 1.1-.3 3.4.4 1.9-.2 2.2-.1 1-1.1 1.2h-.3l-.2-.1-.2.2h-.3v.2l-.1 1.4.5-1 .2.1v-.4l.3.4h.2l1.2-.2.5 1v.5l-.2.1-.6.9 1.2 2 .5.3v-.2h.2V288l-.3.2v1.2l-1 .1-1.4 1.5.7-.4-.1.2 1.2-1h2.5l.6 1.4-.2.2-1.2 1 .1.3-.3.3.5.1 2-1.5.4.6.4.5.2.1.4.2 1.8.7v-.2l.5-.1.8.7-.4.8 1.1.3 1.3-1.2.3.2-.7.7 2-1 2.3-1.4 1.5.2h.1l-.8.8H411l2.3-.2.3.2.3.4-.4 1-.3.5v1.9l-1.4 1.3-2.7 1.6-.3.1-.2-.1-.6-.4-.3-.2.3.7v1l-.2.5.6.4-.3.2h-.3l.2.2-.1 1-1 1-1-.3-.2.7-.7 1.3-.4.2v.5l-.3.4.1.4h-.3l-.6 1-.7.6-.8.4v.1l-.2.4-.5-.3-.4.3-.7.5-.3-.3-.3.4v-.8l-.4-.3-.4-1.4v-.2l.5-1 1-.2-.4-1.2.3-1 .6-.2-.8-.6.3-.6 1-.5.1-.6.2-.2 1-.3.8-1.1 1.8-.7h.3l.3-.4.4-.4.4-.5-1 .6-1 .2-.4-.1-.1.5h-.7l-.6-.3-1.5.4-.7.2-.5-2.3-1.1-1.6-.2-.4v1l.1.2v.4l.2 1.5-.3.2-.5.1v.4l-1 2.6-.3.9-1.2-.8.5-2.3-.4-.8v-.4l-.3-.2-.2-.4-.3.7-1-.7-.3-.3v.1h-.1v.5l-.1 1-.1.2-1.4-.3-3.6 1-.8.3.7-1 .7-1v-1l-.3-.3-.5.5-.2.2-.3.2-.6.5h-.4l-.3-.2-.3-.4-.5-.7-.4-1.3v-.2l1.2-.2v-.1h.1-.1l.2-1.2-.6.8-1.4.2h-.3l-1.8-2.2-.3-1.7-.5-.3-.4-.1v-1.4l.2-.1 1.7-1 .3.2-.2-1.2 4 3-1.3-1.8-1.6-1.2.3-.3h-.3v-.9l-.4.6h-1.3l-.4.7.1-1.5-.7-.3-.3-.2.2-.3.3-.5-.7-.2v-.2l.1-1-.2-.3v-.2h-.2v.4l-1.2 2 .3-1.6-.9-1.5.2 1-.3.5v-.3l-.4.8-.8-.2.1 1.5.3 2.1-.8.4-1.6-1.3h-.2l-1-.5-.4.1h-.4l-.4-.5-.6-.6h-.7l-.8-1.3.4-.4-.6-1.6-.9-.8-.8.5v-.7l.3-2 1.6.5.7.2-.8-1.1-.3-1.4v-1.2l1.3-1 2 3.3v.7h.3l.5.9.2.3.8.8.2-.7.4-.4.3.3.4 1.5.1-.7h.4l-.9-1.5v-.2l-.3-.4h-.4v.2h-.3v-.1l.3-.6-1-2.6.8.1.8-.6 1.2 1.2.3-1-2.7-2.8-.5-.5-.5.5v-.3l.5-.8.1-1 .2-.6V268.3l2 1.5.7 3 .6.2.3-.3 1.5 1 1.6 2.5-.1.2.1-.2 1.4-1.3-.8 2.3.3.6.7-1.8v-.2l.8-.2V274l1 1.9 1 .4.2.9.4-.4.9 2.6-.6-2 .2-.4.6.3-2.3-2.3-.4-1 .3-.2-.9-1.3-.2-.5v-1l.5.5 1-1.9-1.5.3v-2l-1.2-2.1.5-.5.3-.1-.1-.8h1l.8-.5.3-.2.5-1-.2-.6-.2-.8zm196-222V39h.1l.7-1.2.2 3.4-.6 1h-.6l.8.9v2.4l-1 .3-.5-.4-.6 1.2 1.7.1-1.5.7 1-.2.5.7-.8.6h.4l-.1 1.1-.8.8h1l.2-1.3h.7l-.1 1-.8.3.5 2.2h-.8l-1 1.7.4 1.3h-.6l-.5 1.2.3.3 1.9-1.3-.8-.2.7-1.9 1.3-.5.6.6.2-1.6-1.1-1 1.2-1.3.5.7 1.2-1.5 1 1.4-.2 1.7.8-.6.5.8-1 .7h.8l.4.2-.7.7-.2.1v.1l-2.5 2.2.7-.4-.7.8 2.5-1.7.1.5-1.3.9.4-.2-.2.2 2-1 .2 3 .5-2.1 1.1-.1-.6-.6.7-1.3.2 1H591.1l.3-.2.1-.7.7-1 1-.7.1.2-.1.8-1.4 2.1-1.3.6-.8 1.5H590.4v1l.8-1.9 1.2.5V60l-1.6.9-3-.6.3.2.4.3.3 1.9.5-1.2.8 1.3h.1l.4-.5.4.2.1.2H592l-.2.5v.4l.1.2.2.5h-1.2L589 66h.7l-.5.6h.3l-.1.6.2-.7.8.2.3-.3h.1v.6h.2v.1l.5-.3v.1l-.1.5-1.7.2-1 1.7-.4-1.1.5-.6-1-.1-.3-.7v.6-.5l.2 1.8-1.5 1.2h.3l1.5-.1-1.4 2.6 2.1-1.9-.5.8.4.3-.6.4-.3.4-1 2h.1v.2l2.5-2.6-.2 1v.2h.5l-.8 1.5.1.1v.2l1.2 1.3-.2.4-.9-.4v.6l.2 1-.6-1-.2 1.7-1-.9v2l-1 .4.8.8-.4 1.3.7 1.3-.2.7.7.3.6.3-.1.4h-1.3v-.8l-.2.3-.1.6h-.7l.3 2 1 1.4-.4.1v.3l.1.4v.5l-.5-1.6-.6 1-.7-1.2-.1.3-.2.3-.6-.1.3 1 .5.1-.2.6-.1.3.2.5v.4l-.3.2.3 1.2-.5.2v1l-.6-.1h-.2l.2.2.7.8-.1 1.5-1 .4h.4l.1.9.6-.2-.2 1.7-.6-1-.3-.7-.7 1.5V99l.3-1.7-.5-1.3h-1l-.2 1.1-.3-.7-1 .2-.3-1.8 1-.5v-1.6h.1v-.4h1.3V90.4h-1.2l.2-1 1 .8-.7-2.2 1-.7.1-.3.2-.5 1.2-4.6.5-1.6v-2.3l.2-.7v-.5l-.2.7h-1.4l.4-.7.2-.3.3-3.8-.3-.3-.1.4h-.1l-.8 2.4v-.1l.3-1.6.5-1.6.2.2.4-.6.5-2-1 2.3-.2-.4-1 3.4 1-5.8.3-.9-2.2 4v-1.1h-.3l-.3-.8-.2-1 .6.1-.1-.5-1.2-.5-.3.5-.7-.8h-.7l1.6 1.5h.5l.2 1 .4 2.2-.5.4.2-1.6-1 .8-.2-1.3-.1 3-.8 1-.7-.5.1-1.2v.1-.2l-.2.4-.4.6v.9l-.4 1.4-.3-1-.8-.3-.8-.1v-1.5l-.8.4-.6-.6.2-1.4h2.2l-.7-.4 1.3-1-1.3.5h-.1v-1l.6-.2-1-.1.1-.7-.8-.5.2 1 .6.4-1.7 2.4v-.1l.3-1.6-.5-.7v.1l-.3.4-.2.3h-1.4l.5.7-1 .3-.6-.7-.5-.4.5-.5.1-.2h-.1l-.6.2-1.4-.6-.3-1 .5-.5h-.3l-.4-.1 1-1.7h-.1v-.1l-.6-.5v-.2l.3-1 1.9-.3 1.3-.3 1.3 1.5-.2-1.1.3.5 1.2.2h.1l-.5-.9v-.1l1.7-1.1.9 2.6.3-.1-.2 1 .8-1.1h-.7l-.4-1.4 1.7.8-.8-.7.7-.2h.4l-1-.4 1.1-1 .3-.2.1.4.2.7.3-.5 1 .6.4 2.3.1-.4.1.3v-.8l.2-.3 1-.1-.5-.2.3-.1h-.8l-.4-1.4.8-1.8.6.9.4-.3-.4-1.8h1.5l1 .4.6.3-.6-.6-1-.9H581l.8-1-.4-1v.1l-.4.6-.6.8-1-.6-.2-1h.9l-1.2-.6.4-.8.6.5-.2-.5-.1-.3-2.1.2.1-2.3.7-.3.4-.2h-1.7v-1l1.3-.6-1.2.2.3-1.7-.8.8-.5.4.3.4v.1l-.6 1.2-.7-1 .8-.8-.1-.6-1.6.4-.7-.9-.6 1.1-.5-.4-1.1.6-.5-.6-.3-.5.5-.2.2-1 .1-.5.9.4.2-.2.8.2-.6-.4.5-.5v-1.8l1.2-1.4.6 2 2.7 2 2.1-.6-2.3.2-1.2-1.5-.3-1 .5-.9 1.8-1.6v-.2l-.4-1 1-1v-.2h-.6l.6-.7h-.1v-.2l1.8.7.6-.2h.4l.6.7-.2-.2.3.2-.7-1.5.2-.6v-.1zM393.7 337.7l1-.6.2.1.3-.4.3.5.2.4 2 .6v.1l-.3.9h.1l.4.3 1 .5.8 1.5.9.6v1l.8 1.6.2.4-.5.4 1 1 .2-.3h.5l.5.4.6-.1 1.6-.3.7.5.5.5.3.1v-.7l1 .1 1 1.5.2.3 1 .6 1-.3.2.8.8.6.4.5-.1.5.9.2.2-.6.1.1v2.2l-.6-.3-.5-.6.4.8.2.6h.5l-.6 2-.3.2-.1.2-1.2-.3-.1-.1-.3-.4.4-1.4-1 .2-.5-.1.6 1.2-.9.1-.1 1-1.4 1h.2-.1.3l1-.3.7-.5 1-.4h.8l-.4 1.2-.8.9-4 2.9-.3.1-.3-.1-1.6-.6h-.2l.2-.3 1.4-1.4-.2-.6-1-.2-.3.3-.6.4-1.3 1.8-2-.1-1 .8-1.3 1.3h-.1l-1.2-.6-1.9.3-.6.9-1.1-.2-1.3-.3-.6.4-.3.2h-.1l-.1-.1-.5-.2-.4.6-.4 1-.1-.3v-.4h-.3l-1 .1-.9.2v-.9h-1l.1-1v-.6l-.7.1v-.5l-.5.2.2-.6.6-1.8.2-.3 2.3.2.3.8v-.3h.5l.2.9h-1.2l2.4.6-.5-2 1.6.6.7.2.6-.1-.4-.3.3-.2 1.4.3.4-.7h.3l.8.3 1.3-1 2-.6.6-1-.4-.6h.6l-.4-.2.2-.2h-.7l-1.4 1.2-.3-.3-.3-.2-.3.7-.3.2-1.6.2h-.6l-1 .7h-1l-.5-1v-.5l.2-.6 2-1.8.8-2.3.3-.2 2.7-.2 2.3-2.2-.1-.2-.2-.3-.4-.7-.9.8-.5.2-3 1h-.1l-.3-.7h-.5v-.1l.3-.6-.3-.6-3.1-2-2.3.4-.1-.1-2-1 .2-1 1.2-.5 1-1.3h-1.4l-.3-2 2 .2.2-.2.5-.6.6.6 2 1.6-.6-.6.5.4-1.3-1.3h.5l-.6-.7v-1.4l1.3.7-.6-.8.2.1h.1l.1.1v-.7h1.3zm-.3 50.5l.3-.5h.1l1.5-.3-.3 3.1v.2l.6 1.5.5 1.7v2.1l.3.7.5 1.4 1.2 1.1.2.2-.2 1.3v.2l1 1.3-.5 1 .1 1.2.5-.3-.3.9h.4l-1.1.8-.3.9-.6-.3v1.4l-.5-.4-1.8 1.2-.7.4-.6-.4-.8.6-.3-.7-1 .2.3.7-1 1.6-.9.5-.3.7-2.8-.7.5-1.4-.3-.7 1.1-1.8 1.3-.3.2-.1v-.1l.3-.3-.2-.6-.3-.9-.6-1.6-1-1.2-1 .2.3-1.8 2-1.1.7-.4.5-.7-.3-.7h-1.4l-1.4-.1-.4.1h-.3v.2h-.1l-1 2.5-.3 1-.2.2-1.8 2.3-.9.7-1 .8h-.6l-.3-.2-.8-1.2.2-.2.9-.7v-.3l.2-.2h-.1l-.4-.4.3-1.1 1.3-1 .1-.1v-.1h-.2l-.1-.2.2-.7.3-1.2-.4-.2-.7-.5.6-.6.5-.5V394.4l.2-.4h-.2v-.7l1-.6.5.4.1.2 1-.4.1-.2 1.1-1h.1l1.2-1.2.2.4-.6 1.3-.4 2.3.5.8h.5l-.2-.9.8-2.1-.4-.5 1.4-.2 1.5-1.6 1-1 .4-.5.4-.4zm112.5-234l3.6-1 .8 1 3.2 1.8.8-.4.2.7.8.6h.1l-.6.6v.2l.5.4 1.7 1.3v.8l-.3 1.8-1-.7h-1.1l.4.6-.1 1.1v.2h-.8l-.5.5h-.1v.3l-.3.2h-.8.1l.4.4.2.1h.2v.1l.5.2.6.2.7.2.3-.7.2-.3v-.1h1.4l1.8 1.8.3-.8.8-1.5.1.7 1-.3v.1l-.5 1.2.6.2-.8.6v1.3l1.3.4.4-.7.8-1.3.8.3.4.1 1-.7.3 1.6v.3l-1-.1-1.2.6.8 1.6V170.6h-.6l.8.4.2-.6h.7l-.2.4.7.5.3-.7v-.2h-.5l.3-1-.7-.4 3.3-1.8.4-.2v2.1l-.4.6.3 1v.2l-1.4-.2-.6.8-.9-.1v.2l-1.7 2.8-.6-.7-.4-.6-1.1-.6-.6.4.3.2.3.2-.3.4-.3.4-.6.7 1-.3v1.4l1.2.2-.4.2-1.5.7 1 1.6h-.6l-1.4 1.9.4.8-.5.8-.2.4 1.2 1-.6 1.1.3.3-1.8.5-.1-1v.1h-.1l-.4.2-.6-1.2.5-.5v-1.9h-.6l-1-1.6.4-.4.4 1 .4-.6.2-.3-.7-1.2-.7.6h-.6l.9-1 .3.1.6.3 1-.7.3.8 1.5-1h.5v-.2l.1-.1h-.1v-.1l-.8.2h-.2l-1.3-.6 1-.8 1 .4-.3-1.3-.1-.4.7-.2.1-.3.3-.5h-.1v-.3h-.3l-.2-.1v.1h-.3v.4l-.5-.2v-.8l-1-1.5-.6-2v-.9l-.4-.1-1.7 1.5-2 .2-.5-.2.4.9h-1.3l-.5.8-.2.2-1-.2-1 .6-.2-.5-.4.4-1.2-1.6v-2.4l-.9-.7v-.2l.1-.3h-.3l-.3 1.5h-1l-.2.8-.3.1-1-.4-1-.6-.4-3 .3-.5-.4-.4.7-1.7-.3-.7.9-.6-.5-.4-.1-.1v-2.8l-.3-.4 1.4-1.5V155l-.2-.4.4.1zm-77.8 248.3h1l1.8 1 .4.2.2.2 1.6 2 .3.8.6 2.4v.7l.1.4-1 1.2.1.1-.3.4.4.1.6.3 1 .4.5.6.5.7-1.3.9-.5.8 2 1.3-.6 1.2v.2l.6 1.7v.2l-1 1.2-.3.3-1-.3-.7.2h-.1l-.2.1-1.5.4-2-.4-.3-.2-.1-.2-1.5-1-.3-.2-.7-2.4-1.1-.6v-.4l.3-1.7.4-.9-.4-1.3-1.5-2.6-.4-.7v-.2l1.2-4 1-.6.4-.2.5-1.2 1.3.2-.4-.6.3-.4zm-17.7-29.4l.6.2v-.6l.7-.1.4.8.2.6-.2.5.2.7-2.6 5-.4.9-.5.8-.6.2-1 2.8-.7.1-.2 1.3-.1.8-1.2 2.5.1 1-.5.8.2-.8h-.7l-.1 1.4v.2l-.6-.3h-.2l-.3.2-.3.1-.5 2.3.1.3.3.3-.5 1.1-.4 1.2-2.9-.2-1.3-1-.4-.9-.3-1.9-.2-2.3.2-.8.8-1.5 1.4-1.9.5-.2.2-.1 1-.2.4.1.4-.2 2-.3 1.2-.8v.2l1.1-1.2-1 .9-.2-.6-1 .4-.6.8-1-.3-1.5-.7-.5.2 1.9-4.1 2.5-2.5 1.4-.7 1.4-.9.7-1.4h.8l1-.9.1-.1.4-.4.1-.4zm-62.5-108.4h1l-.1.5 1-.1v.8l.4-.4-.3-.4.7.4.6-.4-.4-.2h.8l-1.3-.7 1-.4.6-.3.5-1h.2l.4.4.5-1v.5l.6.3.4.3h-.5l1 .4v.5l-.4.4-.3-.4.3.9h-1l.5.2-.2.2h2l-.2.9.3-.2.5-.3-.4-.3h1.1-.2.2l-.8-.7.2-.2.3.2.4.3.2.6h.5l.6.4-1.4 2.5-1.3-1.4.8-.4-1.2.3v.4l-.3-.3-.6-.5.6.6-.3.4-1.5-1.3 1.1.3-.2-.5.2.2h.2v-.4l-2 .2h.1l-.2.1 1 .5h.2l-.5.9.7.2.3.1.9.2-.2.3-1-.2 1 .2-.2.5.3.3v.1l-1.1.3 1-.2-.2.6h.4l.4-.1 1.5-.4-.3 1-.3 1-1 .7-1-.4-.6-.2.2.5-.9-.3-2.2.6-.4-.5.8.1-.2-.8v.5h-1.4l.7.6-1 .1 5.2.5.2-.6 1 .2-.3 1h.1l-.3 1.7-.9.1.8.3-1 .1-2-.7 1.2.8-1.6-.5.6.5h-1.1l-.9-.6-.1-.1.6.9-.1.1h1.5l.1.3.7 1.9-1-.4v-.4l-.6.4-.7-.3-.3-.8-.1.5-.8-.3-.5-1h1.1-1l.5-.5-1.4.2v-.7l-.1-.5h.4l-1-1.2.6 1-.5.8-.2.3-.5.8-.5-1-1-1.7V272l-.5.7-1-1.4.8-.3 1.2 1.2 1.8.2-1.8-.3-1.2-1.1-.1-.7-1-.4.6.7-.6.6-1.5.2-.5-1 .2-.3-.4.1h-.3l-1-.8v-.3h-.3l-.2-.3.2-.3.2-.2v.1l.2.5.4-.2.1-.5.1-.6-.4-.2 1-.3v-.2l.2-1.1.4-.4-.1-.2-.1-.2.2-.5 1 .3.4-.4.6.7h.1l.8.8v.4l1 .5.6-1.4-.2-.6.3-.2 1.1-.6-.3-.8 1.2-1 .2.3v.3l-.5.5.1.3zm-2.3 18.8l.5.5 1.7-.7.5.5.4.5.8.1.7.4.5.4v.2l-1.3.1 2.2 1.3.1.1v.2h-1.3l.2.4.3.1.1.1.8-.3.2.3v-.3l.5-.2v.1l-.2.4-.2.4-1.3.2.1.3-1.3-.6.2.2.7.8h1.8l.2 1.6.8-.3.3.3v.1l-.4 1.4-1-.1-1 1.6.3.5.2.3-.6.4-.4 1.4-1.5-.2.3-.4.4.3-.3-.4-.3-.3-.7.5-1-.4v.5l-.6-.9.5 1 1.1.3.3-.3.4.6.1.3 1.3.3.2.3-.1.7-.1.3.1.1.7 1.4v.6l-.1.2-.8.8-1-.5-.2-.1-.8-.4.3.4.5.7h-.2l-.7-.3-.2-.4.1.4-.4-.2-.3.2h-.3.2l-.3.2.6.3-.3.2.5.5 1.4-.3h1l.6.2.4.1.1 1.3.1-.2v.1l.4-.4.8.6-.8.9h-.1l.2.6h-.1l-1.9-.9H350l-.5-.2-.6.6h-2.3l-.7-.8v-.9l-.4-.3-.1-.4-.1-.3-.2-.7v-.3l.2-.4-.3-.9-.3-3.3-.5-1.3-.9-.3.8-.2.2-.3.3-.2.2-2.8 1-.9-.2-.6v-2.8l-1.2-2.8zM593.5 31h.1v-.7l1.3.7.4.2-.3 1h.1v.2l.7.4-.8-.1.1.7.4 1.8v1.5l-.2.2.1.1v.4l.5.4-.5.3-1.4-.7-1.3-2 1.8 4-1 1.4-1-.8-.5.3 2 .7.1.8.5-.3v.7l.5.2v1.1l-.8.4.4 1-1.3-.1.2 1.3h.1v.2l.6-.1h.1l-.6 2.4v.1l-.2.8-.4-.1.5-.6-1 .7h-.1l-.8-.7-.2-.1-1-.7v1l.1.2.2.1.5.5-.5.3-1.1-.5-.3.4-.8-1.2v-.1l-.3-1.8h-.5l.5-.3-.5-1.5.3-2-.4.7-.4-.4.6-1.3-.7-1.8.6-2.3h.2l1-1.8.2 3 .6-.2 1 1.4-1-1.4-.3-.4.6-4.2.2-1 .2-2-.3-.7 1.6-.2v.1l.5 1.7-.2-1.6.1-.4zm-86.4 150l.9.3.5-.2.5-1 1.8-.1.5-.4h.2l.3.4-.6 1h.8l-2.1.8-1.5-.6h-.2v.1l-.2.1.6.5-.4.3-.7-.8-1.9.3-1-1.4-.2-1.6-1.6-1.5-.4-2.3h-.4l-1.3-.2h-.4v-.1l.4-1.5.5-1.4.3-.9h1l.8-.6.2-.1 1 .3v.7l.3.1.2.5-.1.3h.4l2.8 1.6.3.3.5.3-.2.3-.5.3h.3l.2.3-.1.4.9.6-.7.9 1 .4-.6.6 1.4.5-1.3 1.2-1.1.3h-.6v.1h-.1zm-70.4 213l.4.2 1.1-.3.1 2.4.3.9.5 1.7v.1l-1.2.9 1 1.7.1.1-1 .6-.5-.4-.4-.4-.3-1.7-1.3-1.3h-.1l-1 .3v-1.4l-.2-1.1-.4.5-.2-.8.5-2.2-1.5-.5-2-3.3v-.1l.7-1 .5-.6v-.2l1 .3 2 2.1 1.3.8-.2 1-.3.2 1.2.3zM599.2 21.6l.9-.4v.1l.1 1.3-.3 1.8h.5l.9-2 .4-1 .3 1 1.1-.4v.5h.8l-.1.7.9.3-1.8.5v.1l1 1v1.3l-2.2-.5 1.3 2.3-1.6-.2-.9.3.3.2 1.8.4-2.3 3.8 1.1.9.3-.5v1l-.2.3-.2.2-.4.3h-.2l-.5-.3-1.2-.7-.1-.1v-.2H598.5l-.6 1h-.1l-.3.3-.9-.1-.1-.2v-.5h-.6l.6-1-.7-1.8h.8l.4.2-.2-.7-.1-.5-.2-.4 1-1.1-.3-.9.6-1.6-.9-.8 1.2-1.4-.5-.3.8-.2h.2l.5-1 .2-.2v-.1l-.2-.4v-.3zM383.8 310.3l2-1.8.6.3.9-.8 1.6 1.3.2.1.5.2.5.4.4.8-.2.1-1 .5 1.4.5h.1l-.5 2-.3 1.2-.7.5-1.4 1.3-1.9-1-.3-.2v-.3l-.2-1.2h-.2l-2.5-2-.6-.5h.5l.2-.3zM348 276.7l.2.1.8 1 2-.1-.4 1 .2-.3v.2h.1l.4-.7.4.2v.7l.2-.6.2.1.3.2.5.8v.1l-1-.4-.3.7.5.3.4.1H351.7l-.3-.5v1l-.6-.8v.8h-.4l-.3.1 1.3.6v-.2l.6.2-.5-.4v-.2l1.2.1.6.8v.1l-.8-.1.6.7-1.2.2h1.5l-1.7.2.1.2.2.2v.1l.2.3h-.1l-1.4-.6-1.8-.7 1.8.8.2.5v.2l-1-.4.2.2h-.3l-.6.2-1-1-.5-.5-2.3-.6.3-.1v-.7l-.1-.4-.6-.5.4-.7-.4-.3v-.6l1.3-.3.5-1.2 1-.3h.2l.1.1zm22.6 67.2l.5.9h.4l.2.2v1l-1.3.2v.6h-.2v.2l-.1-.4-.3-.5h-.3l-.8.3v.1h-.1l-.1.4.5.6-.6 1.3-2.5-.1-.9 1.1.1.5v1.4l-.2.2h-1.3v-.1l-.3-.8h-.2v-.2l-1.2.4v-.3l.1-2.2-.4-1.1h-.5.1l.4-.2 1.2-1.4.1-.2 1.1.2.3-.2h.2l.2.4.5-.2.5.4h.1v.1h.1l.1-.1 2-1.5h.1l.8.5v-.1h.1l.2-.3.4.2 1-1.3zm11-6.7l-1 2-.3.4-.7-.5v1.5l-.3-.5-1.2 1.5-.2.2h-1.4l-.3.8-.6-1-.5 1.2-.4-.7h-1.1l-.2 1.2-.6.3-.5-1.2.5-.5v.1l.8-1.1.1.4.7-.1.3-.6.5-1.1.7-.3.3-1.2 1-.6.5-.2v-.4l.8-.3.6-.8.6-.5 1-.4v-.4l1.7.1-.1 1.2zm19.3-60.6l-1.1 3.2-1 1.2v.3l.3 1.4.2 1.6.2.2.8 1v1.2l-1 1.6-1.2.4-.7-.5v-.8l-.3-.2v-.1h-.5l.5-2.1v-.1l-.2-3.7v-.4l.8-1.5.2-.3 1.4.5.3-.8-.7-.3.4-.2-.4-.3v-1.1h.3v.9l1-1h.2v-.9l.5.8zm-57.4 34l1.3.7.7.6v.1l-1.2-.6.4.4.4.3h-.9l.8.5.4-.3.2.2.6.6v.6l-.9-.2v-.1l-.3-.7-.4.2.6.7v.2l-.6.2-.1.2-.1.8H343.9v.1h-.1l.2.3v.4l-.4.3-.5.1h-.8v-.6h-.2l-.1-.1-.4.3-.1-.5v.1l-.3.7h-.3l-1.6-.6h-.1l.3-.9v-.3l1.4-.1.2-.5-.4-.6.6.1-.3-.8.6-.4-1-.6h1.6l.9-.6.2-.2.4-1.3-.2-.7-.2-.5h.5v.7l1 .5-.3.7zM540 143.1h.2v.2h.1l.7.5-1.3.2-.3-.4-.1-.1v-.1l-1.8.5-1.2 2.4-.2.3.3 1.4-.6-1 .3-.7h-.5l.2.5-.2-.2v.3h-1.4l-.1.9-.1.3-.4-.3.1-.9h.7l-.4-.6-1.3 1.2v-.5l-1-.1v.2h-.3l-.8 1.9-.4.1-.3 1.3-.5-1v1.5l-.1-.1-.4-1.2v-.4l.2-1h.7l.1-.3h.1l1.3-1.7 1.4-1v-.2l-.2-.4h.6v-.1l-.3-.3-.5-.8v-.9l.1.2.1.2h.1l1.2-.3.3-.4.4-.5 1 .2-1 1.2.2.9-.7-.2-.5 1 1 .4.1-.7.4.3.3-.3.1.1.6-.6 1.3-1 1.4-.1v-1l1.2-.7zM393 374.7l1.4-1 .5.7v.1l-1 2.4-.3.6-.7.7-.4.5v.1l.6.6v.1l-.2.5-1.4 1 .7.5-.3.3h-.1v-.3l-.7.2v.6l-.9.7v-1h-.8v-.1l.5-.1-.1-.1h.2l-.8-.2 2-.5h-1.4l1.2-.3h-.8v-.6l-.3.1-.8.2.5-.4.5-.5.1-1h-.3l.7-.6h-.4l.3-1 1.4-1.3h1.1v-.9zM518.5 139l.5.2.1.5v.3l-1.2.2-.1.6h.6l.5.5v.1l.1.1.6-.2v.6h.4l.3-.1.3.5.5-.5.2 1 .6.4v1.5l1-.2.2.3.4 1 .1.4-.8-.4-.4.6-.6 1v.1l.2-1 .2-1h-.6l-.9-1.6-.6-.4-.1-.2h-.2l-.8-.4-.4.2.7 1.1-1 .4-.3.6-1.7-1.4.1-2-.2-.3-1-1.2-.6-.5.5.2.9.3.4-.4h.4l.3.1h.1l1-.6V138l.9-.4.2.2.2.5-.4.3zm-3.2 11v1l.6.4h1.7l1-.7.5.6-.3.4-.7.9.6 2-1.3.7h-1.7l-.3-.2-.5-.2-.6-.5-1.6-2.6 1.7-2 .9.2zm84-110.9l1.5-.9 1 .3.9 2.3h.5l.7-1.1h.2l.1.1V41l-.6 1.4-.5 1-1.1-1.7-.4.3-.3.1-.4-.8h-.1l-1.3.1v.5l.5.6.7.8-.6.3-.4.2-.7-1.2-1.4-2.3-.2-.4v-.3l.4-1.2h1.1l.2.3.1.3.1.2zM530 153.4h.8l.8-.7.6.6-.7-.2.4 1h1.9l-.8.3-.3.1-.2 1 .3.2v.2h.1v.1l.1.1.1.2h.2l.4-.2 1.3-.3v.3l-.3.5v.6l.1.1v.2l.8.4-.4 1.3-.3-.2-.8-.4-.3.6h-.5l-.2.2h-.5v-1.8l-1-.8h-.1l-.5.3-.4.2.5 1-.3.9h-.5l-1-.3.5-1.4.3-.7 1.2-.2h.4l.3-.6-.1-.2v-.2l-.7-.8zM395.8 317.9l-.5 2.3h-.1l-.5 1.2h-1l-1.8-1.2.1-1.3.9-.5h1.1l-.2-1.5.4-.5h.6l.8 1 .2.3zM524.6 160l-.5 1.3.7 1.4-.8.7-.7-.3-.5-.5-1-.1-.8-.4-.2.4-.1.1h-.9l.2-.6 1-3 .4 1 .1.1v.1l.9.2h.1l.3.1.2-.1h.3v-.3l.2-.2V159l.9-.2.2-.5h.1l.3.2v.2zM592 73.3l.3 1.8-.1.2h.1v.4l.3-.3h.3l.3-.6.2.2-.5 2-.3 1.4-.4 1.5-1.8-1.2.2-1.7v-.3l.1-.3v-.7l-.2.4-.2-.4-.8-1.6V74h1l1.6.8-.4-1v-.2l.3-.2zm-64.6 75l-.4.8h-.4v.7l-.1.4-.3.1.4 2.5.4.6.1.4-.7.3h-.4l-.4.3h-.2l-.4-1.8-.2-.1-.8-.8v-1.3l.8.6 1-.5v-.1l-.2-1-.3-2.4.7-.6.5-.5v.8l-.1.6 1.1.7zM403 292l-2 .5v-.1l-.7-.8-1-1.4.3-1 .6-.4h.5l.6.2.5.1 1.3 1.2.3.3zm18 51.8l.5.5 1-.8-2.3 3.4-.5.7-.2.3-2.6 1.9-1 .6.7-.7.2-.2v-.7l.1-.6v-.2l.4-.1.7-.6.9-.4 2.1-2.6v-.3zM598.5 58.4l-.5.4-1.1 1.8-.6.7-.3.7-.2.1-.8.4-1-1 .5-.6v-1l.3-.4.4-.4 1-.1.4-1 1 .5.9-.7.6.3zM365.4 220.5l1.5.2.5 1.6v.2l.2-.5.6.8v-.6l.8 1.2h.1l.3-.1.2 1.5-.8-.5H367l-.8-.3-.2-.6.6.3.2-.7-.7-1.3.5 1.4-.4-.2-.3-.2-.4-1.9zm25.7 127.8v-.4h.2l1.9 1.2.2-.3.3.3.1.3.2-.2.6.7-.2.1-1 .3h-.6l-.6.4-.2-.9h-.1l-.4.1-.1.2-.7.2-.1-.1-.1-.4-.7-.2-.1-.2.7-1.2zM578.3 57.4l.5.3.3.4 1.2.4.1.3v.6l-.3.8-.4.4-.9.3-.7-.1-.6-.5-.4-1-.3-.7.6.1.6-1zM413 371.1l-1 .7h-.2l-1.5-.1-.3-.4v-.1l.4-.9.4-.5 1.5-.9.6.6v.6zm-2.3 32l.1.1-.1.2.4.5-.4.8v.3l.3-.2h.1l-.6.6.1 1.1-1.1 1.1.1-1.5h-.4l-.1-.6 1-2.3.3.1h.1l-.1-1.2.6-.3.5.5zm-49.4-157.6l.2.4.1.8-.4 1-.4.7-.8-.6-.5-.5v.2l-.3.6-.1.2-.3.2-.5.2-.4-1.2.8-.2.6-.1.6-1.3.1-.3h.8zm54.1 115.8l.8-.7.2-.3-.1 1.3V362l-.9.6h.2l.3.9-1 1-.2-.2-.2-1.5-.7-.6 1.2-1.5v-.1h.1l.1.1.2.3h.2zM554.3 78l-.6 1.6-.3-.7-.3-.1-.5-.7-.9-.4.1-.7.4-.4.8-.6H554.2l.3.9zM414.5 369.3v.5-.1l-1-1.5v-.3l-.2-.2v-.1l1-3.5.2 1 .7.5-.7 2zm4.4-15.2l.1-.1 1-.8-1.9 3.1-.3.4-.3.3.2-.6h-.2l-.3-.2-.9.1.8-1.6.2-.4zm-66.5-93l1-2 1.5-.3.6.6-.2.8v.2l-.8-.2.2.6h-.4v.4l-.2.3h-.2zM443 397.5h.1l.2 1.8-.4.8-.3.5-.2-.5-1.2.7v-.9l.1-.3 1-1.9.1-.1zm-64.2-90.2l1.5-.1.9.4-.1.6h-2.4l-.2.2-1.5.8-.7-.6.5-.5 1.5-.3.1-.5zm13-6.9h.7l.4.1V301.4l-.1.2-.9-.1.3 1-.4.3-.2.1-1.1-.5-.3-.6v-.3l1-.6.6.4v-.8zm-37.4-62.9l1.7-.6.5.4.5 1.6-.2.3h-.6l-.3-.3v-.1l-.9.2-.2-.4zm186.3-102l.3-.3.3-.2.3.4.1.3H541.4l-.7.3-.4.2-.1.8.5.8-.7.6-.6-.7h-.6l.6-2.2.8-.2.3.3.2-.1zM401.5 270.8v-.6l.3.7v.8l-.8 3.4-.5-.6-.2-.4.6-.8h-.7v-.3l.7-.2v-.1l.2-.1-.4-1.3-.1-.2.4-.5.5.4zM340 316.7l2 .5-1.2-.2-.5.8h-.1v.1h1.2v.3l-1.7.6-.4-.6-.2-.3h.6l.2-.4h-.2v-.1h-.3l-.8-.4.5-.6-.1-.2-.1-.2 1.3.1-.3.5zm172.8-139.2l.3.4 1-.2-.1 1.3h-.1l-.7-.5-.8.4h-.5l-.5-1 1-1 2-.3-1.7.7.2.2zm58.5-53.8H572l-.2.6h-.6l.3.7-.6-.3-.2 1-.7.1-.2-.3.2-1.2.2-1 .1-.5 1.2-.1-.2 1zM521.6 138l.3 2-.2.2h-.1l-.4-.4-.3.5-.2-2 .5-1.5.7-1.2.4.8-.2.6-.3.4zM349.3 306l1.2-.2h.1v.3l-.3 1.2-.8.2.7.3v.2l-.4.4-.5-.2-.2-.2v-.4l-.2-1.6h.3zm35 54.9l-.7.5-.7-.3V360.8l.8-.6-.2-.8.7-.4 1-.4-.2.6-.2.5zM568 61.2v.5l.3-.5.1.9V62l.2-.6v-.2h.5l-.2 1 .5.3v.2l-1.6.6v-.6l.1-.4-.1.1v-.1l-.6.6-.7-1 .6-.8.5.2.3-.3v.2zm-270 191l.7.7.2-.5h1.1l.6 1-.7.2-.2.5.9.7-2.3-1.1v-.4zm74.6-3.5l.2-.1h.4l1 .3h.3l.6 1.3-1.1.5v-.8h-.5l.3.3-.2.2-.3-.5.2-.1-.6-.7v.1h-.1l-.1.5-.1-.1v-.7h.5zm-20.5 6.7h.6l.6 1-1.4.9-1.2-1zm52.5 71.3l.3-.9 1.7 1 1 .2-1.7.6-1-.4h-.3zm115-174.3l.4-.3.5.3.3.3-.5 2.8-.1-.3-.6-1.5-.1-1zm63.1-72.6l.2-.9.2.4-.4 1.5-.4.8-.2 1-.4 1.2-.4.6-.4.3-.3-.2v-.2l.5-.4h.1l.7-.5-.1-.2-.4-1.3 1-1 .1-.3-.8-.8h1zm-246.3 245l.1-.1.3-.1v.9l-.2.3.2.6-.7.4-1-.2.7-1-.2-.4.6-.3zm17-48.7h1.1l.4.6-.6.4.5.2-.5.3v.7l-.1.1-.6-.2v-.2l.1-.6-.6-.2v-.8l1.1.5-.7-.8zm36.4 47.1l.4.5 1.2-.4v.1l.2.9-.4-.2-.3.8-.4-.7-.7.3-.5-.4.4-.3h.2v-.4zm-1.4 25v-.1h.8l.3.5.7-.3-.7 1.1-.2.3v-.3l-.1-.3-1 .2.1-.8zM582.5 81.4l.6-.9.6.3-1.6 4 .5-1.6-.2-1.5zM415.3 367l.6.2h.2v1l-.8 1v-2zm-74-46.5l-.4.2-.6-1v-.3l.5-.1h.5l.6 1zM576.3 62.4l.5-1v-.1.8l.6-.3.9.6-.7.3-.5.3-.2.7-.4-.8.2-.1.5-.4zM505 169.6l1 .5.4-.4.4 1.1-1.7-.2zM352.7 284.2h-.4l-.1-.4.2-.3 1-.7h.3l-.2.4v.1l.2.5-.4.2-.7.2zm78.6-73l.8-.4.6.5-.2.7-1.2-.2-.2-.3zM594.8 40.7l.5-1.4 1 .5-.3.8h-.1l-.7-.3v.7zm.1 36.6l-.3.4h-.1l-.2-.3-.3-.8h-.2l-.2-.4h1.1l.3.1v.2zM423.8 239.5l-.2.2-.6-.4-.1-.6.2-.7h.3l.2.3-.2.6.6.2.2.1-.1.1zM345 264.2l.8-.2h.5l-.5.6.1.2-.2.2-.1-.4-.6.3-1-.4 1-.2zM584 79.7l-.8.6.4-.7V78.2l.3-.2h.4zM412 367.3l.1.6v.4l.3.5h-.5v-.3l-.2-.4h-.4l.8-1.4.1-.3zM336.6 328l-.4.2-.7-.3-.3-.2.3-.1.4-.2 1.2.4zm9.7-19.2l-.4.5h-.1l-.4-.2.4-1.1.7.6zm39.9 53.6l-.3.8-.4-.5-.5.3.2-.6.2-.3h.2l.6.1zm25.6 25.4v-1l.2-.5h.8l-1 1.5zm-31.8-79l.6-.4 1.2.7h-.3l-.4-.2-1 .3zM580.6 61.8l-.6.8-.4-.6.2-.5.2-.3.6.5zM432.8 396.7l.4.7.2.6-.4.6-.3-1.6v-.3zm-61.5-157l.6-.6.3 1.5zm232-183.9l1.3-1.6.3 1-.9-.2-.7.8zM349 264.4l.8-.4.2.9-.8-.3zm-2.1 46.9l.6-.3h.2l.2.5.2-.2-.2.4zm-49.3-58.9l-.7.2v-.6l.7-.2zm4.9-3l.3-.7.5.7-.3.3zm104.3-94.7l.5 1.2-1 .3.7-.8zm8.4 210.5v.2h-.4v-.2l.2-.5.2-.2zm-15.7-90l.2-.1h.3l.3.6-.6-.4-.1-.2zm-28 68.1h.1l.7-.3v.2l-.8.3zm-25.3-59.6l.4-1.2.2-.3zm104-79.3l.1-.7.4-.2zm-76.8 110l.2-.4.2.6zM334 274.4l.2-.3v.5zm.3-12.7l.4-.2-.4.4zm113.3-62.3v-.5l.2.2zM436 209.6l.2-.1.1.2h-.2zm-81.2 66.7l.7-.1-.7.1zm107.3-117.6l.3-.3-.1.3zm-124 60l.5-.1-.4.2zm-.2-.4h.4l-.3.2zm25.8 39.6l-.1-.2h.2zm30.5-100.2l-.3.2.4-.5zm-43.7 114.6l.2-.1h.2zm86.3-61.2h.2v.2zm-134.1 37.4v-.2l.1.2zm70.7 66v-.2.3zM448.9 206v.2zm11.6-2.1l.2.3h-.1zm-23.8 5.3h.2zm-101 9.7l.3-.1v.1zm177.7 235l1 .1zm-80.3-119.1h.2-.1zm37.5-85l.2-.1v.1zm-134.8-31.2h.1v.1zM429.7 376v-.1h.1zm4.3-41.2h.2zM346 264.7l.1-.1v.1zm114.7-60.5h.2v.1zm-85.3 169.6h.2zm-.2 0h.1zm46.1 20.6v-.2l.1.1zm-83-175.1h-.1zm-4 54.9h.2zm114.7-68l.1-.1zm-45.3 179h-.1l.1-.2zm8.8-111zm-37 99.8zM338 219.5h.1zm96.1 115.3l.1-.2zm-31 50.5h.2zm4.3-229v.1zM333 262.5h.2l-.1.1zm.1 0h.1zm1.2 11.5h.1zm78-.1zM302 249.5h.2zm-4.2 2.8v-.1zm39.9-33.9zm-3.5 55.7h.2zm14.8 21.5h-.1.1zm44.6 2.5h.1v.1zm-28-70.2h-.1v-.1zm92.7-64.7v-.2.2zM355.2 265.1h.2zM412 334zm26.6-113.7h.2l-.1.1zm-86.7 67.1h.1zm-.9-6.9h.1zM406.2 156h.1zm-104 99v-.1zm63.4-26.9v-.2.2zm-27.4-9.5zm11.2 77v-.1zm113-137.2h.1zM600.1 20h.1zM381.2 232.3v-.1h.2zm-43.1-12.7l.1-.1zm45.2 13.1zm-50.8 40.5l.1.1zm19.1-.8h.1zm-.6 8v-.1h.1zm70.4 24.2h.1zM595.1 32.2V32zM399 278.3zm3.2 107.6zm18.4 9.9v-.1zm-87.4-133.4v.1zm17.2 9.4v-.1h.1zm97-76l.1-.1zM338 219.2h.1zm82 138.8h.1zm-84.5-139.2h.1zm-38.6 33h.1zm36 21.7zm20.3 8.8h.1zm-20-20h.1zm48.1-33h.1zm-30.4 51zm-15-61.7zm2.1.8zm28.2 6.4zm-32 48.1h.1zm15.6 10.5zm.8 12.5zm80 54.5zm8.2-18.7zm-100-114.2h.1zm101 3.6zm124.4 57.4zm-116.9-84v.1zm-109 23.7zm-.1-.8zm100.3 1.9zm-67.3 124zm22.7-186v-.1zM374 236.1v.1zm59.5 113zm7.7-126.1zm-38.7 162.7zm-69.2-123.4zm18.2 17.8zm-51.3-25.4zm-.2-2.4zm51.1 19.2zm80.3-60.7zm-89.3 104.8zm70.5 18.9v-.1zm-76.9-116zm-1.3 55.3zm97 77.1zm56.2-154.3zm-64 24.6zm129.5 84.3zm22.4-259.2v.1zM435 200.7zm86.4-64.5zm-88 213zM335.6 219zm15.3 68.3h.2zM576.4 65.4zM402.2 386zM503 163.4zm23.8 99v-.1zm-229-10.1zm44 13.6zm-2.5-47.5zm118.9-21.7zm-120 22.8zm266-179.1h.1zM302.9 248.7zM604.2 55.2zM447.7 195.8zM584.3 71.2zm-286 182.3zm287-163.3zm-7-29.3zM358 248.1zm-19.5-29.8zm76.4 147zM297.7 252.5zm149.6-57v.1zm11.7 1.9zm-65-39.9zm132.8 104.8zm54.6-180zm-281 172.5zM503 163.2zM341.7 266zm-38.9-17.2zm66.6-31.7zM571.9 64.1zm12.5 35.1zm-149.1 108zm-83.4 81zM590.1 66.6zm14.2-26.3zM335.7 218.7zm58.3-61.1zm-94.5 96.8zM581.9 83.7zm-3.4-43.4zm-221 185.5h.1zm227-126.5zM335.7 218.8zM553.4 75.7zM496 193.3zm-101.8-35.7zm65 39.9zm103.5 85zM394 157.6zm-.7 56.8zm-57.6 4.4zm243-178.7zm-243 178.7zM503 163.3zM470.5 199zm-170.7 55zm-1.5-.5zm0-.1zm37.4-34.7zm0 0zm21 12.6zm-20.9-12.6zm58.2-61.2zm-94.3 97v-.1zm228.9-86zM394 157.7zM553.4 305zM572 64.3zm-178 93v.1zm66 40.5zm-70.3 3.6zM589.2 72.7zm-195.7 84.6zm-36 82.1zm61 179.9zM584.7 96.9zM503 163.3zM584.6 97zM353 275.7zm234.5-192zm-198 117.8zm-18.8 15zm206.5-158z"/><path id="W08000001" d="M506.3 563.7l.5.2.2-.4v.5l.1.2.5.3 1.7 1v.1l2.4 2.2.4.1-.2.3 2 1.3 1.1.7-1-1-.4-.4.6.3h.3l-.2-.1-1-.8h1.2l-.3-.1h-.1l.7.2 1.4.3 3 2.4 1 1.4-.2 1.2-2.6 1.1.6.2.6 1.2 2.1 1.3 1.1-.6-.2 1.1-.6.8 1 .7-.2.5.8.9-.4.1h.4l-.3.9.3.4v1l.7.4.3 1.3 1.3.5 1.4-.4.3.6 1.3.2-.4.9.5.8-.2 2-1 .1-1.7 1.9-1.7-3-1.6-.3-.2-.4-1.6.9-1.2-.8-.6-1.2-.3.7-1 .2-1 1.7-1.7.2-.7-.3-.7 2.4-1.3.2.4.4-.6.4 1 .7-1.4 1.3.4.3-.6 1.5v.8h.5l-.2.9 1.6.6 1.2-.8-.2.6.5 1h1.3l-.2.2.5-.1.1.4.7-.3.3.6-.4.5 1.1.5v.6l.7-.1.5.7-.1.7h-.5v-.8l-.9.4-.8-.3v1.2l-1 1v1.6l-.2 1.2-1.2.4.9.7h-.5l-.8 1.3.1.7-1 .8h-1l1.2 2.9-1 .6.2.3 1.8-.5v-1l2.8-1.6.7 1.5-.2 1.9H516v1.4l-3.1.1-2.7 1.6-.7-.1-1.3 1.4-.2.7.6 1.4 1.6.8 1 1.3 1.7.7 1.8 1.8 1 .3 2.5-.7.8.4-.5 1.3-1.3.5-.5 2.7 2.5.6-1 .6-1.2-.3-1.2.5-.5.4.2.8-1.1.1v1.5l-1.2.6.3 1.2-1 1.3.9.6.6-.5.4.4-.8.8-1.7.4-.2.6 1.4.7v.7l-.7.2-.1 1.6 1.4 1.7.2.7-.6 1 1.3 2.6 1.6 1.6.7 2h1.2l.2 1.3 3.7-1.8 1.3.8-.7.5.8-.3.2.8 2.7 1.6-.5 1 1.6 1.8.8-.8.1.5.7-.3.2.7h1l.7.5-.4.2v.8l-.7.5.3.5-.4 1.6.7 1-.4 1-.6.5.8 1.5-.6.3.5.5v.8l.5.4-1.1.7h.8l-.6 1h.5l.4 1.5v.4h-.2l-1.3.8-.7 1.4h-.5l-1.3.3-2.4 1.4-1.8.8-1.5.6-.7-.3-1 .1-1.2-.5.4-.7-.8.4-.2.8-2 1.3-1 .7-.4.1-1.2.6-1 1.2.1.4-.6.7-.3.3v-.1l-.3.5.1.2-.3 1.4.1.8-.7.4-1.4-.2-.6.3-1.6.8-.2-.5-.1.4-.7-.2-.2-.1-1.2.7h-2.5l-.4-.4-.9-.2-2.5-.4h-.8l-1.4-.3-1.3-2.3-1-.8-.7-.6-.2-.5.3-.2-1-.4-.8.3-1.6-.4-.4-.8-.2-.4-.5-.3v-.1l-.5-1.8-1.1-2.2-.3-.1-.2-.7-.5.1.6-.3h-.5l-.2-.2-1.3-1.6.6-.6-1.6.4-.3-.2h-.2l-1.2.7h-.3v-.3h-1l-1.5 1-.2.5-.1.6.5.4.5.4-.2.2-1.2-.2-.4.2h-.2l-.3-.4-1.2.8-1.5-.5-.2-.6-2 .9v.4l.3.4.1.3h-1l-.8-.3-.5.3v.4l-.4-.1-1.7-.9-.7-.5-1.1-.1.7-.4v-.8l-.7-1.7h-.4.2l2-1 .7-1.5.5.4-.4.7.7-.3 1.3.4-.1.4 1-.2.3-.5 1.7-.6.5-.6.8-.3.5.3-.5-.5.5-.5-.3-.7-.3 1.2h-2l-.4.4-1.6-1.5-.4-.3-.9.2h-.1l-.9.1-.3-.2-.4.3-.5.6-1.5-.5h-.2l-2.4-3.2v-.4l2.2.3-1.3-.5h-.2l-.5-.7.3-1.7v-.1l.1-.7-.1.1-1.4 1.8-2.1-.8 1.6 1.5-1.1.8-4.4-.6-.6.4h-.7l-.6-.1h-.1l-.8.2-1.8.5-.8 1 .6.8-.6.7-.2.8.3.1-.2.3-.6.6.1.4h-.2l-1.5-.1v.6h-.6l-.2.1-.2.5-1.2-.7H445.2l-.6-.1-1.2 1-.3.3-.2.6.3.4h-1l-.2 1-.8-.2-1-.8-1.3.1-2-.7.3-1.3-.5-1.1v-.3l-2.3-.5-.1-.7.7-.3-.2-.2H435.4l.6.3h-.2l.3.4 1 .2.4-.3-.5-.4.1-.4 1-.1 1.7.4-.1.3.4.2.1.1v-.6l.6-.7 1-.3.6.2 1-.4.2-.6h.6l-.5-.1v-1l-.6-.3.5-2h-.8l.5.6-.3 1.4.6.5-.4 1.3-1.8.1-1.6.6-2-.7-.7.1h-.4l-.1.1h-.8l-.5-.8-.2-.2v.4l-.5.4-.3-.4h-.4l-1 .1-.3-.2-.2.2.2.5.7.3h-.3v1h-.4l-.3.4-.3-.4-.2-.2v-1.2l-.5-.4v-.1l-.5-.4-.6.3h-.1l.2-.3-1-1 1.6.3.4-1.3h.6l1-1h.3l1.4.2.4-.4v-1.2l.2-1-.4-.8-.1-.9v-.5l-.8-1.2h-.1l-1.7.1v-.4h-.5v-.3l-.1.1h-.6l-.2-.2h-.5l-1 .2h-.4l-.4.1-.3.3-.5.1v-.2l-.7.4.3-1v-.1l-.4-.4.8-.7-.3-.6-.4.1 1.6-.8h.6l.3-.4 1.6-.7.2-.5.2-.1.1-.6 1.7.2.4-.8h1.4l.2-.5h.6l.2-1-.6-.6 1-.6-.7-.8.1-.1.6-.5-.2-.3 1 .3 1.2.3 1-.3.2.3v.3l.7.2-.5-.1-.4.6.3.4.2-.1.3.2.2.1v-.1l1.6-.7.3-.1.1-.6v-.2l.3-.8 1 .9.2.1.5-.1h.6v-.1h.8l-.3-.1h-.1l-.1-.8.1-.6.4-.4.7-.2h.5l.2-.2.4-.3.3-.2v-.1l.7-.6.6-1.4h-.1l.6-1.1h.1l1.5.8.1-1.6 1.7-.6H455.4l.7-.4.8.7h1l.4-.3h.1l.2-.3 1.2-1 .2-1 .1.3.1.2.6-.2 1.6-1.7 1-1v-.2h.8l.3.4h.3l.7-.3h.1l2.3-2 2.2-1.2 2.6-3.7 2-4.9v-.1l.1-2 .2-.6.8-1.7.4-.9-.1-3.4.5 1v-.5h1l1.2-.5 1.6-1.5.1-.1h-.8l-4 1.2h-.1l-1-2-.3-.4-1.1-2 1.3-3.8.9-.7.5-.5v-1.3l.4-.5-.1.8 2.3-2.1-1.7.9-.7.2-.8-1.2-.6-1.2-.1-.2-2.3-3.1v-.5l.4-.4.3-.3.2.2.4-.6-.4.3.3-1.4-1-3 .5-.4-.1.3h.5l1.6-.3.7-1.4-.8.5-.7.4-.3-.7-.7-.1-.3.5-.6.5-2.6-.8h-.3l-.5.2-1 .3-2 .1-.5 1.1h-.2l-1.8-.2H463l-.6.3.1.3h-.4l.5.2-2.3.8h-.1l-.1.2-.6.6.2.7-1 .6-.3.7.3.1v1h.3l.1 1-1.1.1-.5 1-.6-.6.3-.9-2.7-1.6v.2l-1.6 1.5-.6-.4h-.1l-1 .8-.1-.4-1.1-.2-.3 1-.2.3-1.3-1 1-1.6.7-.9-.1-1.1 1.1-.4.2-.6v-.4l.6-.1.3-.2.6-1.3.1-.4h.7l.4-.7.2-.4.7-.4 1.1-.6.1-.6.2.6h1.3l.1-.1h.3l.7-.7h.1l1-1 1.4-2h1.1l1-1 1.2-1.4.6-1.6V579.2l-.2-.4-.1-1.5.3-.5h.7l-.5.5.5 1 .4-.5v-1.3l.9-.8.3-.2.6-.8.8-1 1.2-.9V572.5l.5-1.4 1.3-.6.3-.1 1.3-1 .1-.1.3.4v-.4l.3.3.3-.1.3-.2.2.7 3.1-1.3h.2v-.4l3.2-1.3 1.4-1 1.5-.4.8.8-.3-.5.4.5-.6-1v-.4l-.2-1-1.2-1.2v-.2l1.6.1.5.8v.2l.7-.1 1-.3.1.1.3.5.5.2.5.1.3.7v.3l1 .4 3.8.2 2.4-1 1.4-.7h.4l.9-.8 4.4-1.5h.1l2.1-.3v1.2zm-43.8-6.5l1.3-.1.5.6.7-.3.2.2.2-.1.8.2.6.2.2-.4.7 1.8-.8 1.5.6-.5.4 1 1.3.1-.2.4.1.4v.3l.2.1.3 1v.3l.6.4-.4 1 .4.1.2.1.4-.1 1.8-.6 1-.9.6.2 2.4.4-.7.7-.5.6-.6 1.8-.5.4-2.2 1.6-.2.5v.2h-.3l-.3-.1-1 .5v.1h-.1l-.3 1.3-.2.5-1 .5-2.4 2-.7.2-.6-.5.4 1.6-2.6-1-.2-.1-.5.5v-.1l.2-.4-.5-1.2 1-.3h.3v-1.6l-.4.4-1.8 2-1-1.7-.7.3v-.6h-.7l.3-1.4-1-1.2v-.4l-1.3-1.1.3-.3-.5-.3v-.4l-.6-.5.8 1.7h-.1l-1.5.4-.5-.4-.1-.2.1-.5-.6-.8.3-.7-1.3-.5h-.1l-1.1.4v-1l.1-.1-.7-.4-.1-.1.6-.5.1-.6.8.3.5-.1.8.3v-.2h.2v.1l-.3.6.2-.4.4.4.2.3h.8v.7l.4.2h.2l.6-.8.1.2.6-.6-1 .4.2-1-1-1 .7-.3.5-2.4-.2-.4-.5-1.5.2-.1 1.2-.2h.3l.8-.6-.2.6.3-.3v.1l1-.7.1-.1.3.1.8.4v-.5l1-.5zm-34.6 108l.8.3-.5.2v-.2l-.3.2-.2.1-.4-.1-.3-.2.1-.3.4-.3zm-1.7-7.2h-.2l-.3-.2v-.5l.1-.2v-.2l-.2-.2h.1l.5-.1v.9zm25.5 13.8l-.2.4-.8-.2v-.4h-.1v-.2l1.1.3h.2zm-4.6-71l-.2.1.3-1.2h.1l.4.1v.2zm-26.5 65l-.2.2v-.2h.2zm-7.5.6v.1zm100.5-98.7zm-43.6 3.8z"/></svg>