<svg width="1000" height="800" xmlns="http://www.w3.org/2000/svg"><path id="E15000001" d="M556.8 399v.3h-.4l1.5 2.3.9.7v.1l2 1.8v.8h.5l.1 1.2.6.9.6.7 1 .6 1.2-.7.7 1.3-.8.7.6.8 1-1 .8.1 1.6 1.2.6.5.2.4h.3l.4.3v.5l.1.3.9 1.3-.5.1-.2.6.2.3.2.3.6.8-.1 1.6.9.4v1.3l-.1 2.3h.1v.2l.6.5v.7l-.2.1V424.1l-.1.2-.3.1v.3l-.7.8-.6-.2.6.4.3 1.5.8 1.6h-.4l.3.2.4-.3.4.4.5.8-.4 1.4-.2.5v.4l-.3.9.8 2 1 1.3.2.5v.5l.1.3.8 1.5-.6.3-.4 1.3h-.6l.5.2.3.6v.1l.3.5.5.9-.7-.5.8.9v1l.2.5v.2l1 1.3.1.3.5 1.2v.1l.2.2.6 1.5.3.4.1.4.6.3-1 .1-1 1.6-3 .4h3.2l1-1.6.1.2h.1l.3-.1v.4l.3.3v.1l1.8 1.9v1l-.5.6-.2.4.4-.5V457l.5.3h-.4l-.3.7.4-.3v.1l.3-.3v.9l-.4.5.3 1.4.3 1.2.1.5 1 1 .7 4.6.2.3v.1l1.6 2 .5.8 2.5 1.6.2.5-1-.5.4.3v.1h-.1l-.3.7v.1l.6 1.4.7.6.1.2h.2l-.4.3-.2.7h-.6l-.2.3-.3.4h1.5v.9l-1.4 1.8 1.5-1.4.4-.7-.2-.9.8-.1v-.7l.6.7 1.8.6.7.3 2 1.5 1.7.6 1.3-.1 1.2 1h1.7l.3.1 1.4.8.7-.2-.4.7-1 .1-.8 1.3v2.8l-1.3-.6-2.8.6-2-1-1.3.6-2.2-.8-1 .5-4.3-.9-1 .7v1l-1-.2-.8 1-1.7.7v-.5l-.8.4-.3-.4-.3-1.5-.6.6-.4-.6-.5 1.1-1.7-1.8-.5.4.7.4-.2 2.8-.5-1.5-1-.1.4-.8-.8.8-.1-.6h-.6l.4.9h-1l-.4-1-1.1-.8.2-.5h-.5l.4-.6-.9.2-.3-.6-.9.4v-.8h-.8l-.1-.6-2.5-.5-.5 1-1.8-.3.2 1.7-.7 1.5-1.8-1.7-.7.4v1.4l-3.3 2h-1.1l-1-1-2-.5.1-.6-2.8 1.4-2.1.3.4-1-.5-4h-1l-.4-1.3-3.8-3-.7-2.4 1.4-1.2-.2-1-1.3-.4-1-1-.2-.8 1.2-2 .1-2.5.6-.6-.7-2.2-.9-.1-1.6-1.7-.8-1.6-.5.9-1.4.6-1.4 1.6-1 .3-1.5-.8-.7-1.3.2-1.2-1.3-2 1.1-.9.4-1.5.9-.7-1-.8v-1.2l-1-.3-.2-.5 1-1.2v-2l3.6-1.5-.8-1.5.7-1.4-.7-.6-2.3.5-.3-.9-1-.6-.1-1.3-2.3-.8-.8-1.3.1-1.4-.6-.9 1-2.2 1.3-.2v-1.4l.8-.2-1.4-.8.8-.2.7-1.4 1.4-1 .5-1.4 1.5-.4 1.8-2.1 2.3-.3.6.7h.8l1.7-1.3-.4-.4.7-.6-.6-1.2.3-.6h1l2-1.7 1.1.3 1.4-1.1.3-1.2.9-.5-1.4-.4v-1l-1.1-1.4-.4-3.2-2-1.7v-1.6l-1-1.1.3-.6-.6.2-.5-.5 1.2-1 2.8.4-.6-.7 1.2-.9v-.8l2-2-.4-1 1-.2.3-1.2h1l.4-1.4.9-.1v-2.2l2-1.3 1.3 2.2zm8.1 5.8v1.3h-.9l-.5-1-1 .2-.5-.5z"/><path id="E15000002" d="M534.1 445.3l.3 1 2.3-.6.7.6-.7 1.4.8 1.5-3.5 1.6v2l-1.1 1 .2.6 1 .3v1.2l1 .8-.9.7-.4 1.5-1 .9 1.2 2-.2 1.2.7 1.3 1.4.8 1.1-.3 1.4-1.6 1.4-.6.5-1 .8 1.7 1.6 1.7.9.1.7 2.2-.6.6v2.5l-1.3 2 .2.8 1 1 1.3.5.2.9-1.4 1.2.7 2.4 3.8 3 .4 1.3h1l.5 4-.4 1-.3-.2-.5.8-2.3-.2-1.7.9-.6 1.3.1 1.5.5.4-.2 1h-.7l-1.1 1.1-1 .3 2.3 2-.5 1 .3 1.6-.4.5.4.6-.4 2-.9.2-.5-.8-.4.6h-1l-.3 1h-2.2l-2.8 4.5-1 .3-.2 1.8 1.6 2.1h.5l1.8 1.3v2.1l1.5.4 2-.8.7 2 .7.7h-.5v1l.5.3.8-.3 1 1.3 2.4-.5.4.3-.4.4.2.7 1.2-.6.5 2.3 2 .6.7.7.4 1.6.9 1-.4.5 1.7 1.2v1.4l-3.2 2v3.1l-1.7 2 .4 1.5.7.5v.9l.4-.5.6 1h1.2l.2-.5 1.2-.4 1 4.4h.7l2.6 3.7 1.1.6.2.9-.7 1.1.2.8-2 .3v1l-.6.6v1.6l-.8 1 .2.3-.4-.3-.5.5.1.8 1.2.4-.4 1.9-1.2.7v.5l1 .3-.2 2 .5.9-.3 3.8 1.3 1.9-.6.5.1.6-.5 1.3-1.8.1-1 1.4-1.5.2-1.1-1v1.7l-.6-.2-3.6 4.6-.3-.3-1.5 1-1-.2-1.1 1.7-1.3.2-.2 1.7.6.8-.5.4v.6l-2.2.9.2 1-1.8.7-1.6-1-.4 1.7-1.2-1.1-1 .6-.4-.5.1-1-1.5-1.2-1.6.7-1-.6-1 .8-1.3-.2-.3-.6-1.4.4-1.3-.5-.3-1.3-.7-.4.2-.9-.5-.5.4-.6-.5-.3.4-.1-.8-1 .3-.4-1-.7.7-1.9-.8.7-1.6-.7-2-2 2.6-1.2.2-1.2-1-1.4-3-2.4-2.3-.7h-.2l-.1-.1v-.2l-.3-.5h.7l-.4-.5h.6-.3v-.7l-.3.3-.5-.2v-.8l-.1.2-.3-1-.3-.7-2.5-2.7-.5-1.5 1-1 5.2-2.7 1 2.2.5 2.3 2.7 4 .2.3 1 .6 1 .6h1.2l1.3-1 1 .6 1.4-1.2.5.6-.3-.6-.6-1 .3-.9h.5l.1-.2-.8-.1-.6.7-.4 1-1.5-.7-.2.2-.3.2-1.6-.4-1-.8-3-2.4-1-2-.1-1.6-.7-1v-.1l-.7-1-.5-1.5-.3-.8v-1.3h-.5l-1-1.5.2-1.8 2.1-4 1.7-2.4 1.2-1.7v.4l.5-.4h.4l-.3-.5h.8l-.6-.4.4-.9.5.3-.1-.3h.5l.2-.1 1.7-.4.7.2-.2-.4 1.1-.6-1.3.5-1.6.3h-2l.4-.2-1.3.1-1.6-.3-1.3-1.2-.5-1.2v-.2l.3-4.9v-1.6l.2-3 1.7-.4v1.7l.3-2 3.2-1.3-.2.4.2.2.4.3.7-.2-.3-.3.4-.2.6-.2-.7-.4h.6l.4-.5h.7l-1-.3-.4-.6 1-1.4h.8v-.6l-1 .3h-.5l-.3 1-.2-.3-.5.2-.2-2-.6-.4-.2-.3h.2l.2-.1h-.3l.1-.1.5-.3 1-2.2.3-.2 1-.1 1-.8h-.3v-.7l.8-.6.6-1.4-.2.2-1.2-1.2.4-.6h-.4l-.2-.5-.1-.9-.2-.1-.8-.5v-.6l.8-.9-2.5.8-.6 1.6-.4 1.2-3.2 1.4.5-1.4v-1l-1.5-2 .2-1-.8.9-.3 1.2v1.2l-.6.6-1 2.2-1.6 1.5-.2.3-1 .8 1 1.1-1.1-.7.1-.5-.8-1.4-1 1-.2-.3-.6-1 .2-3h-.5l-.3-1 1-.4h.1l.4-.2v-.6l.4-1.5v-.4l.1-.2.6-1-.3.3-.6-1.9-.6-.2v.2l.2.4H508.3v.1l.3.1-.2.4-.4.6.2.3-.7.8.2.5.3.4-.6.8-1.2-.3-.6.5h-.7l-.8-1.4-3.2-5 .3-5-.9 1-1.7-2.9-1.2-2-1.3-1.7-2-2.7-.6-.3-1-1.5v-.3l.6-.6.3-.2v-.2l.2-.2.5-1.5h.1l.2-.5v-.3l.3-1.3.2-1 .3-.8-.5-2.7h.3l.8-1 1.3-1.8.2-1 .3-.8 1.9-1.8.7-.7v-3l1.6-4.6.8-1.1.5-.5 1-.5v.3l1.6 1 .6.4-.2-1.2h1l.5-.6-.2-.6-.8.5-1.4-.6-.1-.5.4-.6.7-1 1.3-.1h.1l1.3-.8 1.1.4 1.3 1.2.9.2.5.1.3-.1 1.4-.6-2.2.3v-1h.9l-.3-.8.5-.8 1.1.2h.1l.6-1v-.2h-.2l1.4-3.3-1-.8v-.4l3.6.2.9-.7-.1-.6 1.6-.6 1-2 1-.3.8-1.8 1.6-.3 3.2-2.1.5-1 .6.8-.1 1.4.8 1.3 2.3.8.2 1.3zm-24.8 70.3l.4.3.9-.5v.6l-1 .2-.6-.4-.4-.8-1.8-3-.3-2.3.4-.2.6 1.2.3 1.8-.2.1 1 1v1.1h.5z"/><path id="E15000003" d="M635 550.3l-1.2.8-2-.2-.4 1.9-.7.2.2.6-.7.5 1 1.2-1.5 1.2-1-.5-.3-1.6-1.1-.2-.3-1-.8-.2.2-1.7-.2-1.3h-.4l1.1-2.4h-1.2l-.5-1.2-.6.1v-.5l-2-1.5v1.6l-1.3 2.2-3.2-.3-.5-.8-1.4 1.7-1 .2-.4.5 2.8-.5.8.9.2 1-3.3.8v1.6l.7.4-3.2 1h-3l.2-3.5-4.5-.5-.5 1.3h-.6l-.1 1.4-.5.1v1l-.5.5-3-.8-1.7.4-.1-.3.7-.7-1.3-1.8-.7 1.2-1.3.9-.4 2.2-.7.7-.6.1v-.4l-2 .3-1.4 1.3v.6l-.7.5.2 1-.6.4.2.8h-.9l.2.8.7-.2v.4l-2 1.5-.5 1-1-.4-.6.5-2-.8.3-.8-.7-.5-.3.5-.6-.2-.3.9-2-.2v-1l-.8-.5-2 .7.2.6-.5.3h-1.3l-1.4.8-1-.1v-.6l-.7.2-.2-.6-.5.7-.4-.8-.8.4.7-1.7.8-.2-2.8-1.3.3-1.8-1.6-.5-.3-1h-1l-.7-.6v-2.4l-2.1-1.2.2-1.5-.6-.2.4-.3-.7-.2-.3-.6-.6.2-1.2-1.3-.8.4-.6-.3-.2-.9-1.1-.6-2.6-3.7h-.6l-1-4.4-1.3.4-.2.5h-1.2l-.6-1-.4.5v-1l-.7-.4-.4-1.6 1.6-1.9.1-3 3.2-2.1V529l-1.7-1.2.4-.5-.9-1-.4-1.6-.7-.7-2-.6-.5-2.3-1.2.6-.2-.7.4-.4-.4-.3-2.5.5-1-1.3-.7.3-.5-.3v-1h.5l-.7-.7-.7-2-2 .8-1.5-.4v-2.1l-1.8-1.3h-.5l-1.6-2.1.2-1.8 1-.3 2.8-4.6 2.2.1.3-1h1l.4-.6.5.8 1-.3.3-1.9-.4-.6.4-.5-.3-1.6.5-1-2.2-2 .9-.3 1-1 .8-.1.2-1-.5-.4v-1.5l.5-1.3 1.7-.9 2.3.2.5-.8.3.2 2-.3 3-1.4-.1.6 1.9.5 1 1h1l3.3-2v-1.4l.8-.4 1.8 1.7.7-1.5-.2-1.7 1.8.2.5-1 2.5.6.1.7h.8v.7l.9-.4.3.6.9-.2-.4.6h.5l-.2.5 1 .8.5 1h1l-.4-1 .6.1.1.6.8-.8-.3.8h.9l.5 1.6.2-2.8-.7-.4.5-.4 1.7 1.8.5-1 .4.5.6-.6.3 1.5.3.4.8-.4v.5l1.7-.8.8-1 1 .3v-1l1-.7 4.3 1 1-.6 2.2.8 1.3-.6 2 1 2.8-.6 1.3.6v-2.8l.8-1.3 1-.1.5-.6.8.6.1.2.8 1.3.4-.1.8-.2.6.4.2.4h.4v.1l.5 1.3 1.5.2.8.2-.1.4.1-.4h.2l.7.3 2.6 2.9-.4.9.4 1.1.3.2.4.4.3-.1.2.1 1 1.2.2.3 1 3 .7.6.4 2.5.8.4v.3l-.4.6 1.2 1.4-.1.3h.1v.1l2.7 1.4 1.5.7h-.7l-.3.9.8 1.8.6.3v.2l.6.2.8.5 1.9.8 2.6 1.1.7.7.1.2-1.1.8-2.4.4-.3.4-.8.8-.2.1-.5 1.4v3.3l1.5 4.7.7 2.1.2.5.2.4 1.2 1.7 1 1.6 1.8 3 2.4 3.4 3.7 5.2.2.3v.2l.2.5.5 1.2.4 1.7v.4l-.1.3-1.2 1.4-.1.1v-.2l1.4-1.8-.2-.5-1-1-.4-.4-1-.6-1.8-.5-3.4 1.3-2.4-.7-1.4-1.5-1.3-1.3-1.7-1.7-.4-1.2-.3-.3-.2-.1-1.4-.7-1.8.3-3.4 1.3-1 .3-1.1-.2-.5.1-2.6.4-1.2-1.1-1.6-.2-1.9.5-.9 1.2-1.1-.2 1 .6v.9l.5.5-.3-1.2 3.2-1.3 1 1.4 2.4 1 1.5-.9.6-.4h3l.3-.3 3.6-.8 1.7 2.5.1.1.1.2.4.6 1.2 1.6.7.6 4.2 3.5.3-.6h.1l2.7 3z"/><path id="E15000004" d="M635 550.3v.1l1.2.7-.3-.7 2 .7-.4.8.5.6.6.3.2.1.2-.4-.4-.6 1.1.5-.3.7.6.2.1-.8.7.8.1.3-.4-.1.1.1 1.2 1.8-.2.4.6.5-.5-.1 1 1-.7.3 1.3.8.5 2.1 2.2 5.1 1.5 3.6.8 3.1-.3 3.6-.2 1.5-.2 1.1-.4.5h-.6l-2.6 2.6-3.5 2.6-2.5 3.4-.4.7v.1l-.1.4v.3H636l1.4.1-1 .9-.2.2-.8 1 .7-.3 1-1-.2 1 .6.2 1.3.5 1.4.7 1 .6 1.5 3-.3 2.8.4-2.4.5-.2 1.3.5h.2l-.9 2 1.1.8-3.4 2.4-1.7-.3-2 1-1-.2-.8.9.2 2-1 1.2-2.1.2-1.3-.9-1 .5-.5-.3-1.5 1.3-1.5-.6-.5.6-.6-1-2 1-1.2-1.2-1.8-.3-.6.9-2.2.8-1.8-.4-1.6 1 .9 1.4-1 2 .7.8 2.5-.3.3 1-.5.3.7 1.3-.5.8 2.4 1.2-.2 1.1.6 1.5-1 1.7.2.4-2.1 1.4-1 1.7-2 .4.2.3-.4 1 .8.6-.2.5.7.2v.9l-.4.4H614l.2.2-1 1.6.3 1.2-.3.9-1 .2-1.5-1.6-2 .7.7 2.6-1.2 2-1.3.1-2.4 2v-.5l-.6.1-.5 1.1-.4-.5-.5 1h-.7v.8l-1.9.3-.2.8.6.1v.8l1 .5.5 1.3-.3.5-.9.2.4.6-.7.4-.4 1-.4-.2-.7.6-1.7-3.8-.6.7-2.9-.2.6.7h-1.4l-2.3 1.2-.6 1.4.7.4-.6 1.2-1.1.2-1.4 1-1.7-.5-1.6.4.2-2.2-1.4-2.3.6-1.7-.8-.1v-.5l2.8-.6-3.3-4.6.7-1.4 2.3-.4-1.2-2.6.7.2 2-1.9-.7-1.6 1-1.6-1.5-.5-.7-.4.1-.3 3.5-1.8-2.6-5-2.6-3.5-8.4-4.9-.2-.8-1.3-.8.2-1.2-.6-1.4.9-.4.2-.7-.4-1-1.5-1.2v-.7h-2.5v-1.5l-2-.5.4-1.5 1.1-2 2.2.2-.1-.5 1-.7-.1-.7-.8-.4 1-1-1.6-1.5-2.5-.6-.4.2-.1-.4-.8.5-2-1.6-.6.3-.4-.4-.4.3-.8-.4-.9-2.8 1-1v-2l2.6-1.5.2-1v-1.5l-1-.7.3-.6-.7-2 .4-.9-1.5-2.1.3-1.2-1-1.5-1.4-1.2-3.2-1.2-.2-.8-1 .8v-.6l.5-.5-1.3-2 .3-3.7-.5-1 .2-1.9-1-.3v-.5l1.2-.7.4-2-1.2-.3-.1-.8.5-.5.4.3-.2-.4.9-.9-.1-1.6.5-.5.1-1 2-.4-.2-.8.7-1.1.6.3.8-.4 1.2 1.3.6-.2.3.6.7.2-.4.3.6.2-.2 1.5 2.2 1.2v2.4l.6.6h1l.3 1 1.6.5-.3 1.8 2.8 1.3-.8.2-.7 1.7.8-.4.4.8.5-.7.2.6.7-.2v.6h1l1.4-.8h1.3l.5-.2-.2-.6 2-.7.9.4v1.1l1.9.2.3-.9.6.2.3-.5.7.5-.2.8 2 .8.5-.5 1 .3.4-1 2.1-1.4v-.4l-.7.2-.2-.8h1l-.3-.8.6-.4-.2-1 .7-.5v-.6l1.4-1.3 2-.3v.4h.6l.7-.8.4-2.2 1.3-.9.7-1.2 1.3 1.8-.7.7.1.3 1.8-.4 2.9.8.5-.6v-.9l.5-.1.1-1.3.6-.1.5-1.3 4.5.5-.2 3.5h3l3.2-1-.6-.4v-1.6l3.2-.9-.2-1-.8-.8-2.8.5.4-.5 1-.2 1.4-1.7.5.8 3.2.3 1.2-2.2.1-1.6 2 1.5v.5h.6l.5 1.1h1.2l-1.1 2.4h.4l.2 1.3-.2 1.7.8.1.3 1 1 .3.4 1.6 1 .5 1.5-1.2-1-1.2.7-.5-.2-.6.7-.2.4-2 2 .3z"/><path id="E15000007" d="M642.6 681l-.9.1-.2-.7-.3-.6-.6-.2-1.3-.5-1 .3-.6.1-.5.8-1.9.1-.2-.2h-.1l-.4-.4-.5.3v.1l.2.8-.5.2-.4-.3-.2-.7v-.4h-.6l-.6.4-.5-.3v.1l.1.1.3.2h.1l.2-.1.4-.3h.5V680.9l.4.5.2.2v-.1l.6-.3h.2l-.2-.9.2-.2.2.2.3.3.2.2h1.4l.8-.1.2-.3.4-.5 1-.2h.3l1.6.5v.3l.4 1 1.6.2h.1l-.7 1.6-1.2.7-.3 1-.3-.2-.3 1.4.5 1h-.6l.2 1.5-.6 1.5h-.7v.9l-1.3.8v1.5H636l-.3-1-.7 1-.5-2.3-1.6-.6-.5 1-1.1.2-.5 1.2-1.3.9-.5-.9h-.7l-.3-1.8-1.3-.9-.7.9-.6-.4.5-.6-.4-1-.7-.3v-.9h-.6l-1 1-.8 1.8-.8.6-.1-1.4.9-1.8-.4-1-.4.1-1.2-1.2h-1.2v-.7l-2.6-1-.1-1.1-2-.7 1-2.5-.5-2 .8-1.2-1-2.6.2-2 1.5 1.2.7-.5 1.6.4 3.2-1.7.8.3 1.5-.4.3-.9 1.5-.3.3-.5.5.3 1.1-1.5 2.3-.2 3.6.7v2.2l1.4.3v.8l.7.8.5-.2-.2.3.5.4 1 .2.2-.6 1.7-.6 1.3.1 2.1-.6 1.6 1.4-.4.5h.6l.8 2.3h.9l.8 1.5-2.7.5v1h-.4l-.2-.8-.5.6.2.7-1.1.9z"/><path id="E15000005" d="M582.4 638.1l-.7 2.1h-.6l-1 1 .8.2.5 1-1 .4-1.7-1.5-1 .4.2 1-1.2-.3-.4.5-1.4 6.4h-1.3l.3.7-1.2.5-.8-.2.4.4-.8 1-2.1-2v-.7l1.9-2.3-.3-.3-1.6.4-1.1-.5.2-.8-.7-.5.2-.8-.5.4-.7-.4.1-1.7-.7.4-.8-1.2-1.4 1-.4 1.1-.2-.4-.5.8-.6-.4-1 .6.4 1 1 .6.5.9-.6 1.5-2.9-2.4-.7 1-.8-.6-1.2.1-2.2 2h-.4l-.4-.6-1 .3-1-.4-1.2 1-.4-.4.5-1.3.9-.7-1.8-.8-.7.5.1 1.3-.4.2.9 1.5-.6-.3-.2.6-1.4-.3-1.2 1.8h-1.9l-.5-.6h-.5v-1.7l-1-.6v-.5l-1.6.5-.2 1-.9.2-.6-.2v-1.1h-1v-.5h-.5l-.7.9.9.9-1 .8.1 1.1-.3.2 1.4.6v1.5l.6.6.4 1.3-1.9 1-.8-.2-1 1.5h-1.8l-.1.7-.7-.4-1 1.1-.4-.2-.5 1-.7-.6-1 .1-.2-.7-.7.3-.2-.5-.7.8-1.6-1.9.4-1-2.6-1.5-.2-.8-.8.3.7-.5-1.3-.8-3.7 1.8-.2-1.4H517l-.7-1.9-1.7-1.7-1.2-2.4.5-1.1-.1-.7-1.4-1.7.1-1.6.7-.2v-.7l-1.4-.7.2-.6 1.7-.4.8-.8-.4-.4-.7.5-.9-.6 1.1-1.2-.3-1.3 1.2-.6v-1.5l1-.1v-.8l.4-.4 1.2-.5 1.1.3 1-.6-2.4-.6.5-2.7 1.3-.5.5-1.3-.8-.3-2.6.6-.8-.2-2-1.9-1.6-.7-1-1.3-1.6-.8-.6-1.4 1.5-2.1.7.1 2.7-1.6 3.2-.1-.2-1.5 1.2.3.3-2.1-.4-1.4h-.4l-2.8 1.5v1l-1.7.5-.2-.3 1-.6-1.1-2.8h.8l1.1-1-.1-.6.8-1.2.5-.1-1-.7 1.3-.4.5-1.8-.3-1 1-1v-1.2l.8.3.9-.4v.7h.4l.2-.3-.4-1-.7.1v-.6l-1.2-.5.4-.5-.3-.6-.7.3-.1-.4h-.5l.1-.2h-1.2l-.5-.9.2-.6-1.2.8-1.6-.6.2-.9h-.6v-.8l.7-1.5-.5-.3 1.4-1.3-1-.7.7-.4-.4-.4 1.3-.2.7-2.4.7.3 1.6-.2 1-1.7 1.1-.2.3-.7.6 1.2 1.2.8 1.6-1 .2.5 1.6.2 1.7 3 1.7-1.8h1l.2-2.1-.5-.8.4-.9 1-.8 1 .6 1.6-.7 1.5 1.1v1.1l.3.5 1-.6 1.2 1.1.4-1.7 1.6 1 1.8-.7-.2-1 2.3-1-.1-.5.5-.4-.6-.8.2-1.7 1.3-.2 1.1-1.7 1 .2 1.5-1 .3.3 3.6-4.6.5.2v-1.7l1.2 1 1.6-.2 1-1.4h1.7l.5-1.4 1-.8.2.8 3.2 1.2 1.4 1.2 1 1.5-.3 1.2 1.5 2.1-.4 1 .7 1.9-.4.6 1 .7v1.4l-.1 1.1-2.5 1.5-.1 2-1 1 .9 2.8.8.4.4-.3.4.4.5-.3 2 1.6.9-.5.1.4.4-.2 2.5.6 1.6 1.5-1 1 .8.4v.7l-1 .7.2.5-2.2-.3-1.1 2.1-.3 1.5 1.8.5v1.5h2.6v.7l1.5 1.2.4 1-.2.7-1 .4.7 1.4-.2 1.2 1.3.8.2.8 8.4 5 2.6 3.4 2.6 5-3.5 1.8-.1.3.7.4 1.5.5-1 1.6.7 1.6-2 1.9-.7-.2 1.2 2.6-2.3.4z"/><path id="E15000006" d="M672.5 586l5 1.6 1 .3 5.4.8h.1l2.8 1.2 1 .7.4.3 1.9 1.3 1.7 1.5 3.5 3 .8.8 2.3 2.4 2.1 2.7.2.2 1.5 4.7v4.8l-.3-.6v.6h.3l-.2.5v.8l.2.9.1.4.9 3.3-.1.3-.2.2v-.3l-.6 1.6-.2.3v.1l-.3 3-.1.4-1 2.1-.3.8-.6 2.2h-.3v.1l-.5.5-.1.2-.3.4-.3.8-.2.2v.4l-.5 5.7v.3l-1.5 5.7-3.2 1.8-.5.3.5-.4 2-1.2-1.3.3-.4.4h-.2l-1.6 1.6-1 2.3-.2.2-1.4 1.1-.2-.7-1-.5 1 1.1v.7l-1.7 1.4-1 1.4v-1l-1.4-1.2-.2-1.5-2.5-.9-.4-.3-.4-.2-.5-.4h-.1l-.7-.6-.3-.2.7 1.1v.1l1.2 1 .4.1 2.1.6.3 1.8-.4.1-.8-.2-1 .5-.3-.2h-.9l-1-1-1.2 1.2-1.7-.4-.7.6h.1l.7.3 1.2.3 2-.5.6.5.5-.1.8-.2-.1.3h.4l.7-.4h.1l1.1.5.5-.7.3.9h-.6l-.9 1.2-.5 1.6-.6.2-.2-1-.5.5.6.4-1.1.3.4.4-.6.2-.6.3h1.1l.7-.6-.5.7.6-.2.2 1 .2-.3h.4v.3l.2-.5h.6v-.8l.8.2V657.7l-2.4 2.8-1.5 1-2.2 1.4-.7.2-.5.1-1.3.2h-1l-.6-1.2.3.4v-.5l-.7-.7h1.2l.6-.6.1-.7-.3.7-1.3.4-1.2-.7-.4-.8v-.1l.3-.6-.2-.1-.3-.2v.2l.1 1.5-1.1-.5 1 .8-2 .3.3.1-1.1.4-.4.7-.3.7-1-.4h.1l1 1.1-1.2-.2-.2-.4-.5.2 1.5 1-1 .8-.3.2-1.4.1-.8-.4-.1.6-.5-.5v.3l-.6-.2-.4.6-.6.2-.9-.5-.3.9-.7-.5 1 1.1 2.2.4-.7.4-.1.6-.4-.1v.4l.7-.2.4-.8 1.1-.3v-.7l1-.2.6.4 1.3-.4 1-1.4 1.3-.2h.1l.8 1-.5 1.8.5 1.2-.6 1.4v1.6l-1.2.9H668l-2.6-.2-1.1-.8.7.8 3.2.6v1h-1.8l-.6-.6.5.7-1.6 1 1.1-.3-.4.7.5-.2.4 1 1.3.4-1.2 1-1.3 1.2-.7-.3-5-1-.6.2-.6.2-.6-.2-1.3-.3 1.2.8h.2l1.3.4-.5.3.7-.1-.7.4-1 .3-.7.1h-.8l-.6-.7h-.4l-.4-.6v.2l.2.6.7.3-1.3.4h-2l-.4.5v.2l-.5 2-1.3.6-1.6.1h-.7l-.7-1.4h-1l-.6.8-2.8-1.8v-.3l1.2-.9-.2-.7.5-.6.2.7h.4v-.9l2.7-.5-.8-1.6-.9.1-.8-2.2-.6-.1.4-.5-1.6-1.4-2.1.6-1.3-.1-1.7.6-.2.6-1-.2-.5-.4.2-.3-.5.2-.8-.8v-.8l-1.3-.3V669l-3.6-.7-2.3.2-1 1.5-.6-.3-.3.5-1.5.3-.3 1-1.5.3-.8-.3-3.2 1.7-1.6-.4-.7.5-1.5-1.2-.2 2-.7-.2-.8-2.2.1-1.4h.6v-.5l.7-.3-.3-.5-1.4-.1.1-1-.7-.9.5-1.2-.5-.5-.5.1-.4-1-1 .4-2.3-1.2-.8-1.6.2-.5-.9-1.3-.6.1-.8-1.2 1-1.2.9-.1.4.6-.4.5 1.1 1.6 1.4-.3 2 .8.8-1.4.7.3.2-.4-1.8-2.5-1.4-1h-1.3l-.8-1-.8.1-.3-.5.7-2.1.5-.1v-.8h.3l.7-1-.6-1.8.7-.7-.3-.4.4-.4-.1-.8-1-.8 3-3.9-.6-1.5-1.1-.3-.2-.9.4-.1v-1.7l-1.5-.9 1.2-2-.6-2.6 2-.7 1.4 1.6 1-.2.3-.9-.4-1.2 1.1-1.6-.2-.2h1.7l.4-.4v-1h-.7l.2-.6-.8-.7.4-.9-.3-.3 2.1-.4 1-1.7 2.1-1.4-.3-.4 1.1-1.7-.6-1.5.2-1-2.4-1.3.5-.8-.7-1.3.5-.4-.3-.9-2.5.3-.7-.8 1-2-1-1.5 1.7-.9 1.8.4 2.2-.8.6-.9 1.8.3 1.1 1.2 2.1-1 .6 1 .5-.6 1.5.6 1.5-1.3.6.3.9-.5 1.3.9 2-.2 1-1.1-.1-2.1.8-.9 1 .3 2-1 1.7.2 3.4-2.4-1-.7.8-2 2.5-.2.8.5.6 1.2.2.5v.4-.6l-.1-.3v.1-.1l-.1-.3-.4-1 .6-.6 2-1.8.8-.3V593l1.4-3.7.3-.8 2-2 1-.2.3.6.6-.3.6.3-.5-.6 1 .2v.4l.2-.4 2-.1-.2.4.5-.3.6-.3.5.3 1 .1.2.5.8-.3v-.4h-.3l1.2-.1 1.2.5v-.5l1.5.2v1l.7.2.2-.3h1.7v-.4l.7.5 1.6-.3h1.5v.5l.1-.6.7-.2-1.7-.5h-.6l-.7.2.7-.5zm-3.6 90l-1 .8-.7-.3-.6-.2.3-.7.5-.4-.3-.8h1.1l.3-1.3h.5l2.8-.3-1.2 1.8zm2.6-13l-1.8.1-.3-.3 1.8-1.8h1l1.4.5-.6.8zm-3.2-75.6h-.7l.6-1.3 1.7.9-.4.2h-1zm-1.2 87.6l-.7 1.2-.5-1.3.8-.6h.3zm-5.6-89.5l2.2.6-1.4.1-.7-.5-.6.5v-.6h-.8.7zm22 70.8l-.6.8-.7-.4.2-.4zm-18.4 10l-.6.3-.7-.4h1zm-2.2.3h-.9l.5-.8zm20.4-9.8l.3.1h.1l.2.3v.2h-.2l-.2-.3h-.3v-.1zm1-.3l-.3.1-.3-.6zm-.6 0v.4l-.3-.1v-.1l.2-.3z"/><path id="E15000008" d="M609.9 637.3l-.1 1.7-.4.1.2.9 1 .3.7 1.5-3 4 1 .7v.8l-.3.4.3.4-.7.7.6 1.8-.7 1h-.3v.8h-.5l-.7 2.2.3.5h.8l.8.9h1.3l1.4 1 1.8 2.5-.2.4-.7-.3-.8 1.4-2-.8-1.4.3-1-1.6.3-.5-.4-.6-1 .1-.9 1.2.8 1.2.6-.1 1 1.3-.3.5.8 1.6 2.3 1.2 1-.3.4 1 .5-.2.5.5-.5 1.2.7 1-.1.9 1.4.1.3.5-.7.3v.6l-.6-.1v1.4l.7 2.2.7.2 1 2.6-.8 1.2.5 2-1 2.5 2 .7v1.1l2.6 1v.8l1.3-.1 1.2 1.2h.4l.4.9-1 1.8.2 1.4.8-.6.9-1.8.9-1h.6v.9l.7.2.4 1.1-.5.6.6.4.7-.9 1.3.9.3 1.8h.7l.5.9 1.3-1 .5-1 1-.3.6-1 1.6.6.5 2.4.7-1 .3 1 1.7-.1v-1.5l1.3-.8v-1h.7l.6-1.4-.2-1.5h.6l-.5-1 .3-1.4.3.1.3-.9 1.2-.7.7-1.5 2 1.5 1.2-.4.5-.3.4 1 2.2.4 3-.8-.1-.2v-.3h.4l-.4-.2.5-1 3-.2.3.3.8-.2.3.3.1-.3.2.1 1 .5 1.7-.2.5.4h1l.9.8.1 1-.4.5-1.4.1-.3-1v.4l-.5-.4-.8.2-.7 1.1.3.3-.6.4h-1l-2 .3-.5 1.2.6-1 1 1 1 .3.3.1.8.6.1-.7h.6l.3-.4.7.2.5 1 .6-1h.6l-.3.8.7-.3.2-.3-.6-.4-.3-.8h.4l-.4-.7 1.3-.3.1.3-.6.2.4 1 1.5 1-.3 1.9.4-.6 1.9.3 2 .2h.2l1 .7v.4l.3-.3 1.8-.2 2.4-.4.8-.8 2.5-.5 2.4-.2 2.6-.2 1.2.1 1-.2.7-.2.6.1 2.5-.6.4-.1h1.4l.9 1v.5l-.4 1.6-.5 1.1v-.3l-.4.5-1.5-.4-.4.3-.1.7.3.1.3 1.4.6 2 .4 1.5v1.8l-.3 2.6-.7 1.3-1 .5-.4.2-.8.4h-.2v.1l.1.3.1.2h-.4l.6.2-1-.1h-.1l-1.3.7-1.8.1-.1.2-1.3 1 .4.3-3.8.5-.3.2h-.6l-.8.8-.9.4-.3.5-1.1 1-.5 1.2-.2.3v.3l-.5 1.5.4 1.6.2 1.3v.4l-.2.2-1-.1-3.7-.7h-.4l-2.8-.4.1.2-1.7.8-.9 1-2 1.8h-.2l-.7.3-2.6.8h-.4l-2 .5-5 1.4-.2.2-.2.2-1 1-.4.6-.3.4-.6.3-1.6 2-.3.4h-1.9l-2.4-1.3h-1l-2-1.3h-.2l-.4-.2v.1h-.1l.1.4-.9-.4-1.9-.7-.9-.4-2.1-.7-.6.2v-.3l-.5-.2h-.4l-.2-.2-3.2-.5h-1.1v-.2h-.2v.2l-.4.1h-.7l-.7.1-1.4.4-1 .5-.8.2h-.9l-4 .3h-1.5l-.2.1h-.5l-3.6 1-1.9.4-1 .4-.6.4-.4.4-.3-.6v-.1h-.8l-.2.6.5-.1.4.6.4-.4-.6 1-.8 1.1h-.2l-1.8-1.7-.1-.1-1-.6-1.9-1.1.2-.5-.2.5.5-.1.5-.8.5-.8.5.2.8.3.8-.3.3-.9-1 .9-1-.5.1-.4.2-.5v-.8h-.4l.2.8-.4 1-.6-.5-.1-1.2h-.8v.7l-.2-.4-.6.2.1-.8h-1.6l-.3.5-.8-.5h-.7l-.2 1-.5-.5-.3.2V724.5l.5-.3v-.1.6l-2.2.6-.2-.2-.6-.7V723.5l.8-.2-.2-.3-.3-.8.7.2.3-.8 1.2.2-1.5-.3-.2.6-.7-.6.1-.5-.4.1h-.1l.1.6-.5-.1-.9-.4h-.2v-.1l-.8.4.9.2.1.5 1 1.3-.5.3.5-.2.2.5v.2l-.6.5.9-.3-1.1 1-.4-.2-1.6-.8-.3-.4-.6-.8h-.2l-1.4-.7-2-1.2.2-2.4-.1.1-.4.3v1.5l-2-1.9-.7-.6v-1l.4-.5-.6.4v.5l-.3 1-.1-.8v.3l-1.3-.9-.3-.2-.4.3-.6-.5-.5-.9.2.7-.1.2 1 .6.7.3.4.1 1.8 2.6.9.3-.3.3.4-.2.6.6v.6l.6.2-.2.3v.2-.1l.4.1v-.3l.2.3v.1l-.6.6-.1.2-.2.2-.8.9h-2.3l.9.3-.3.2-1.5.5-2.6.8h-.7l-.6-.6.3 1.2-.4.1.2.4-1 .9-.7.3.8.5v-.2l.2.3h-.2l-.9-.5-.3-.2-.3-.1h-.1l-1.8-.7-1.9-.3.3-1-2.4.3.2-1-.4-1-1.5.9-1-2.5.4-1.5.5-.4-.5-.4-.1-1.2-1 .5-.8-.2.1-2 1.3-.8.2-1.5-1.2-.3-1.2 1-1.9-2.8-1.3-1-.1-.6.3.3.8-1h1.7l.4-.5v1.4l.9-1.3.6-.3.8 1.5.6-.4 1.8.9h1.4l2.2 2 1-.9.5.3.8-1.5-.6-.2-.4-1 .9-.2-.1-.5.4.1v-1l-1.3-.5.2-2.8-.4-1 .4-1.5-1.4-.6.3-1.8-.7-1.4.2-.7-1-.9.1-.6 2.2-.2 1-2.2 1.2-.2 1.3.7.3-.2.3-.8h-.4l-.1-1.3.8-.3v-.6l-.5-1.3.3-1.4 1.1.6.5-1.1-.6-.6.2-.8-2.3-1.6v-1l-.6-.3.2-.4 1.5-.1.1-1.5-2.3-2.9v-2l-.8.5-1.7-3.4-.3-.3-.8.5-.6-.9v-1.4l1-.7-.3-.4.5-.7-1.2-1.1-.2-1.9.6-.5.5.6.8-.2-1.6-1.8-.3-.7.3-1-.5-2-.7-.8 1.4-1.3-.1-1.9.4-1-.4-1 .7-.7.4-1.2 1-.2-.5-1.5 1.1-1-.6-1-1.2-.6-.1-1.5 2 2 .9-1-.4-.3.8.2 1.2-.5-.3-.6 1.3-.1 1.4-6.4.4-.5 1.2.2-.2-1 1-.3 1.6 1.5 1-.4-.4-1-.9-.1 1-1.1h.7l.7-2 3.3 4.5-2.9.6.1.5h.8l-.6 1.8 1.4 2.3-.2 2.2 1.6-.4 1.7.6 1.4-1 1.1-.3.6-1.2-.7-.4.6-1.4 2.3-1.2h1.4l-.6-.7 3 .2.5-.7 1.7 3.8.7-.6.4.2.4-1 .7-.4-.4-.6 1-.2.2-.5-.6-1.3-.9-.5v-.8l-.6-.1.2-.8 2-.3v-.8h.6l.5-1 .4.5.5-1.1.5-.1.1.4 2.4-1.9h1.3zm-26 89.4l.4 1.5-.3-2 .7-.2 1 .8.3.6 1 .3-.2.4.3-.2h.3l1.7.1.4.1 1.2.5.6.8.2.8-.2-.1-.2.4 1-.1.5.6-1 1.2-1.5.2-.7.5-.3.2-.6 2-.4 1.3-1.3.4-3 1-3-2.7-.6-.5-1.8-.9-.5-.2-1.5-1.4-4 .2 1.5-.9.2-.2.9-1.6h.7v.2l.1-.1h.5l.2-.1.5-.1 1.4-.9.3-.2h.3l.1.1h-.2l.4.3-.1.6.4-.6.7-.1-.9-.2.6-.3 1.5-.5 1.1-1.4.4-.3h.3l.5.2.1.3zm85.7-41.1l1.9 2.7-2.1 1.2-1-.5-.5-.2h-.8l-1.3-.4h-1.5l-.1-1-1.3-.9-.4-.8.4.3.4-.2-.2-.7.3-1.4 2 .5 1.1.8 2 .4zm-72.3 36.8l-.3 1-.1-.2h-.4l.3.2h-.4l.2.3.6.1-.3.4-.2.5h.6l-.3.4.8-.4v.5h-1l-2.3-.5-.1-.5 1.2-.2.3-1.8.7-.4zm1.7.4l-.2.9-1.2-.8.1-.9 1 .2zm62.3-37l.2 1-.9-.1-.2-.6zm-.2-.6l.1.4-1-.2.1-.3zm-4 1.2h-.9l.2-.3zM591.7 723h-.3l.2-.4z"/><path id="E15000009" d="M438 760.2l.2-.1v-.5l.1-.3.7-.3h-.3l-.3-1 .2 1-.5.3v.4l-.1.6h-.1v-.2l-1 1v.1l.5 1.2-.3.7h-.1l-.8-.4.5 1 .6-.3.3.7-.4-.3-1 .5.1.1-.2.2-.4.6.4 1-.5.5-1.6.2-.2-.5-.2.6h-.5l-.3-.3v.3h.2l.1.1-.6.2 1.7-.2h1l.4.3-.4.2h1.1v.2l-.1.9.7.8.1.2-.3.8-.1.2-.2.1-1 .5.3.6-.4.7-.8-.3-1.6.2v.2h-.1l-.7 1.3-.1.1v1l-1 .2-.3-.5v-.2h-.3l-.7-.3v-.5l-.3-.4v-.3l-.3-.2-.2-.2.2-.6v-.1l.2-.4-.2-.3-.1-.4v-.1l-.7-.6v-.8l-.5-.6-.9-1-.6-.3-.3-.2H425.7l-.5.1h-.1l-.8-.7h-.4l-.7-.1-.1.2-.6.2v-.5l-1.3-1.1h-.8v-.2h-1.6v.1h-.1v.4l-.2.2-.3.2-.2.2h-.2l.7 1.2-.9 1.7-.3-.1-.3.3-1 .3h-.9l-.4.4-.5.2-.2-.1-.6.3-.5.2-.3-.1-.1-.2-.3-.8-.4-.2-.5-.7.6-.8.5-.5-.9-2.3 1.5-2.3 1.2-.1h.5l1.1-1.6.4.3 1.2-1 .8-.7h.4l1.3-.1.4.2.3-.2.3.8v.3l1.3.4h.1l.9-1 .6-.7v-1.2h.8l.1.2H426v-.1h.3l.3-.4 2.6-1.9.1-.3h.3l.6-1.1v-1.1l1.3-.2.8-1.2h.2l.9-.3.2-1.8-.2-.5v-.4h.4l-.1-.5-.1-.4.5.2v-.4l.3.2.7-.3h-.4l.4-.2h.3v-.8l.2.1.5.6 1.1-.8.5-1 .3-2.2v-.9l-.5-.2.6-.7h.4l-.3-.4V741.1l.2-1.1-.4-.3v-.4l2 .5 1.1-1.4.2-.2v.7l.6.6.2 1 .7-.3-.5-.6-.3-1.2.7-.7-.5-.4-.3-.3.5-.4.3.1.2.5h.4l.5.1.2-.1.5-.3v-.2l.4-.2h.6l.3.1 1.4-.3h.1l1-1.5.5-1.8-.2-1 1-.3.1.1.2-.1.1-.7 1.8-.7v-.5l1-.7v-1.5h.8v-.4l.4-.4 1.5-1.1.6-.4.1-.1.2-.2.2-2.9h.3l-.2-.5-.1-.7v-.4l-.3-2.1-.2-1 .2-.4.6-1h.2V714.5l.1-.1.4-.8V712l.2-1.8v-.2h2.3l1.7.6 2 1.4h1.3l.6-.2.6-.1v-.1l.4-.1.7-1 1-1.4.7-.3.8-1.4.3.7.5-.3.2.2.5.4v-1.2l1.1-1-1.2.4-.4.8-.9-.7-.3-2.6-.7-.2v-.8l-.4-.2-.4-.4h1.5l.2-.5.2-1.7-.2-.1-.2-.2-.3-.3.7-.1.4-.6h.1l.9.1 2-.9h.3l.8.1.3-.4 2 .7.4-.6.9-.1 1.8-.1 1.3-.8 1.3.5 1.7-.7 1.4.2 1-.9.7.5 1.8.3h.1l3.4.6.3.3.1.1 1.7-1h1.4l1.8.6 1 1h1l.5.5 1.2 1 5 .2 2.8-1.3.9.1 1.3-.5.6-.2 2.1.6 1-.1.9-1h.4l-.4 1.3-.9.7 1-.4.4-1 .7-1-.2-1.2-.7-1.3.4-3.4-1-.5 1.4.4h.2l.3-.8.2-1-.5-.3 1-.5.3-.7v-.5l-.7-.4.3-.1 1.3-.4v.4l.8-.3 1.2-1 .3-1.3.6-.6 2.5-2.7 1-.6h.1l1.5.1.2-.6 1.4.8-1-1.2.4-.5 1.3-1.7.4-1.8 1.4-2-.4-.3-.8-.5.1-.3-.4-1.4-.5-.2.5-1.1-.7.1 1.1-.7-1-1.7.5-.3-.7-1.5.6-.4.4-1.1-.7-1 .4-1.6-.3-.5.7-.5v-.8l.4-.2.5-1 .4.2 1-1 .7.3v-.7h2l.9-1.5.8.3 1.9-1-.4-1.4-.7-.6v-1.5l-1.3-.6.3-.2v-1l.9-1-.9-.8.7-1h.4v.6h1.1v1.1l.6.2.9-.1.2-1.1 1.6-.5v.5l1 .6v1.8h.5l.5.5h2l1.1-1.8 1.4.3.2-.6.6.3-.9-1.5.4-.2-.1-1.3.7-.5 1.8.8-1 .7-.4 1.3.4.5 1.2-1 1 .3 1-.3.4.7h.4l2.2-2 1.2-.2.8.5.7-.9 3 2.4.5-1.5-.4-.9-1.1-.6-.5-1 1.1-.6.6.4.5-.8.2.4.4-1.1 1.4-1 .8 1.2.7-.4v1.7l.6.4.5-.4-.2.8.7.5-.2.8 1.1.5 1.6-.4.3.3-2 2.3v.6l.2 1.5 1.2.5.6 1.2-1.1 1 .5 1.4-1 .2-.4 1.2-.7.7.4 1-.4 1 .1 2-1.4 1.2.7.8.5 2-.3 1 .3.7 1.6 1.8-.8.2-.5-.6-.6.5.2 1.9 1.2 1-.5.8.2.4-.9.7v1.4l.6.9.8-.5.3.3 1.7 3.4.7-.4.1 2 2.3 2.8-.1 1.5-1.5.1-.2.4.7.4-.1.9 2.3 1.6-.2.8.6.6-.5 1.1-1.1-.6-.3 1.4.6 1.3-.1.6-.8.3v1.3h.5l-.3.8-.3.2-1.3-.7-1.1.2-1 2.2-2.3.2-.1.6 1 .9-.2.7.7 1.4-.3 1.8 1.4.6-.4 1.6.4.9-.2 2.8 1.3.5v1l-.4-.1.1.5-.9.2.4 1 .6.2-.8 1.5-.4-.3-1 .9-2.3-2h-1.4l-1.8-.9-.6.4-.8-1.5-.6.3-.9 1.3V711l-.4.4-1.7.2-.8 1-.3-.4v.6l1.4 1 1.9 2.7 1.2-.9 1.2.3-.2 1.5-1.3.8v2l.8.2.9-.5.1 1.2.5.4-.5.4-.3 1.5 1 2.5 1.4-.8.4 1-.2 1 2.4-.3-.4.9h-.6l-.4.1-.3.1h-.1v.1l-.5.5-.6-.4-.2.3v.1l-.2-.1.2.4.6.2.2-.3-.3.6-2.6-.6h-.5l-.9.3-1.9.4-.4.3h-.2l-.8 1-.4.3.5-1-.7-.3.2-.3-.4-.4-1.4.2.4-.5-.5-1-.2.2-.4.4.4.5.6.7-.6-.2-1.5-.5.6-.7h-1.2l.3.5.2-.3-.2.7h-.6l-.4.5.6.1h-.6l-.4 1.2h.7l.4-.8 1.1-.5.3.4h-.6l.4.8-.9.6.9-.4-.1.4.2-.2h.4l.2.3h.2l.2.6.7-.6-.3.4.4.3 1-1v.1l.3.4-.2 1.4v.3l1 .2-1.3 1.4v.7h.4l-.3.8-2.9.4-1.1.7-.2-.5-.2-.5-1.8-.3-.9-.9-.5.3-.4-.4h-.6l-1-.5h-.2l-1.4.4-1.2-.2h-.6l-1.5-.3-.6-.5h-.2l-3.1-.1-.7.5-.2.5-.2.3.4.2-.4.4h.1v.1l.6.3h-.2l-.4-.3-.1.1-.8 1-.6-.4-.2-.3-1-1.4-1.2-.4.2-.4h-.5l-.1-.5-.3-.1-1.7-.8 1.7 1.4 1 .8 1.5 1.3h.1l1.6 1.6 1.5.1-.3.2.5 1-.3.5-.7.9-.6.8.2-1.6.1-1.2-2.1-2.3-.8-.6-.7-.7-.8-.5-.2-.2-2.3-1.9h-.3v-.1l-5-3-3.5-.9-1.1-.3h-.4l-.8-.2-.2.1h-.2l-.2.2-.8.6-.3.3-.5.2-2 .7-2.4-.2-.6 1H510l-.1.1h-.1l-1 .3-1.5.4-.9.7-.9 1.8-1.7.7h-.2l-.3.6-.2.3-1.1-.3-.8-.2-.6-.3.4-.6-1.3-2.7-.1-.4-.2.3-.5-.4v1.1l.7 1 .2 2.3v.5l.8-.5-1.5 1.8v.1l-.1.1v.8l-.3.4-.8.8v.1l-.6-.2v.2l.5.3-.4 1.3-.3 2.2 1.4 1-1.4.7-.8-.6-.8 1.3v2.2l1.4.2.3.3.3-.1-.3-.4 1.2.4-.8.7.2.3-.3.2h-.1l-.5 1.3.2.3v.2l-1.1 1-.3-.3-.8-.6v.2-.1l-.3-1.7-.6-.4.5.5-.1.8.8 1.5-.6.6-1.3.5-1.1 1.6-.7 3.3.5.7.2.3h-1.6l-1 .8-.6.4-.6-.8-1.4-.6.4-.7.8-.3-.5.1.3-1-.4.2-.3-.5.3 1.2-.5.5-.4.2v.2l-.1.8-.1.1-1.4-.3-.7-.6-1.1-1h.4v-1.2l-.9-.9v-.4l-.5.1-.2-.1v-.2l-.4-.4h-.3l-.2-.2h-.8l-.2-.6.3-.5-.6.5h-1.3l-1 .2v.2l-.6.3H476.2l-.7-.6.5-.3.6-.2-3-.4-.1-.8-.1-.5v-1l-.3-.1h.8l.5-1.5-.6 1.3-.7-.3v.2l-.8-.1-.4.3-.1-.4h-.8l.2-.6-.5-1-.2-.1-.2-.5.4-1v-.3l.2-.2.2-.4-.6-.7v.6l-.9.6h.5l-.2.4v.3l.3.3-1 1.2.4-.2.8.3.3 1h-.1l-.5.2.2.2.3.4-.5.7 1-.7h.3l.4.4v.3l-1.3.8.4 1h-.8l-.5.4v-.2l-.1-1-.3-.2-.7-.5-1.2-.9-1-.1-.4-.2h-.8l-2-.2-1.9.3-.5.6-.2-.3.2.5-1 .9-.8-.3-1.6.8-1.6-.5-.8.5-.3-.3-1 .3-.2-.3.8-.3-.5-.3-.3.3-.7.7h-.5l-.2.5-.4-.3v-1.1l-.4-.6-2.4 1-.4.6v.1l.5 1.3-.4-.1-.7.6v.4l-.2.9h.1v.4l.6.5-.4.3-.3.2.2.5-.7.5v.2l-.1.3-.4-.4-.2-.2-1.8-.3-.6.7-1.6 1.7-.5-.6-1 .3-.6 1-.3 2-1 .8-.4-.6.1-.1.7-.7-1 .3h-.2l.4-1.6h-.3l-.4-1.3zm-48.6 17.6l-.1.2h-.2v.2h-.7v.5l-.4-.6-.3.3-.2-.2.7-.3v-.1l-.1-.6.5-.5.8.5v.4zm62.8-76.2h-.1l-.2-.4V699l.9 2.4zm-64.4 74.6l-.6.3-.3-.8-.2-.7 1 .7v.1zm1-2l.2.7h.4l.6.2-.8.4h-.2l-.5-.5.2-.7.1.1v-.2zM558 730.6l-.5.3-.8-.4.5-.3zm-171.6 48.5l.6.2h.3-.3l-.2.7-.4-.7zm.1-3.4l-.3.5h-.1v-.1l.1-.1-.1-.1v-.4l.1-.2-.1-.2.5.5zm169.3-45l-.3.3-.1-.6zm-106 .4z"/><path id="S15000001" d="M446.8 197.8l.2-.7.2-.2v-.3h1l-.8-1.5.4-.2.3-.1.4 1v.2l.4.1.4.2.1.5.2.7v.1l.7-.3.5 1 1 .6 1-.1-2 3.8-.3.3-1.6 3.3.7.1.4-1.1 2.4-1.3-.2-1.1 1-1.6.3-.2.7-.2-.1 1 1-1.8v-.2l-.2-2 .3-.8.3-.2h2.9l.5.3.2.4 1.4.5v1l.2-.2.5-.4h.1v.1l.4.4-.2 1.5.4.2v.1l.4.2-1.2 1.3-.6.7.2-.1-.2.2v1.9h.3l-.3.4-.8 1.7 1.2-1.8v-.8l.9.1-.3-.5-.7.1v-1l.2.5.3-.5-.6-.2.6.1-.2-.3h.1l.3-.2h.4-.3l.3-.1.2.1v-.2.3l-.8.4h.6l.4-.5.3-.4.7-.3 1.2-2 1-.3.3.3.6-.5.4.2 1.3.8v.4h.9l-.1-1 1 .6v-1.5l1.5.7.8-.5v-.2l.2-1 .7.1.2-.4v-.1l1.3 1 .2-.3.3.2.3.5v-.3l.1-.7h.1v-.1h.2l.2-.3.4-.2.2-1.4h.7l.2-.8.6 2.8 1.9-.8.4.5h.1l.4-.4.3.4.8 1.2v-.8l.4-.4.7.2.5.1h.2l2.3-.7.8.7v-.3l1.6-1.6.6-.5.2-.1 1.8-.7v-.2l.5-.8 1 .4 1.1-.2 2.6-.4h.1v.1l-.6 1 1 .8.5-.2v.4l.6-.7 1.3-.6h.2l3.2 1.2.2.1.7-.6.2-1.2-1.2-.8-1-.6-.3-.3.3-1.5.7-.5.2-.2.2-.1.9.6.4 1.3h.1l1 .2h.2l1.3-.7 2 .3.8-.5.6-.3.8 1 .3.6.2.1 2.2-.7 2 .1 1 .1-.5.7v.2l-.3 2.5-1.1.5.5.8-.3 1.3-2.3 3-.2.3v1.4l.4 1.4v.2h.1v.2h.2l.3.2 1.2-.2h.9v.2l-.3 2.4h-.9v.2l.4.5-.4.7-.2.6-.2.3-.6 3-1.8 1.5-.4.6-2.2 2.8-2.7.6-.3.6-2.7 1.1-.6.3-.2.3h-.1l-1.3 1.5h-.2l-3.1 5.5-4.1 3-.4.7-.5.3-.9.4-1.3 1.4-.2.3-1.9 1.5-1 .4-.1-.1-.7.4-.5.2-1.1 1.3-.6 2.4-1 .7-3.6 1.7-.7.3-1 2.7-.7-.1v-.1l.7-1.3-.7.3-.7.4-.3-.8-1.1.2.5 1.1 1.4.7h1.2l.4 1.8-.8.9v2.3l-.5-.3-.4-.3h-1.5l-1.5 1.4-.3-.5h-.8l-.2-.1v-.3h-.6l-2-.9-2.8 1-2-1.5 1.8 1.6 1 .3 2.7-.6 1.2 2.1 1.7.3-.7-1 3.7 2.1.8-.6 2.4-1.7 1.2.9.4-.3 1 1-.7-.3-1.4 1 1.5-.6 2-.1 1.2-.8.6-1.9 1-.3.6-.2-.9 2.3-2 3-1 1.4-1.8 1.7v.3l-2 3.6-.2.3H476.9v-.2l.4-1.6.3-.3.4-.4v-1l-.4.3-1.3.7H475l-3.2 3.1-1.2-.3-.4-.1-2 1h-.6l-.2.5-.7.3-.8 1-.6.2-1.9 2.2-.5 1.2-.6.7.4-.4-.2.5.4-.4v.4l.3-.8.1-.1h.1l.3-.3v.1l.2-.2.3-.3v.3l5.3-4.3 2.3-.4v1.4l3.1-.6 2-1.4.3.1 1.1.3v.5l-3 3.7-.7.6-.3.4-.4 1.3.8 1.1-1.6-.3-.1.1h-.2l-1.3.8-.5 1.4-1.6 3-.3.4-4-.6-1.8-.2.7.6h-.2v.4l-.7-.5-.3.4 1.5.3-.6.1h1l.3.2-1.3.4 1.3-.4v.1l-.3.2h.6l.1.1 1.6.3 1.8-1h.3l.5-.1 1.2 1 .5-.2 1.2-1.1v-1.3l1.4.2.4-1.4 2.4-1.8-.3-1.3-1.1-.4.7-.6 1.6-.1.3-.5 2.6.8.5.2 2.4-.3.8-.7.6-.1 1-1-1.4 1 .2-.3 1-.9.6-.5.9-.3.4-.2 1.6-1.4h.2l-.3.5.5-.2-.2-.4h-.2.1l3-.8 1 .5-.1 1.3.5-1.3-.7-.5h1.7l1.2-.1h.8l1.3-1.1.3-1.2-.3-.6h1.4l.2-.1 2.5-1 1.9-.4h2.5l-.1.5 4.2 2.1 2.3.7 3.4 1 .4.1.4-.2 3-1.5.4-.8.7-.2 1.6-.4h.5l.1.6.7.4 1.3-.6.7.6H526.8l.6.8 1-.8 1.3.7.4-.4.2-.1 1.2.6 1.6.2.4.1h.1v-.1l.3-.3.2.2.3.5h.2l.2.2h.4l1 .3h.1l.6-.5 2 .3.3-.1 1.5.1h.2l1.3-.5.7.5.3-.3.5-.3v-.3l1-1 .5.4.6.6.2.2h2l.6.3.2.2h.1l2.8-2.1 2.2.2.4.2.4.3 1.5-.5v.1l.3 1.2h.4l1.2.4.5-.4.4.2 1 1.4.6 1.8.5.3 2.1 1.3v3.1l.8 1v1.9l.2.3v.6l1 .5.2.3-.2.6-.4-.4h-.3v.6h.2l.1.2-.3.5h-.2v.2l.8.7v.4l-.3.3-.7.7-.2.6-.2.2-.3.5v.4l-.2.7-.3.4-.4.2-.3-.3-.6 1.2.2.7-2 1.7-.5.7-2 2.6-.2.3-.3.5-.5 1.3v.2l-.6 1.1-.4 1.1-1.3 3.3-.6 2.4-.1 1.9v.9l.6-.2.6.3-.5.4.4.3-.8 1.9h-.1l-.2.7h-.1v.2l-.2.3-.3 1.3-2.7 3.6-.6 2.8-1.2.8.7 1.2-.4.2.2 2.7v.1l-.8 1v.6l-.4 1.2-.3.5-.2.3-1.1 1h-.3v1l-.6.2-1 1.9-.5.3-1.1.7-.7 1h-.4l-.5-.1h-.1l-.8 1.2v.1l-.1.1-.6 1.7-.5 1.9-.5.1h1l-.4 1.4-1 .8h-.3l-1.1 1.5.3 1.4.5.1.3.2v.3l-.2.4-1.2 1.7-.1.8-.6.4v.5l-.2.2-2.5 1.1-1.2 1.7-.6.4-2.5 1.8-.7 2.2-2.4-1.1-1.7.4-1.2.8h-.4l-1.1-.3H520.6l-2.3 1-.5.1h-1.9l-.6-.5-2.9 2-3.8 4.1-.8.3h-.4l-.4.1-1.3.8-.2.1h1.6l-.6.2 1-.3h1l1.5-.8 4.8-2.6 1-.9 1.9-.3.6-.5 2.1-1.7h1.6l1 1 1.4-.5.6.4-.8 4.2-1 .7-.6.4 1.2.7.5-1 .8 1.2v.3l.5.5.4.5 1 .1 2.6.6.2.3h.7l.5.7.7 1 1.7 1v.2l-.3.4-.3.5-1 .5-.7 1-1.1.8-1.3 1-1.5.6-1.4.5-.7.8-.5.5-.2-.5-.6.4-1.4-.2v-.2l.1-.2-1-1-2-.4-1 .7-1 .7v.3l-1.8 1.4h-.2l-.3.4-2.2 2.3-1.1.8h-.4v.3l-.1.1-.9 3.5h-1.7l-.6.6h-.2l-.5-.5-1 .3-.4.2-1.4 1.4-.6-.3-.5.6-1.2.3h-.3v1.4h-.1l-.8-.8h-.2l-.8-.5-.2.5-.5-.2-.3-.7-1.6-.3-.6-.5H495.8l-1-1.2-1.2.9-.4-.7-1.4.3-1.3.2h-.2l-1.8-2-.3.4.5.8.4 2.4 1.4-.8.4 2 2.8-.8h.3l2.9 1.2.4.1h.1l3.3.6 1.4.2 1.5-.8 1 1.1 1.6.3.9.2 1.1-.5h.2l.4.4h.8l.6-.8 2.6 2.4 1.5.7 1-.1.2-.3H516.9l.3-.2 1.5-1 1.7-.3.8-.5.6-1-.2-1 1.9-.3-.9-.6v-1l1-.3 1-1.5 3.1.1 1.1.2.3-.1h1.5l.7.3.8.6.3 1 .7.4.5.4-.3.7-.3 1 2.7-.6h.6l.7.3 1.3.9h.7l1 1.3.4-.1h.2l.4 1 .3.3.5.3.3.2 1.3 1 .4.1 2.4.4 1.4-.6 1.9 1.1h1.4l.1.6.2 1.1.1.1v.5l.6.1.4.4h.5v.2h.4l.3 1.2.1 1 .4.6 1 1.5-2 1.3v2.2l-.9.1-.4 1.5h-1l-.2 1-1 .4.3.8-2 2.1v.8l-1.2.9.6.7-2.8-.4-1.2 1 .5.5.6-.2-.3.6 1 1.1v1.6l2 1.7.4 3.2 1 1.4v1l1.5.4-1 .5-.2 1.2-1.4 1.1-1.1-.3-2 1.8-1-.1-.3.6.6 1.2-.7.6.4.4-1.7 1.2-.8.1-.6-.7-2.3.3-1.8 2.1-1.5.4-.5 1.4-1.4 1-.7 1.4-.8.2 1.4.8-.8.2v1.4l-1.4.2-.9 2.2-.5 1-3.2 2.2-1.6.3-.7 1.8-1 .4-1 1.9-1.7.6v.6l-.8.7-3.6-.2v.4l1 .8-1.4 3.4-1.2.7h-1l-1.2.8-2.3-.9-1.3.6-.4-.3-.6.4-2.5-.9-1.5.6-1.5-.3-1.2-1-1.3 1.5-2 .2-1.5-1-.1-.4-.5-1.5-.6.6.6 1.3-.4.2.4 1-.5 2.4.5.1h.2l.3 1.2-1.2 1.6v.7l-3.7-.4-.2-.4-1.3.3-.6 1.2-1.7.7-.3-.8-.7-.5-.3-1-.2 1.7.7 1.1-1.5-1 .4 1h-1.1l1.4 1.4-.1.2-.7.5h-.4l-.1.3-.3.1-1.8 1-.9.4-1.4 1-.4.3-.8-.4-1.6.3-.3-.3-.4-.6.7-2.2-.4-.7-.7.8.4-1.3-1 1.3v2.2l-.7.2.7.3-.2.6-.4-.1-.2-.1v-.6h-.4l-.2-.2.1-.5-.6.8-.7-.2-1-1v-1l-1-.3-.2-.4-.3-.7.3-.5-.5-.3.9-1.8-1 .2-.2.8-1.1 1-1.3-.3-1.5-.7-2-1.7-.2-1.3-.4-.5v-.9.5l-.4 1 .5.1-1 .5-.3 1.3.3.2.4 2.5 2.3 1 .5 1-.3.5-.8-.2.3 1-.4.4.4.2-.2 2.8v.4l.4.3.2.3v.4l-.4.8h-.2v.3l-1 1-.5-.2-3.1-1.6-1-.5-.8-.7h-.2l-.3-.2v-.6l-1.1-.3-1.2-2.7-2.8-1.5-1.4-1.7-2.6-.5-.3-.2-.9-1.6-.2-.4-1.7-.4v.9l-3 1.6-1.1 2 1.7 4.1.2 1.6.2 1.3 1.6 1.3-.6.8-.1 1 .3 1 .6.1.3.1-.5.2-2-.5-1.9-1.5-.3-1.8 1-.7-.7-1.2.3-.7-1.3-.4v-.3l.2-.7-.7-.4.2-.6-.4-1.3-1.3-.6-.4-1.2h-.1l-1.4-1-1-1-.3-.4-.4-.4-.4-.5v-.8l-.8-1.6-.6-1v-.2l-.2-.8.2-2.4.1-.5-.3-.7.8-1.8.3-.4.8.1.3-.1 1.2-.6 1.5 3.4-.6.3.4 2.4 1.4 1.5.3-.3.4.2.7-.6v-1.2l-.3-.5-.1-.5v-.4l-.2-.2-.3-.8-.6-.3-.3-1.5v-.1l-.8-1.9.2-1 .2-1 1-1.5.5-1 .7-3.4.4-.4 1.6-1.2 1.2-2.3.2-.2 1.6-1.4v-.2l.2-.2-.2-1.2.2-.5.3-.5.6-1.3v-.8l-.3-2.4.6-.6 2.2-1.8v-1.4l.2-1.5.2-.3.8-1 .8-.6 1-.4 1.7-.4v-.2l.3-1.7.6-.5.4-1.2-.4-1.7-2.2-2 .3-.2h.1l.7.2V412.8l-.5-1.2-1-1.1-.3-.3-1.5-.9-.3-.2-.2-.5h-1.4l-.3-.5h-.9l.3-.6-1.9-2.5-1.1-.7-.4-.3v-1.7l1.1-.5.2-1-.2-.2v-.2.1h.1l.5.1v-.8l.1-1.1-.1-.4-1.2-3.2v-3.4l-.4-1.1 1-1.3-.3-.4v-.2l.1-1.7 2.3-1.4.5.3.2.1.1-.4h.6l.8.4.7.9.6-.2 1 .4.8.4.5.2h2.3l1.2-.1h.7l-1.7-.8h-.1l-1.8-1-.4.1-1-1.7-.3-.6-.8-.4v-.1l-2-1h-.4l-.2-.2v.2h-.2l.1-.8-1.2-2-.4-1.7-.4 1.3.6 1.8 1.3 2v.2h.8l.1 1H447l-1.3.2-.6-.4-.4-1.3-.1-.3-.5-2.6v-.8l5-10-1.5 1.6-2.8 5.7-1-.6.1-2.3-.7-2-.6.4.7 1.3-.4 2.4 1.4 1.8-.8 1.1-.8 1.3.2.8.4 3.5v.4l-2.4-1.2.6.6-.3.2 1.7 1.6-.1.3-.7 1.3h-.1l-.1.5-1.2 3.4-.2.4-.3 1.2v.2l-2.6-.6.2-.8-1.1-4.9-.2-.1-1.3-1.2-.6-2.6-.3.9 1 2-.5-.4 1.3 2.4v.4l.3 2.2h-1.4l-2.4-2-.2-.2-.6-2v.3l-.2-1v1.7l-.2 1.5-.8 1.1-.5.4-.1.5v.2l1.4 3.6v1h-.5l-.3-.7h-.2l-1-.6v-.4l-1.2.3-.2-.5v-.2l-.8.4v-1.6l-.2-.2-.6-.3-.6-.4-.1-1.2.1-.5.4-.5-.2-.3.3-1.5.2-.6v-.2l-.2-.2-.4-.5v-.1l.3-2 .7-1h.2v-.3l.5-.5.3-1.5.4-.7 2.9-3.5.2-1.7 4-2 .7-.7.9-2.8 1.2-1.2 1.9-.8 2.5-2.6-3.1 2.1-2 .6-.2-.9-.7.6-.1 1-1.2 2-.3-.3.3 1-.5 1-1.1 1-1.9.6-1.7 1.4-.8 2.2-1 .6-.4 1.3-.5.6-.4.2-.6-.5.2.5-.3.4-.3.2-.1 2-.5-.3-.1.2-.8 1.2-.1.2-.4-.3-.3.2-.2.2-.3-.2-.6-.9v-1.2l-.4-.2-.1 1.1h-.1l-.1 2.2-.1 1.3.2.5.6 1.2.4 3.5.7.6-.5-.1.5.9.2.4h-.4l-.3.4v.1h1.1l1.8 2.5.2.5.6 2v.2l.1.7-.3.7-.1.3-1-.1-1.6 1-2.2 3v1.4l-.4.3-.2 1.2-.6 1.6h-.1l.6 2.7.4 1.9-.4.4v-.8l-.8.2v.5l-.2.1.1 2.6v.2l-.5.1v.1l-.3 2.7v.2l-1.2 1.2-.1.1-.2 2.2-1.2.7h-.9l1 .7.6-.4.4.1.4.7.6 1.1.2 2.2-1.6 2.5-1.6 1.1H412.3v.1l-2 1-.5.1-1.6-.9-.3-.2.3-2-.2-.8v-.1l.1-2.2.2-.9 1.4-1.4h.1v-.2l.2-.5.9-.1h.2v-.7l.2-.5v-4.3l.1-1 .4-.9v-.2l-.1-.5-.3-2.2.7-.8h.1l.2-.8.6-2.4.4-2.4-.5-1 2.2-2 1.6-3.4.3-.5h.7l.1-.2 2.7-2.4 1.6-3.5-3.9 4.8-1.4.7-.2.2-1.3.8.3-.9.2-.2-.4-.2-.4-.1.5-1-1.2.6-1-1-.2-.9.7-3.4 1-1.4.4-1 1-1.7.8-.8-.3-.4-1.2.7-2.7 3-.1-1.4-.3-.2.7-2.3.2-.5.4-.6 2.3-3.6.7-.2.1-.2h.1l.3-1-1.3 1 1.3-1.8h-.1l-1.6 1.2 1.1-2-1.2 2h-.5l.5.5-1.4 2.4h-.4l.9-2.1-.8 1-.2 1h-.2l.1.1v.3H413.7l-.5 1-.6.4-.2.2.1-.2.4-.8-.9.9-.3.3-.3.2v-.1l1.6-3.8.7-1.2.7-.4.2-1.7 1.9-2.7h.6v.2l.1-.2h.8l-.2-1.1-.5.2-.2-.6.2-.5 2.1-4.2.3-.4-.3-.4-.4.3h-.3l-.2.4-.1.1-.4.4-1.3 1.2-.6 1.2-.2.5-.6.1.4-.6.5-.8-.4.1.1-.6h-.1v-.2l.6-.5.5-1.4.6-1-.2-.3v-.2l.5-.3.4-.2-.3-1h-.1l-.6-.4h.5l.4-.2.4-.4.4-.2.4.1.2-.4.8-.3h.2l-1-1-.4.8H417.3l-.7.8h-.6l.7-2.5-.3-.2-.1.2.4-3.5 1-1 .4.2v-.2l.4.1.5.4-.2-.3.4.1.6-.6.8-.2 1.1-.5v-.4l-1 .8h-.2l-.7-.2-.8 1-.7-1 .9-2.6 1.6-1.2-.4-1.6 1.6-1.4.2.6.9-.6v.4l2.2-.6h.3l.3.2.5.4.3-.3.2-.2 1.2.6.7-.1v-.5l.8 1.4h.4l.4-.6 2-.6.7-1.2.9-.4-.4-.3.4-.7.6.1-.4-.2 2.5-5-2 3.6-1.5.8-1.1 2.8-1.8 1-.7-.7-.4-.5-1.2.3-2.3-.8h-.6l-.2.9h-1.5v-.5l.2-.3-.2-.4v-.6l-.5-.6-.1-.1-.2-.1.2-.7v-.2.2l-1.1 1.9h-.1v-.7l-.8.5.1-.3 1.4-2.3h.3l.3-.6.3.4.4-.3.1.3v.3l.2.1.2.4.1-.2.2.1 1.8-.7 1.5-1.8 1.8-.2.2-.3h-.6l1.1-.7-2 1-1.4.1-1.6 1.5-.9.2-.4-1.4-.9.3.5-.7h-.4v-.5l.2-.3.7-.6v.7l.8-.5-.6-.6.7-1.5v-.1l.3-.5 1.4-1.2 1.1-1.3-.2-.6h-1l2-1.6.8.2.1.2 1.1-1.5h.1l1.6-.2 1.3.8 1.2-.2.4-.8 2.2-1 3.2-.6h-1.7l-5.9 2-.2-.5h-.8l.1-.5-2.4-.2.7-1.9 4.5-6.3.5-.6-.4-.9v.2l-.6-.4-.7.2-1.8-1.1-5.3-.3.2.6 2.7.5 2.8-.2.8.3.4.2 1.2.3-.2.6-2.5 3-1.2 1.3h-.8l.2.7-.7 1.6-.1.1.4.7v.2l-1 .4-.1.1-.4.9-.2-.7-.4-.2-.2.3h-.2l-.7 1-.9.6-.4.2.2.5-1.7 2-1.4.4-1.4 2-.5-.2-.2.5-1.2-.5 1 .7-2.1 3.8-1.3 1.2-.7.8-3.4 2-.2-.7-.2-.4-2-.9-.3.5-.4-.6-.2-.4 1.2-2.1-.3-.2-1.4 2.3-4.7-1.3-.1-.1-2-2.2-.8-2-.9-.6-.1-2v-.1H401.3l.9-.5.8.4.2-.1.2-.1.5-.3.6 1.3h.4l1.9 1.1-.4-.7-1-.6-.3-.6v-.2l1-.4.4-.1.3-.2.5-.2.5-.5 2.3-2 1 .3.7 1 .6-.1 1.1.6 4.5-.8-2.8-.1-1.8.6-2.2-2.1-2 .1-.3-.5v.7l-2.4 2.4-.8-.6-1.1.5-1.2-.2h-.3l-.3-.7-.4.5-.1-.5-1 1-.5-.8-1.7.2-1.5-1-1.2.5-.8-.6-1 1-1.7-.4-1.3-1.7-.2-1v-.1h.6l.2-.6.9-.1-.4-1v-.1h1l1.7-.8.6-.1.9.1.8.3.6-.5 1.3.2.1-.6 1 .2h.2l.5-.3.1-.7v-.1l1.5 1.6.8.9.9-1 .6.6-.3.7 1-.5.1-.6-1.6-.4.1-1.4 1 .5h1l.5-.5h.4l.4.1v-.2l.4-.4h-.2l.1-.2-2.7-1v-.8l.3-.7 1.1-.3.5.5.1-.3.7-.4h.4l1.1-.8 1.5.4.5-1 .3-.4.9-.6v-.1l.4-.2-.5-.1v-.2h-.4l-1.2 1.7-.3.5-1.2-.4h-.1l-1.1-.4 1.5-1.6.6-.1.3-.1-.3-.1-.3-.1v-.3l.2-.2-2.7.4-.1.1-.6.6-.1-.6-1 .6-.4-.3-1 .7-.8-.7-.5.2v-.3l-.1-.4 1-.4.2-.7.6.5h1v-.7h-1l-1-.8.5-.5.6.1.6-1.1v-1.2l.9-.8-.4-.3v-.9l.6-.6v-.5l.2-.4.1.2.6-.7 2.9-.3h.3l.7 2 2.9 1.5.4-.4.8-.7.6.3 2.6-1-.2-.4h-1l-2.3 1.2-.4-.2-1.6-.6-.8-1.7v-.3l.2-.3.5-.1-.3-.4-.4-.2-.5-.2-.4-.2-1.5.5.5.3-.3.2-.2-.1-.4-.2v-.2l-.3-1.2-.7.5-.6-1.5 2.7-2.6.2-1.2h1.6l1.4-.7.3.1 1.8.5.3.6.6 1.1.3-.2 1.6 1.2.4-1.1.9-.2 3.7-.6-1.4-.5-2.2 1h-.2l-.1-.3-1.4.3-1-.8-.4-1.5h-.6l-1.3-.9-1 .2h-1l-.8-.7-.2-.8v-.2h-.1l.3-.7.7-.8.9-.6.4-.3.3-.9v-.5l-.9-.4-.3-.2v-.7l.3-.3.4-.6 1.5-.6.6.2.7-.4 1-.6h.5l.6.7 1.2 1.7 1 1 .9.7.3-.6.6-.3.1-.6-.3.4v-.1l-.8-.3-.8-.4-2.3-2.5v-.1l.4-1 .6-.6v-.6l1-.5-1 .4v.2l-.4.7-.6.4-.3.8h-.2v-.2h-.1l-.2-.1-1 .4.1-.5-1.4 1-.3-.8-.7.5-1.1-1-.2.1-2.7.2h.1l-.4-1 .5-.4-.4-.1v-.2l.4-.6.6-.2.1-.6.4.3.7-.4h-.4l-.2-.7v-.3l1 .1h.1l.4-.4-.4.6-.2.2h.5l2.4-.7.4-.6h1.7l1-1 1.4-1.2v-.1l.6-.5.1-.8.1-.4-.2.3-.6-.3-.5.5-.8.5.2.3-.3.3-.4.2-1.3 1.8-2 .2-.4-.3.6-.4-1.4-.1v-1h.2l1-.6.4-.2-.7-.5-.2-.4-1.4 1.1-.4.2-1 .5-1.1 1.2-.9.6-2 .6-.7-2-.2.8H407.2l-.4-2h.1l.3.2v-1l.5.6.1.1v-.1l-.2-.5h.1l-.2-.3-.4-.9.1-.5.6-1.1-.9-.2h-.6l-.4-.1-.7-2.3v-.6l1.1-5.5.2.2.1-1.2v-.5h.3l.2.1h.2l.2-.5.6.7h.3l.8 1v.1l1 .4v.7h.1l.6-.2.8.5-.2-1v-.1h.1l.4 1.7 1.9 1.6v-.3l.1.2-.2-.6-.1-1.9 1.3 1.8v-.8l1.6-.2.3.4-.2-.5.6.3v-.5l1 .6.6-1-.5-.6-2.2-.3h-1.7l-1.2.8-.2-.4v-.1h-.1l-.2-.4-1-1 .9.3-.2-.6-1.6-.7-.3-1.5-.8-1.3-.3-.2-.8-.7h-.2l-.5-.3-.7.1.5-2 .7-1.2v-1l2-.9.3.7h.1l1.6.7v-.7l.5-.1-.2-.9-.6.1.3-.5-.4-.8-2.5-.1-.5-.7-1.6-.7v-.2l.5-3v-.3l-.5-4.4h1.3l.8-.9.8.4 1.1-.3.4-.1.4.2.2.1-.3 1.6.4.5v.2l.3.4h.1l.4.4-.2 1.7 1.7 2.4.8.2.3-.6-1-1.2.5-.5.2.7 1-.3v-.6l-.8-.2.7-2.5h-.2l-.4-.2-.3-.9-1.5-.4.1-.5-.6-1.1v-.1l.4-.2v-.2l-.4-.3.1-.4 1.2-2 .1-.2 1.5.4v.4l.1.3.7-.6.8 3.5.1.1 1.1.5 1.6.7h.6l-.2-1 .6-.3.8-2.9 1.8 1.2 1.2.7 1.3 1.7 3.1 1-.6-1.5-2.5-.8-1.1-2-2.1-.5-.4-1.4 1 .1h.3l.2-.6.2.2.2.7 1 .8.2.1 1 .3 2.3-.6 3.5 3.1h.9l1.6 3.4.6.2-1.3-3.3-1.1-.6-.8-1.2-.5.3-.8-1 .8.3-2.3-1.7 1-.3v-.5l.2-.1h.3v-.2l.3-.1v-.6l.2-.5-.5.5-.3.4v-1h-1.2l-.8-1-2.6-.6v-.2l.2-.5-1-1.3h-.9l.3-.5-.4-1h-.1v-.1l-2.3-.4.2-1.4-1.2-.7-.1-.3-.4-.7.4-.4V232.5h.4l.3-.6h.1l1.3.9.5.4 1 2.2.1-1.5.3-.1h.2l.6.8 1 .3.6-.7h.2l-.3-.5v-.2h.4v-1l.4-.3-.3-.7-.5.2v-.1l.3-.4-1-.4h1.6l-.5-.5-.8-.7h1.5l.3-1 .4.2v-.6l-1.2.6-1.5-.6 1.2-.9-1.2.4-.4-.6.6-.4-1.1-.4-.3-1.3-.3-.2-.6-1.2-1.6-1.3.2-1.2.9-1 .3 1h1.2v.2l-.2.4.9.2.4 1.2v-.1l2.6-1.8-1.5-.6.7-.8.2.6h.7v.8-.4l.1.1.4.3v-.6h.1v.1l.8.7 1-.4.2.8.6.6-.5-.8.2-1 .4.4h.1l1-.5.2.7-.2-.7-.2-.3.9-.5 2 1.7.2.1 1-.3h.1l.1-.6.6.2.3 1.2 2.5 1.8-.6-1.3-1.7-1.4 2.8-.4-3.4-.5h-.9l.4.3-.3.3-1-.2h-.2l-1.9-1.2v-.6l-.5.2-.5.1v-.6h.3l.2.2v-.7l-.6.1.1-.5-.2-.5.5-.4-.8-.1.8-.6-.6-.6v.1h-.2l-.4.4h-.5l.5-1-.7-.8v-.4h-.3l1.1-.2-.8-.6 1.2-1.8v-.2l-.3-1 .4-.8 1 1.2 1 .1v.4l.6-.3.2.1.2.7 1.8.5-1-.7.5-.5-1-.6.1-.3-.6.2.7-.7.8.1-1.3-.4-.1.6h-.8l-.6-.3-.2-.2h1l.4-.1-.4-.2-.3-.2-1-.5.5-.8h.8l-.7-.2.6-.4.2-.2.2-.2 1 .1.8.1 1.4 2-.3-1 .4-.4-1-.3v-.6l-2.3-.3.8-.5-1.2-.4v-.6h-.1l-.5-.4-.5.3-.4-.8v-.5l.7-2.3.2-.3 1-.6 1-.2.2-.7 1.1-2h.1V195.9l.1-.1v-.5l.2-2.1h.2l1.8 1.1.4.2.3-.7h.3l2 .2 1.2 1.1.9.2.2 2.6v-.1.1l1.3 1.3-1.6 1.7 1.4-1.2-.8 2 1-2 .3-.6-1.4-1.4zm-80.7 28l.5.4h.1v-.4l.2-.6.3-.2.2.1.5-.5h.1l.3.1 1.1.5.3.5.5-.1h.1l.3.3.4-.4.6 1.9v-.7l.7.5-.4-1h.3l.5-.1h-.1l-1-1-.2.1h-.5l-.2-.1v-.8l.8.2-.1-.6-.5-.1-.3-.2-.5-1.2-.1-.3-.5.2-.5-.8.3-.3-.6-.3-.1-.3-.3-1 1-.5.6-.2h-1.8l.8-.9.3-.3-.4-.5 1.8-.2h.1l.4-.6h.4l-.2-.2.3-.4 1.2-1 .6.4 1.4-1.8.5.9.5-.4.3.1 1.3-1.1.2-.1 1.3-.2 1.1-2.4h.8l2.4-2.7 2.5-1.5.7-.4.8-1.4h.1l1.2-.2 1.1-1.3v-.7h-.3v-.1l.1-.2.1-.1.3-.1 1 .6.7.4V203.4l.3.3.4.7.7.4.2.1-.2.7-.3 1 1.1 1.2v1l-.9.6-1 3 1.2 1.5 1 .4-1.3.2-.1.1h-.1l-.6.8-.8.8v.1l-.5.7.3.1v.4l-.1.3-1.4.1-.2.5V219.7h-1.4l-.4.6.4 1.3-1 .5v.2l-.8-.2.1.8-.6.1.7.6 1-.4-.1-.4.8.7.5.6.6.1.2.2.4-.4 1.7-1.1h.2l.8-1.5 1.2-.3.5-.8v-.1l1 .3-1.2 2.3.4.5-.4.2.1.2-.1.3-1.7 1v.7l-1.4.6-.6-.3-1.1-1.5h-.8l-.3.2-.4.3v.3l-.1-.1-.4.4h-.3l-.5-.9h-.8l-.2-.1-.2-.5v.4-.1l-.2.6.4.7.5-.1-.6.8.8 2-1.6.8-.6-.4v.6l2-.3h.1v.8l-1.2-.2-.6.3-.2.2h-.1l-2.5-1 .8 1 1.5.2-1.1 1.5-6.6 1.6 1.8-.4.6.5v-.4h1.5l.7-.5 1.4.3v-.4l1.3.3.3.1.3-.5-.4-.2.7-.5.6-.3.1.2v.3l.2.3-.4-.3v.4h.2l.6.4h-.7l.1.6.8-.5-.1 1 .4.1v.2l-.4.5.4.1v.5l-.1.7H383l.6.2 2.5.5v.4l-.7 1.6-.4.3v.7l-.6-.4-.2-.2-1.2-.7-.4.8-.4-1 .1.6-.4-.5-.1.7-1.1-.5.4.5-1 .1-.5-.5v.7H378h.4-.8l4.1.3 1 .9v1.7l-.7.3-.2 1.8-.6-.2h-.5l-.7 1-1.2-2.4v.2l.3 2.1v.8l-1-.2-.2-.4-.2.6-.3-.2-1-2.3-1.2-.8 1.4 3.2h-.7l-.4-.7-.3.3h-.2v.3h-.1l-.6-.7-1.1-1.8-.4-.6-.4-3.6 1.9-2.4v-.8h1.3l.4.5 1.3-.5-4-.3.8.3v.6l-2.1 2.4-1.2.7v.6l.6.3.7 2.2-.1.6h-.8 1.5v.2l1.2 2.4-1.5.2.9.6.5.3.3.2.2 1.3-1.3.1-1-.2-.8-.2-1.1-1-1.3.2.6 1v.1l-.4-.2-.5.2.4 1.1h1.1l.8 1.8h.1l.6 1v.2l-.5.3-.2-.5-.1.2-.1-.2v.5l-.2-.4v-.4l-.1.1-.2.5-1-.7.2 2.2-.5-.8-.2.2-.9-.7-.4-.9-.1.5-.5-.5.2.3-.3-.2 1.1 1.4-.5.8-.3-.8-.1.5-.2-.4.2 1-.5.1-.5-.2v.4l.4 1.6-2-.6.7.3-.4.1h-.2v.1l.9.8-1.5.4-.3 1.4-1.4-.3.5 1h-.3l-1-1.7h-.3l-.5-.7v-.1l-.1-.3.3-.1-.6-.5v.5l-.7-.5-.2-.1-1.2-2.2-1.4-.7-.5-1.5 1.1-.3.8.6v.3l.2 1v-.2l.2.7.8-.8 2.2-1.9.2-1.7.4.4.8-.4.4.3.5-.5.7.5.6-.3-2.1-1.3.1-.4.3-1 .3.2.9-.6 1.7.8h1l.2-.4 1.2.4-.2-.2-1.8-1.4v-.2l.9-.2-.3-.5-.1.1-.3.3-2.1-.6.4-.9v.1-.2l-.7.8-.9-.8h-1l-1.2-1.1-.3.1.5.7-1 .2-.2-.1-.8-.4-.1-.1-.2-.1-.1-.4v-.3l-.7.2h-.2l-.4-2v.1l-1 .4 1-.8v-.7l.3-.8 1 .8v-.1h.2l.8-1.4.4-.3 4.4-1.3-2.8.3-2.1.9h-.2l-.8-.4v-.5l1.5-.5-1.4-.1v-.5l1.2-.6h.2l-.1-.3-.2-.5h-.2v.2l-1.3.8h-.1l.1.4-.7-.1h-.1l.4-.3-.5-.1-.4-.1-.4-3-.1-.2-.6-.4-.3-.3.2-1v-.1h.5l.4-.5-.3-.5H357.3l.2-.6h.1l.1-.3-.6-1.5.6-.3.2-.1.1.4 1 .3.1-.4.4 1 .3-1h.7l-.5-1.2-.4 1-.7-.4-.2-.2.5-1-.3-.2.3-1 .1-.5 1-.9-.1.9h1.3l.6.9.1-.1.2.2.4-1.2.1.2.6 1h.2l1 .4v.7h-1.3v.4l-.7-.4 1.1 1.3h1.6v2l1.1 3.2-.7-4v-.2h.5zm20.4 35.3l.8.6.4-.2.9-.4v.1l-.1 1 1.8 1.2.1.2.7 2.6 1.7.3 1.6 3.4h.5l-.5 1.6.1.2.3 1.1-.4 3.4.5 2-.2 2-.2 1.1-1 1.2h-.7l-.3.1v.2l-.2 1.4.6-1 .2.1v-.4l.3.4h.2l1.2-.2.5 1v.5l-.2.1-.6.9 1.2 2.1.5.2v-.2h.2V288l-.3.2v1.2l-1 .1-1.4 1.5.7-.4-.2.2 1.2-1H398l.6 1.4-.2.2-1.2 1v.3l-.2.3.5.1 2-1.5.4.6.4.5.2.1.4.2 1.8.7v-.2l.5-.1.8.7-.4.8 1 .3 1.4-1.2.3.2-.7.7 2-1 2.3-1.4 1.5.2h.1l-.8.8H411l2.3-.2.5.4.1.2v.2l-.7 1.3v1.9l-.3.2-3.4 2.5-.1.1-.6.2-.2-.1-.6-.4-.3-.2.3.7v1l-.2.5.6.4-.3.2h-.3l.1.2v1l-1 1-1-.3-.2.7-.8 1.3-.3.2v.5l-.3.4.1.5-.3-.2-.9 1.5-1.2.6v.1l-.5.2-.2-.1-.4.3-.7.5-.3-.3-.3.4v-.8l-.7-1v-.5l.4-1.4 1-.2-.4-1.2.3-1 .6-.2-.8-.5.3-.7.9-.5.2-.6.2-.2 1-.3.8-1.1 1.8-.6.3-.1 1-1.3-1.5 1-.8-.3-.1.5h-.7l-.6-.2-1.5.3-.7.2-.5-2.2v-.1l-1.1-1.6-.2-.4.1 1.6.2 1.5-.3.2-.5.1v.4l-1 2.7-.3.8-1.2-.8.5-2.3-.4-.7v-.5l-.3-.2-.2-.4-.3.8-1-.8-.3-.3v.1h-.1v.5l-.1 1-.1.2-1.4-.3-3.6 1-.8.3.7-1 .7-.9V297.8l-.3-.2-.5.4-.2.2-.3.3-.6.4h-.4l-.3-.1-.3-.5-.5-.7-.4-1.3v-.2l1.2-.2v-.1h.1-.1l.2-1.2-.6.8-1.4.2h-.3l-1.8-2.2-.3-1.7-.6-.2-.3-.2v-1.4l.2-.1 1.7-.9.3.1-.2-1.2 4 3-1.3-1.8-1.6-1.2.3-.3h-.3v-.9l-.4.6h-1.3l-.4.7.1-1.5-.7-.3-.3-.2.2-.3.3-.5-.7-.2v-.2l.1-.9-.2-.4v-.2.1l-.2-.1v.4l-1.2 2 .3-1.6-.9-1.5.2 1.1-.3.4v-.3l-.4.8-.8-.2.1 1.5.2 2.1-.7.4-1.6-1.3h-.2l-1-.5-.4.2-.4-.1-.4-.4-.6-.7h-.7l-.8-1.2.4-.5-.6-1.6-.9-.8-.9.6.4-2.7 1.6.4.7.2-.9-1.1-.2-1.4v-1.2l1.3-1 2 3.3v.7h.3l.5.9.2.3.7.8.3-.7.4-.4.2.4.5 1.4.1-.7h.3l-.8-1.5v-.2l-.3-.4h-.5v.2h-.2v-.1l.3-.6-1-2.6.8.1.8-.6 1.2 1.2.3-1-2.7-2.7-.5-.6v.1l-.5.4v-.3l.5-.8.1-1 .2-.6V268.3l2 1.5.7 3 .6.2.3-.3 1.5 1 1.6 2.5-.1.2.1-.2 1.4-1.3-.9 2.3.4.6.7-1.8v-.2l.8-.2V274l1 1.9 1 .4.2.9.4-.4.9 2.6-.6-2 .2-.4.6.4-2.3-2.4-.4-1 .3-.2-.9-1.3-.2-.5v-1l.5.5 1-1.8-1.5.2v-2l-1.2-2.1.8-.6-.1-.7h1l.8-.6.3-.2.5-1-.2-.6zM574.5 74l-.3-.3-.2-.4.2-1.2h2.2l-.7-.4 1.3-1-1.3.5h-.1v-1l.6-.2-1-.1.1-.7-.7-.5v1l.7.4-1.6 2.2.2-1.5-.6-.6-.2.4-.2.3h-1.4l.5.7h-.2l-.8.2-.7-.5-.4-.4.4-.6.2-.2h-.2l-.5.2-1.4-.6-.3-1 .5-.5-.7-.1.5-.9.4-.8v-.1l-.7-.7.4-1 1.9-.3 1.5-.3.2.3.9 1.2V65l-.1-.7.2.6h1.2l.1.2V65l-.5-.9v-.1l1.7-1 .9 2.5h.3l-.1 1 .7-1.2h-.7l-.4-1.4 1.7.8-.8-.7.7-.2h.4l-1-.4 1.1-1 .3-.2.1.5.2.6.3-.4 1 .5.4 2.3.1-.4.1.3v-.8l.2-.3 1-.1-.5-.2.2-.1h-.7l-.4-1.4.8-1.8.6.9.4-.3-.4-1.7 1.5-.1 1.5.7h-.1.1l-.5-.5-1-1H581l.8-1-.3-.9-.5.6-.5.8-1-.5-.2-1 .9-.2-1.2-.5.3-.7.7.4-.2-.5-.1-.3-2.1.2.1-2.2.7-.4.4-.2h-1.7v-1l1.3-.6-1.2.2.3-1.7-.8.8-.5.4.3.4v.2l-.7 1.2-.6-1 .8-.9-.1-.6-1.6.4-.7-.9-.6 1.1-.6-.4-1 .7-.6-.7-.2-.4.5-.3.2-1 .1-.5.9.4.2-.2.8.2-.6-.4.5-.5v-1.7l1.2-1.5.6 2 2.7 2 2.1-.5h-2.3l-1.2-1.4-.3-1 .5-.9 1.8-1.6v-.2l-.4-1 1-1v-.1h-.6l.6-.8h-.1v-.2l1.8.7 1-.3.6.8-.2-.2.2.2-.6-1.5.2-.6.6.4V39l.8-1.2.2 3.4-.6 1h-.6l.8 1v2.3l-1 .3-.5-.4-.6 1.3h1.7l-1.5.7 1-.2.5.7-.8.6h.4l-.1 1.1-.8.8h1l.2-1.3h.6v1l-.8.4.4 2.1h-.7l-1 1.7.4 1.3h-.6l-.5 1.3.3.3 1.9-1.4-.8-.2.7-1.9 1.3-.5.6.6.2-1.6-1.1-1 1.2-1.3.4.7 1.3-1.5 1 1.4-.2 1.7.8-.6.5.8-1 .7h.7l.5.2-.7.7-.2.2-2.5 2.2.7-.4-.8.8 2.6-1.7.1.5-1.3.9.4-.2-.2.2 2-1 .2 3 .4-2.1h1.2l-.6-.7.7-1.3.3 1 1.6-2.3.7-.4.2.8-2.2 2.7-.7.3-.8 1.5H590.5v1.1l.7-2 1.3.5V60l-1.7.9-2.9-.6.3.2.4.3.3 1.9.5-1.2.8 1.3v.1l.1-.1.3-.5.5.2.2.2H591.5l.5-.3v.4l-.3.8.5.5-.3.4-1-.3-1.8 1.8h.7l-.5.6h.4l-.1.6v-.7h.6l1-.2-.4.4.2.4.6-.3-.2.9h-1.7L589 69l-.2.2-.3-1 .4-.4.1-.2h-1l-.3-.8v.6-.5l.2 1.8-1.5 1.2h.2l1.6-.1-1.4 2.6 2.1-1.8-.5.8.4.2-.7.4-.2.5-1 2 .1-.1v.2l2.4-2.6-.2 1v.2h.6l-.8 1.5.1.2 1.2 1.4-.2.4-.9-.4v.6l.2 1-.6-1-.2 1.8-1.1-1 .2 2-1 .4.7.9-.4 1.2.7 1.3-.2.7 1.3.6-.2.4h-1.3V84.4v.5l-.2.5h-.7l.3 2 1 1.4-.4.1.2 1.3-.7-1.7-.5 1-.7-1.2-.2.4v.2h-.1l-.7-.1.4 1v.1h.5l-.3.9.2.5v.4l-.3.2.3 1.2-.5.2v1l-.6-.1h-.2l.2.2.6.8V97l-1 .2h.3l.2.9.6-.2-.3 1.5-.5-.8-.3-.7-.7 1.6V99l.3-1.7-.5-1.2h-1l-.2 1-.3-.7-1 .2V96l-.3-1v-.3l1-.5v-1.6h.1v-.4h1.3V90.4h-1.2l.2-1 1 .8-.7-2.1 1-.8.1-.3.1-.3 1.3-4.8.4-1.6v-1.3l.2-2.2-.1.7h-.4l-1 .1.4-.8.2-.3.3-3.8-.3-.3-.1.4h-.1l-.8 2.4v-.1l.3-1.6.3-1 .2-.5.6-.5.5-2-1.1 2.5V71.5l-1.3 3.7 1.5-7-2.2 4.2v-1.2l-.5-.1-.3-1.8.6.2v-.1l-.2-.5-1.1-.5-.3.6-.7-.9h-.8l1.7 1.5h.5l.2 1 .4 2.2-.5.4.2-1.5-1 .7-.2-1.3-.1 3-.8 1-.7-.5.1-1.2v.2-.3l-.2.4-.4.6v1l-.4 1.3-.3-1-.8-.2-.8-.2v-1.5h-.1zM395 337.2l.3-.4.5.9 2 .6v.2l-.3.8.5.3 1 .5.8 1.6.9.5v1l.8 1.6.2.5-.5.4 1 1 .2-.4h.5l.4.4h.7l1.6-.3.7.4.5.5.3.1v-.7l1 .1 1 1.5.2.3 1 .6.8-.3.2.2.2.6.7.5.5.7-.1.4.8.2.3-.5h.1v2.2l-.7-.3-.4-.5.4.7.2.6h.4v.4l-1 2h-.2l-1-.4-.2-.3.2-1.1v-.3l-.9.1-.5-.1.6 1.2-.9.1-.1 1-1.4 1h.2-.1.2l1.2-.2.6-.5 1-.4h.8l-.4 1.1-.8.9-4 2.9-.3.1-.3-.1-1.6-.6h-.2l.2-.3 1.4-1.4-.2-.6-1-.2-.3.3-.6.4-1.3 1.8-2-.1-1.2 1-1 1-1.4-.6-2 .5-.5.8-1.1-.2-1.3-.3-.6.4-.3.2h-.1l-.1-.1-.5-.2v.1h-.2l-.3.9-.3.5-.1-.3v-.3l-2 .3h-.3l-.2-.6.3-.3h-.2v-.1h-.8l.1-.8v-.7l-.7.1v-.5l-.5.2.2-.6.6-1.8.2-.3 2.2.2.4.8v-.3h.5l.2.9h-1.2l2.4.6-.5-2 1.6.6.7.2.5-.1-.3-.3.3-.2h.1l.7.3.3-.1h.3l.1-.1.4-.2v-.3l1 .3 1.3-1 2-.6.6-1-.4-.5.5-.2-.3-.1.2-.2H399.3l-.9.8-.5.4-.2-.2-.3-.3-.2.5-1 .6h-1.6l-.7.5-1.2.1-.6-.9.1-1 2.1-1.9.8-2.3.3-.2 2.7-.2 2.3-2.2-.1-.2v-.5l-.4-.1-.2-.4-.9.8-.5.2-3.1 1-.3-.7h-.5l.3-.7-.3-.6-3.1-2-2.3.4-.4-.2-1.7-.8.2-1.2 1.2-.4 1-1.3h-.2.1H387.9l-.3-2 2 .2.2-.2.5-.5.6.5 2 1.6-.6-.6.5.4-1.3-1.3h.5l-.6-.7v-1.3l1.2.6-.5-.8.2.1.1.1.1-.7h1.3l1-.7zm.3 50.2l.1.5-.3 2.4v.4l.6 1.5.5 1.7v2.1l.2.7.6 1.4 1.2 1.2.2.1-.2 1.3v.2l1 1.3-.5 1 .1 1.2.5-.3-.3.9h.4l-1.1.8-.3.9-.6-.3v1.4l-.5-.4-1.8 1.2-.7.4-.6-.4-.8.6-.3-.7-1 .2.3.7-1 1.7-.9.4-.3.7-1.8-.5v-.1l-1-.2.4-1.3-.2-.7 1-1.8 1.4-.3.2-.1v-.1l.3-.3-.2-.6-.3-.9-.6-1.6-1-1.2-1 .2v-1l.3-.7 2-1.2.7-.4.5-.7-.4-.7H386.7v.2h-.1l-.3.7-.4 1.1-.5 1.2-1 1.8-.4.5-2.7 2.2h-.5l-.3-.2-.8-1.2.2-.2.8-.7.1-.2.2-.3h-.1l-.4-.4.3-1.1 1.3-1 .1-.1v-.1h-.2l-.1-.2.2-.7.3-1.2-.4-.2-.8-.5.7-.6.5-.5v-1.8l.2-.5-.2.1v-.8l1-.6.5.4.1.2 1-.4v-.2l1.2-1h.1l1.2-1.1.2.3-.6 1.3-.4 2.3.5.8h.5l-.3-.9 1-2.1-.5-.5 1.4-.2 1.5-1.6 1-.9.4-.6.4-.4h.9l.3-.4h.1zm114.3-234.1l.8.9 3.2 1.8.8-.4.2.8.8.5.1.1-.6.5v.2l.5.4 1.7 1.4v.7l-.3 1.8-1-.7h-1.1l.3.6v1.3h-.9l-.4.6h-.1v.2l-.3.2h-.8.1l.4.4.2.1.7.3h.2l1 .5.4-.8.2-.3v-.1l1.4-.1 1.8 2 1-2.3.2.5v.1h.4l.6-.2-.3.3h.2l-.4.9h.1l.5.3-.8.5v1.3l1.3.4.4-.7.8-1.2.8.2.4.1 1-.7.3 1.7v.2l-1-.1-1.2.6.8 1.6V170.6h-.6l.7.4.3-.5.3-.1h.4l-.2.4.7.5.3-.9-.5.1.3-1-.7-.5 3.7-2v2.1l-.4.6.3 1v.2l-1.4-.2-.6.8-.9-.1v.2l-1.7 2.8-.6-.7-.4-.5-1.1-.7-.6.4.3.2.2.2-.3.4-.2.4-.6.7 1-.3v1.4l1.2.2-1.7.8-.2.2 1 1.5h-.6l-1.4 2 .4.7-.4.7-.3.5.1.2 1 .8-.5 1.1.2.2v.2l-1.7.4-.1-1v.1h-.1l-.4.2-.6-1.2.5-.5v-1.9h-.6l-1-1.6.4-.4.4 1 .4-.6.2-.3-.7-1.1h-.2l-1.1.5.9-1 .3.1.6.3 1-.6.2.7 2-1.2h.2v-.1l-1.1.1-1.3-.6 1-.8 1 .4-.3-1.3-.1-.4.7-.1.1-.4.3-.4-.6-.5-.1.3-.7-.1v-.7l-1.6-2.8V168l-.4-.2-2 1.8h-1.7l-.5-.3.4.9h-1.3l-.7 1-1-.2-1 .6-.2-.5-.4.4-1.2-1.6v-2.4l-.9-.7v-.2l.1-.3h-.3l-.3 1.5h-1l-.2.8-.3.1-2-1-.3-1.3-.1-1.6.3-.5-.4-.4v-.2l.7-1.6-.3-.7.9-.6-.5-.4h-.1v-2.9l-.3-.4 1.4-1.5v-.5h-.1v-.5h.3l.9-.1 1.3-.6zm-80.4 249.1l1.8 1 .4.3.7.7.9 1 1.1 4v.4l.1.4-1 1.2.1.1-.3.4.4.1.6.3 1 .4 1 1.3-1.3.9-.5.8 2 1.3-.6 1.2v.2l.4 2.3v.2l-.3.2-.8.7-1-.3-.7.2h-.1l-.2.1-1.5.4-2-.4-.3-.2-.1-.2-1.5-1-.3-.2-.7-2.4-1.1-.6v-.4l.2-1.7.5-.8-.4-1.4-1.5-2.6-.4-.6v-.3l1.2-4 1-.6.3-.1.1-.1.5-1.2 1.3.2-.4-.6v-.2l.2-.2h.2zM403.5 386l1.3-.8-.5-.7-1.7 1.3-2.1-1.1-.5.2 2-4.3.9-.8 2-1.7.9-.5 1.4-.9.2-.3.6-1h.7l1.5-1.5.1-.4v-.1h.7v-.7h.7l.6 1 .1.3-.3.5.3.7-2.6 5-.5.9-.4.8-.6.2-1 2.8-.7.1-.2 1.3-.1.8-1.2 2.5.1 1-.5.8.2-.8h-.7l-.1 1.5v.2l-.6-.4h-.2l-.3.2-.3.1-.6 2.3.2.3.3.3-.5 1.1-.5 1.3-2.8-.3-1-.7-1-1.8-.2-3.6.2-.8.8-1.5 1.4-1.9.5-.2.2-.1 1-.2.3.1.4-.2zm-48.2-119l-.6-.5.6.6-.3.4-1.1-1-.4-.3 1.1.3-.2-.4.4.2v-.5l-2 .2h.1l-.2.1 1 .5h.2l-.5.9.7.3h.3l.8.2v.3l-1.1-.2 1 .2-.2.5.3.4-1.1.3 1-.2-.3.6h.5l.4-.1 1.5-.4-.3 1-.3 1-1 .7-1-.4-.6-.2.2.5-.9-.3-2.2.6-.4-.5.8.1-.2-.8v.5h-1.4l.7.6-1 .1 5.1.5.3-.6h.1l.8.1v.2l-.2.8.2.1v.8l-.2.2-.2.6v.1l-.9.2.8.2-1 .1-2-.7 1.2.8-1.6-.5.6.5h-1.1l-.9-.6-.1-.1.6.9-.1.2.6-.1h.9l.1.3.6 2-1-.5v-.4l-.5.4-.7-.3-.3-.8-.1.5-.8-.3-.4-1h1-1l.5-.5-1.4.2v-.6l-.1-.6h.4l-1-1.2.6 1-.5.8-.2.3-.5.8-.5-1-1-1.7V272l-.5.7-1-1.4.8-.2 1.2 1 1.7.3-1.7-.3-1.2-1.1-.1-.7-1-.4.5.7-.5.6-1.5.2-.5-1 .2-.3-.4.1h-.3L340 269l-.2-.3.2-.2.3-.2.1.5.4-.2.1-.5.1-.6-.5-.2 1.1-.3v-.2l-.1-.6.7-1-.1-.1-.3-.5h.1l.6-.1.6.2.5-.3.6.6h.1l.8.8-.1.4 1.2.5.5-1.4-.3-.6.4-.2 1-.6-.2-.8.2-.2.7-.3v-.3l.3-.2.2.5-.5.6.1.3-.7 1.2h1l-.1.5.9-.1v.9l.5-.5-.3-.4.7.4.6-.4-.4-.2h.8l-1.3-.7.5-.2h.1l.1-.1.9-.4.5-1h.1l.5.4.5-1v.5l.6.3.4.3h-.5l1 .4v.5l-.4.4-.3-.4.3.9h-1l.5.2-.2.2h1.9l-.1.9.3-.2.5-.3-.4-.3 1.1.1-.2-.1h.2l-.8-.7.2-.2.3.2.4.3.2.6h.5l.6.5-1.4 2.4-1.3-1.3.8-.5-1.2.3v.4zm-8.3 15.6l.1.1.4.1.9 1 .4.6h.8l.7.4.5.5-1.3.2 2.2 1.3.1.1v.2h-1.3l.2.4.3.2h.1l.8-.3.2.3v-.3l.5-.2-.2.5-.2.4-1.3.2v.3l-1.2-.6.2.2.7.8h1.8l.2 1.7.8-.4.3.4-.4 1.4-1-.1-1 1.6.4.8-.5.4-.4 1.4-1.5-.2.3-.4.4.3-.3-.4-.3-.3-.7.5-1-.4v.5l-.6-.9.5 1 1 .3.4-.3.4.6.1.3 1.3.4.2.2-.1.8-.1.2v.1l.9 2-.2.3-.8.7-1-.5h-.2l-.8-.5.3.4.5.8-1.1-.8.1.4-.4-.2-.7.4.6.3-.3.2.4.5h.1l1.6-.4h.3l1.1.3.4.1v1.3l.2-.2v.1l.4-.4.7.6-.7.9h-.1l.2.6h-.1l-1.9-.9-.1.1h-.2l-.6-.3-.5.6h-2.4l-.6-.8v-.9l-.5-.3v-.4l-.1-.3-.2-.6v-.5l.2-.3-.3-.9-.3-3.2-.5-1.4-.9-.3.8-.2.2-.3.3-.1.2-2.9 1-.9-.2-.6v-2.8l-1.2-2.8 2-1 .6-1.1h.1zM593.6 40.8l-1-.8-.6.3 2 .7h.1l.1.9.5-.4v.7l.5.2v1.1l-.8.4.4 1-1.3-.1.1 1.3h.2v.2l.6-.1h.1l-.6 2.4v.1l-.2.8-.4-.1.5-.6-1 .7h-.1l-.8-.7h-.1l-.2-.1-.8-.7-.1.7v.5l.2.1.6.5-.5.3-1.1-.5-.3.4-.8-1.2v-.1l-.3-1.8h-.5l.5-.2-.6-1.6.4-2-.4.8-.4-.5.6-1.2-.7-2 .6-2.2h.1l1.1-1.8.2 3 .6-.1 1 1.3-1-1.3-.4-.5.7-4.2.1-1 .3-2-.3-.7 1.6-.2v.1l.4 1.7V30.4l1.2.6h.1v-.7l1.2.7.5.2-.3 1h.1v.2l.7.4-.8-.1.1.7.4 1.9v1.4l-.2.2.1.1v.5l.5.3-.5.3-1.4-.7-1.4-2 1.9 4zM507.2 181l.9.2.5-.2.5-1h1.8l.5-.5.1.1.4.3-.6 1h.7l-2 .8-1.5-.6v.1h-.2l-.2.2.6.4-.4.3-.7-.7-1.9.2-1-1.4-.2-1.5-1.6-1.6-.4-2.2h-.4l-1.3-.2-.5-.1v-.1l1-2.9.3-.8h.9l1-.8 1.1.3v.8h.3l.1.5v.3h.4l2.8 1.7.3.2.5.3-.2.3-.5.3h.2l.3.3-.1.4.9.6-.7 1 1 .3-.6.7 1.4.4-1.3 1.2-1.1.3-.6.1h-.1zM436.8 394l.2.1v.1h.2l1-.3h.1v2.4l.4.9.5 1.8-1.2.9 1 1.7.1.1-1 .7-.5-.5-.4-.3-.3-1.8-1.3-1.3h-.1l-1 .3v-1.4l-.2-1.1-.4.5-.2-.8.5-2.2-1.5-.5-1.2-1.5-.5-.8-.4-1.1.2-.3 1.3-1.4.5.1.4.1 1.8 2.1 1.4.8-.3 1-.2.3 1.1.2zM599.3 21.6l.9-.4.2.6-.4 2.6h.5l1.1-2.7.2-.3.3 1 1.1-.4v.5h.8v.4l-.1.4.6.2-1.3.5h-.2v.1l1 1v1.3l-2.2-.5 1.2 2.3-1.5-.2-.9.3.2.2 1.9.4-2.3 3.8 1 1 .4-.6v1.1l-.3.2-.1.2-.5.3-.6-.3-1.2-.7-.4-.3-1 1.3h-.6l-.4-.8h-.6l.6-1-.7-1.8h.8l.4.2v-.1l-.3-1v-.1l-.2-.4 1-1-.3-1 .6-1.6-.9-.7 1.2-1.5-.5-.3 1-.2.5-1 .1-.1V22l-.2-.4h.1zM386.5 308.8l.9-.8 1.6 1.3.2.1.9.3.5 1.2h-.2l-1 .6 1.4.4h.1l-.8 3.2-.7.5-1.5 1.3-1.8-1-.3-.2v-.3l-.2-1.2h-.2l-2.5-2-.6-.5h.5l.2-.3 1.7-2.2 1.3-.6zm-35.7-30.1l.2-.3v.2h.1l.4-.7.5.9v-.6l1.4.9-.4.4-1-.5-.2.8.5.2.4.1H351.8l-.3-.5v1l-.6-.8v.8h-.4l-.4.1 1.4.7v-.3l.6.2-.5-.4v-.2l1.2.2.6.7v.1h-.8l.6.6-1.2.2h1.5l-1.7.2.3.5.2.4-3.3-1.4 1.8.7.2.7-1-.3.2.2h-.3l-.6.2-1-1-.5-.5-2.3-.6.3-.5v-.1l-.7-1 .4-.8-.5-.3.2-.6 1.2-.3.5-1.2 1.2-.3 1 1.2h2zm20.9 66.1l.2.2v1l-1.3.2.3.6h-.5l.1.3-.5-1h-.2l-.8.3h-.1l-.2.5.5.6-.6 1.3-2.5-.1-.9 1.1.1.6v1.3l-.2.2h-1.3l-.3-.9h-.2l-.1-.2H362.9l-.8.4h-.1l.2-2.5-.5-1v-.1h-.4l.5-.2.3-.6 1-1 1.1.2.4-.3.2.5.6-.2.5.4.2.2.1-.2 2-1.5h.1l.8.5.1-.1.2-.3.4.2 1-1.3.5.9zm10-7.6l-1 2.1-.2.3-.7-.5v1.2l-.3-.2-1.2 1.5-.2.2h-1.4l-.3.8-.6-1-.5 1.2-.5-.7h-1l-.2 1.2-.6.3-.5-1.2.5-.5v.1l.8-1 .1.3h.7v-.1l.3-.6.5-1.1.7-.3.3-1.2 1-.5.5-.3.5-.6.3-.1.8-1.2 1.4-.5.6-.4 1 .1v1.2zm18.9-61.4l.5.8-.2 1.2-1.4 2.6-.5.6v.3l.3 1.4.2 1.6.2.2.8 1v1.2l-1 1.6-1.2.4-.7-.5v-.8l-.3-.2v-.1h-.5l.5-2v-.5l-.4-2.5.1-.5.6-1.8.4-.7 1.5.4.3-.7-.7-.4.4-.2-.4-.9v-.5h.3v.9l1.1-1zM345 311.4l.6.5.2.1-1.3-.6.4.4.4.3h-1l.9.6.3-.4 1 .7v.7l-1.6-.9.5.8v.2l-.6.2-.1.2-.1.8H344v.1h-.1l.2.3v.4l-.4.3-.5.1h-.8v-.6h-.2l-.1-.1-.4.3-.1-.5v.1l-.3.7h-.3l-1.6-.6h-.1l.3-.9v-.3l1.3-.1.2-.4v-.1l-.3-.5h.6l-.3-.8.5-.4-1-.6h1.7l.9-.6.2-.2.4-1.2-.2-.8v-.5H344v.7l1 .5-.3.8-1 .5zm195.3-168.1h.1l.7.5-1.3.2-.4-.4v-.1l-.1-.1-1.7.5-1.2 2.4-.2.3.3 1.4-.6-1 .3-.7h-.5l.2.6-.2-.3v.3h-1.4l-.2.9v.4l-.4-.4.1-.9h.6l-.3-.6-1.3 1.2v-.5l-1-.1v.2h-.3l-.3 1.1-.4.8-.6.1-.2 1.3-.1-.1-.4-.8v.5l-.2.6v-.3l-.2-1.9v-.2h.7l.2-.3h.1l.2-.6.4-.7.4-.3 1.7-1V145l-.2-.4h.6l-.1-.2-.7-1v-.8l.1.1v.2h.2l1.2-.3.3-.4.4-.5 1 .2-1 1.2.2.9-.7-.2-.5 1 1 .4.1-.7.3.3.4-.2h.1l.6-.6 1.3-1h1.3l.2-1.1 1-.6.2 1v.8l.1.1zM395 374.3v.2l-1.3 3-1.1 1.3.6.6v.1l-.2.5-1.4 1h.3l.2.2v.6l-.2-.3-.7.2v.6l-.9.7v-1h-.8v-.1l.5-.1-.2-.1h.2l-.7-.2 2-.5h-1.4l1.2-.2h-.8v-.7l-.3.1-.8.2.5-.4.5-.5.1-1h-.3l.7-.5h-.4l.2-.8 1.3-1.5.1-.1h1.3v-.8l.3-.3 1-.8.4.7zm124-235l.1.3v.4l-1.2.2-.1.6v.1l.3-.1h.3l.5.6.1.1.6-.2v.6h.7l.3.4.5-.5.2 1 .6.4v1.5l1-.2.7 1.5-.7-.1h-.1l-.4.5-.5.9.2-1.5v-.3l-.5.1-.9-1.7-1.7-1-.4.2.7 1.1-1.1.4-.2.6-1.7-1.4.1-2-.2-.3-1-1.1-.5-.5 1 .3.3.1.2-.2.1-.2h.4l.3.1h.2l.9-.6.1-1.4.9-.4.2.2.2.6-.3.2h-.2l-.5.4zm-3.1 12.1h1.6l1-.7.6.6-.4.6-.6.7.6 2-.2.2-2.4.5h-.4l-.3-.1-1.2-.8-1.5-2.5 1.1-1.5.6-.6.9.2v1zm83.5-112.2l1.3-1 1.2.4.3 1.7.3.4v-.2l.2.3h.1v.1h.3l.8-1.2h.2l.1.2V41l-1 2.3-1.3-1.6-.5.5-.6-.9-1.3.1v.5l1.3 1.4-1.1.4-.7-1.1-1.6-2.6.4-1.6h1l.2.3zm-68.5 114.2l.8-.7.6.6-.7-.2.3 1h2l-1.2.4v1l.4.5v.1l.1.2 2.1-.6-.2.3-.3.5.1 1 .9.4-.5 1.3-.3-.2-.8-.4-.4.6-1.1.3v-1.9l-1-.8-1 .6.5 1-.3.8h-.3l-1-.1-.1-.1.4-1.5.3-.8h1.6v-.1l.3-.6-2-2.7zm-135.2 164l.2.3-.2 2.6h-.4l-.5 1.2-1.1-.2-.7-.3-.9-.7v-1.2l.3-.3.6-.4h1l-.1-1.5.4-.4.6-.1zm129.2-159l.1.1v.5l-.4 1-.4 1.4.7 1.4-.8.7-1-.4-1-.6h-.2l-.8-.2-.2.2-.2.2h-.8l.9-2.6.3-1 .4 1v.1h.1v.1l.9.2.4.1h.2l.3-.1v-.3l.2-.2V159l.7-.2h.2l.1-.2zm2.7-10.1l-.4.8h-.4v.7l-.1.4-.3.2.4 2.4v.1l.2.2.5.6-.4.2-1.5.6-.4-1.9-1-.7-.1-1.5.9.6 1-.5-.5-3.5.7-.6.5-.5v.5l-.1 1 1.1.6zm64.6-75l.3 1.8-.1.3.1.3.3-.3h.3l.3-.6.2.3-.5 2-.3 1.3-.4 1.6-1.8-1.3.1-1.7v-.3l.2-.3v-.7l-.2.4-.2-.4-.7-1.4.5-.7 2 1.1-.4-1v-.2l.3-.2zM403 292.1l-2 .5-.1-.1-1.4-2-.1-.2.2-1 .3-.2.4-.2h.4l1.8 1 .7.6v.8zm19.4 51.5h.1l-2.8 4.1-.2.3-2.6 1.9-1 .6.7-.7.2-.2v-.7l.1-.6v-.2l1.6-.8.1-.2.3-.1 2.1-2.6v-.5l.5.5zM595.2 62.5l-1.2-1 .2-.3.6-.3-.2-.4.6-1.4 1.1-.1.5-1 1 .5h.1l.8-.6.6.2-.6.4-.5.3-2 3.3zm-229 159.2l.4 1.4-.4-.2-.2-.2-.4-1.9-.1-.3 1.6.2.4 1.4v.4l.2-.5.6.8v-.6l.8 1.2h.5v1.4l-.7-.5h-2.5l-.3-.9.6.4.2-.8zM391.4 348l1.9 1.3v-.1l.2-.4.3.4.1.3.3-.3.3.4.2.4-.7.5-1.1-.2-.6.5-.2-.9h-.1l-.4.1-.1.2-.7.2-.1-.1-.1-.4-.7-.2-.1-.2.6-1.1.2-.1.6.1v-.3zM579.2 58.1l1.2.4.2.7-.5 1.3-1.6.5v-.1h-.1l-1.1-.8-.5-1.4h.7l.3-.8.5-.3.4-.2zm-168.5 345l.1.1-.1.2.4.5-.4.8v.3l.3-.2h.1l-.6.6v1.1l-1 1.1.1-1.5h-.4l-.2-.6 1.1-2.3.3.1h.1l-.1-1.2.6-.3.5.5zm2.3-33v1l-1 .7h-1.7v-1.2l.1-.3 1.9-1.3.6.6zm-51.4-123.6v.2l-.5 1-.3.7-.8-.6-.5-.5v.2h-.1l-.2.7-.1.1-.3.2-.6.3-.2-.7v-.2l-.1-.4.8-.2h.6v-.1l.6-1.3.6-.3.6-.1.2.1zm54.6 114l.2-.2-.1 1.3v.2l-.9.7h.2l.3.9-1 1-.4-.5-.1-.2.1-1-.7-.6 1.1-1.5.2-.2.1.2.2.3h.2l-.2.4zm3.6-7.3l.4.2-2.5 3.5-.3.1.2-.6-.4-.2-1 .1 1-1.6v-.4l1.7-.1.3-.4zM553.5 75.7l.8.1.3 1-.1 1.1-.7 1.6-1.1-1.5-.9-.3.1-1 1.2-.8zm-139 293.6v.4l-1-1.8-.2-.2v-.2l1-3.4.2 1 .7.6-.7 2zM355 258.8l.7.7-.4.9-.7-.2.2.6h-.4v.4l-.2.3-1.7-.4 1-2zM443 397.5l.4 1.8-.6 1.3-.3-.5-1.2.8v-1.2l1.1-2 .4-.2zM381 307.4l.3.1v.7h-2.4l-.2.2-1.5.8-.7-.6.4-.5.3-.1 1.3-.2.1-.5h.4zM357 237.5v.1l.1 1.4-.2.3-.8-.4v-.1l-.9.2-.2-.4-.4-1 1-.4.6-.3.7.6zm44.5 32.7l.2.4.3.6-1 4-.7-1 .7-1-.7.2V273l.7-.3v-.1h.2l-.5-1.3v-.3l.4-.5.5.4v-.3zm-8.4 30.6v.3l-.2.5-.9-.1.3 1-.2.2-.7.1-.7-.3-.4-.8v-.1l1-.7.6.4v-.7l.1-.1h1zM541 135.5l.5-.4.4.6-.8.3h-.4v.1h-.2l-.1.9.5.9-.6.4-.2.2-.5-.8h-.7l.7-2.2.8-.2.3.4.2-.2zM340.2 316.7l2 .5-1.2-.2-.5.8h-.1v.1h1.2v.3l-1.8.6-.5-1 .6.2.2-.5h-.2l-.3-.2-.8-.3.5-.6-.1-.2-.1-.2 1.3.2-.4.4h.2zm230.2-194h1.2l-.2 1h.6v.6h-.7l.3.7-.7-.3-.1 1-.7.1-.2-.3.2-1zM513 177.7l.3.3 1-.2-.1 1.3-.9-.5v.3l-.1.2-1.3-.2-.2-1.1.3-.3 1.4-.6 1.3-.2-1.8.7.1.2zm8.6-39.6l.4 1.9-.1.1-.2.2-.4-.4-.3.6-.2-2 .1-.5 1.1-2.3.4.9-.3.5-.2.4zM349.5 306l1.2-.2-.3 1.6H349.6l.6.4h.2l-.1.2-.5.5-.6-.5-.2-2h.2zM566.7 62l.6-1 .4.5.3-.3v.1l.2.5.2-.5.1.9V62l.2-.5v-.3h.5l-.2 1 .4.4-1.5.7v-.6l.1-.4-.1.2v-.2l-.6.7-.1-.2zM300.2 252.5l.5 1h-.7l-.2.6.9.7-2.3-1.1-.2-1.4.6.6.2-.5zM384.4 361l-.6.5-.8-.2.5-.9.3-.2-.2-.8.4-.3 1.1-.4-.2 1zm-11.6-112.4h.1l1.7.4.6 1.2-1.1.5v-.7h-.5l.2.3-.1.1-.3-.5.2-.1-.7-.6-.2.6-.3-1 .5.2v-.1h.3l-.4-.1zm-20 6.9l.6.8-1.4 1-1.2-1 1.4-.9zM520.2 152l.7.7-.5 2.8-.2-.3-.5-1.4-.1-1.3.6-.4zM406.7 327h1l-1.7.7-1-.4h-.4l.1-.4.3-1zm-69.9-2.4v.1l.1.9-.2.3.2.6-.7.4-1-.2.7-1-.3-.7h.9l.2-.4zm17-48.4h.8l.4.6-.2.1h-.2v.1l-.2.2.5.2-.5.3v.7l-.2.1-.5-.2.1-.8-.6-.4v-.6l1.1.5-.6-.7zM583 78.8l.3 1-.9 1.9v.2l-.3 1.3-.1.2-.5-1.5 1-1 .1-.2-.9-1 1.1.2zM390 323.2l.4.5 1.2-.4v.1l.2 1-.4-.3-.3.8-.4-.7-.7.3-.5-.4.4-.2.1-.1h.1l-.1-.6zm26.3 44.2v1l-.8 1-.2-.8v-.7l.3-1zM389.3 348l.3.6.7-.3-.7 1.1-.2.3v-.3l-.2-.3-1 .2.2-.9v.1-.4h.1zm-48-28.5l.7.8-1 .6-.8-1.3.8-.2zm11.4-35.3l-.6-.1.6-1 .5-.2.6-.1-.2.4v.2l.2.4-.5.2zm152.5-114.8l1 .7.5-.4.3 1.1-1.7-.1zm77.3-87.3l.2-.6.7-.8h.2v.4l-1.4 3.8.5-1.6zm-6.3-19.7l.6-1.1v.8l.6-.3.9.6-.7.3-.5.3-.2.7-.4-.8h.1l.6-.5zm-144 148.4l.6.6-.3.6-1.2-.2-.1-.3.2-.3.8-.4zm-8.3 28.7l-.2.1-.7-.3h-.2l.5-1.4.2.2.2.2-.2.6.7.3zm-78 24.5h.5l-.5.7h.1l-.2.3-.1-.4-.6.3-1-.3 1-.3v-.1zM596.4 39.7l.2.2-.5.7-.8-.3v.7h-.2l-.2-.3.1-.5.6-.8zm-12.2 40l-1 .6.5-.7v-1.4l.7-.3zM412 367.4l.3.8.2.7h-.5l-.2-.7h-.5l.9-1.4.1-.3zM372 239l.4 1.1-.4.6-.7-1.1zM595 76.3l-.1 1-.2.3-.8-1h-.1l-.2-.2.1-.2zM336.8 328l-.4.1-.7-.3-.3-.2h.3l.4-.3 1 .4h.2zm96.7 70l-.4.6-.4-1 .2-1 .4.8zM580.7 62l-.6.7-.5-.8.7-.7.5.7zM346.6 308.7l-.7.5h-.2v-.3l.3-1 .3.2.4.4zm39.8 53.6l-.3.8-.4-.5-.5.3.2-.6.2-.3h.1l.7.1zm25.8 24l.8-.2-1 1.6v-1zm-32-77.7l.6-.3 1.2.8h-.2l-.5-.3-1 .3zm-32.8 2.4h.1l.6.5.2-.2v.5h-.4l-.8-.5zm1.8-46.6l.8-.4.2 1-.8-.4zM604.7 54.7h.2v.5l-.8-.1-.9.8 1.5-1.7.1.4zM407 154.7l.5 1.2-1 .3.7-.8zM581.3 84l.6-.4-.9 1.2-.2-.1-.1-.3.5-.3zM296.8 252.3l1-.4-.2.6zm75.7 90.7l.1.3-1 .3h.1l.4-.4zm-69.8-93.6l.3-.7.2 1zm112.7 115v.1l-.3.9-.2-.2.3-.5zM400 275.2h.2l.4.6-.6-.4-.2-.1h.1zm-44.3 1l-.3.4-.3-.1-.1-.1.7-.1zm95-72.4l.2-.2-.4.9zm-77 110.8l.2-.5v.8zM334 274.3l.2-.3v.5zm13 8.3l.3-.1.2.3zm100.6-83.8l.2.3-.2.2zm135-117.2l-.1.2v-.1l.4-.6zm-248.4 180l.4-.2-.3.4zm4-42.8l.2-.2h.3zm124-60l.3-.4-.1.3zM436 209.5h.2v.2zm11.5-10.3v.4h-.2zm-53.3-41.6l-.3.2.4-.5zM338 218.4l.1-.2.2.3zm122.6-13.1l.2-.4v.2zm52.7 248.5l1.1.2zM350.6 272.3l.2-.1.2.1zm86.3-61.2h.2v.2zm-73.2 46.5h.2v.3zM335.8 219l.3-.1v.1zm37.7 95.7v-.3.4zm56.4 61.2v.1l-.2.2zm-127-127.5v.2h-.1zm133.9-39l.2-.2v.2zM449 206v.2h-.1zm11.6-2l.2.2h-.1zm-26.4 130.7l.1.1h-.2zm36.5-85h.2v.1zm-134.9-31l.2-.1v.1zm10.2 46h.1zm-7.7-45.4l-.1.1zm95 115.5zm27.4-130.6h.2v.1zM375.4 374h.1zm45.9 20.3h.1l-.1.1zm-45.9-20.5h.2zm-.2 0h.1zm59.2-39.2v.2zm-100-60.4zm69.2 111v-.1.2zM376.8 245l.1.1v.1zm-42.3 29zm3.7-54.6h.1l-.1.1zm65.2 165.9h.1zm9-111.2h.1v.2zm36.6-67.9v-.1l.1.1zm-116 56.3l.3.1h-.1zm1.6 11.6h-.2.1zM298 252.3h-.2l.2-.1zm57.2 12.8h.1zm-53.1-15.6h.1zm31 13h.1zm74.4-106.2v.1zm-58.4 139.3h-.1.1zm63.2-21.7v.1zM412 334zm26.6-113.6h.1zm19.9-57.2v-.1.1zm-120.6 55.2zm68.4-62.4h.1zm-40.6 72v-.2zm55.9 76.6zm-72.1-9.1zm113-137.1h.1zm-124.2 60.1v.1zm-.1 1h.1zm12.9 61zm-48.9-25.6h.1zm63.5-27v.2zM600.2 20h.1zM383.4 232.7zM402.3 386zm-20.9-153.7zm-30.8 39.5zm-17.3-9.3v.1zM595.2 32.1zM332.6 273.3v-.1.1zm48.9-44v.1zm-29.8 43.1h.1zm-.6 8h.1zm-13-61l.1-.1h-.1zm61 59v-.1zM381.7 232v.1zm-30.8 55h.2-.2zm2.4-4.7zm-20-20h.1zm86.8 95.7h.1zm-5.2 7.2zm148.5-83.7v.1zm-227.8-62.8v.1zm95 132.7zM333 273.6zM297 252zm123.7 143.8zM303 249.7zm99.7 136zm-64.5-166.2h-.1zm55.6 78.7zm-55.5-79.7zm.6 0h.1v.1zm11 66zm90-62.3zm7.7-26.4zM351 280.4zm-12.7-61.1zm226 60.3zM402.6 385.8zM394 158.3zm44.6 62.1zm-87.3 51zm22.8-35.1zm67.1-13.2zm-141.1 29.3zm138.8 80.4zm-87.3-52.6zM336 218.7zm-.2 0zm-35.5 36v.1zM431.6 211zm2 138.3zm-100.2-86.8zm98 88.7h.1zm16-155.4zm-113 78.4zm180-104.5zM342.2 315.7zm145.5-119zm87.9-150.3v.1zM297 252.4zm54.1 19.3zM566.7 62zm-231 156.7zm185.8-82.5zm-187 137.6zM298 252.3zm137.2-51.6zm-77.7 39.6zm-18-21.9zm31.9 126zM584.4 71.2zM447.8 195.8zm-14.3 153.4zm148-267zm-243 136v.1zM604.4 40.4zM412.7 334.5zM496 193.3zM303 248.7zm299.4-209zm-264 179.8zm64 166.5zM585.4 90.3zM297.8 252.5zm205.3-89.1zm-55.7 32.2zM576.5 65.4zM604.3 55zM394 157.5zm109.2 5.7zm-45 33.5h.1zM369.6 217zm89.6-19.6zm-65-39.8zM578.6 40.3zm3.3 43.4zM435.4 207zm-99.7 11.6h.1zm-35.2 36zm-1-.4h.1zm94.8-96.7zm-91.4 91v.1zm33-29.8zM584.2 71.6zm-30.7 4.1zM366.3 222zm93-24.5zM350.7 297zm43.4-139.4zM578.7 40.1zm-75.6 123.2zm-167.3 55.6zm-36 35h.1zm170.8-55v.1zm-77.2 15.5zM297.5 252zm54.5 36.3zm210.8-5.7zm-227-63.9zM604.4 40.3zM394 157.5zM553.5 305zm-253.7-50.6zm36-35.6zm0 0zm21 12.5zm171.9-62.8zm-192.8 50.2zM584.6 99.3zm-191 58zm.4 0v.1zm-4.3 44.1zm70.3-3.6zm-66-40.1zm-36.3 81.7zM589.2 72.7zm-86 90.6zm-113.6 38.2zm-36.5 74.2zm211.1 4zm13-221.2z"/><path id="W08000001" d="M442.1 667.5l.3.2 1-.4.3-.6h.5l-.4-.1v-1l-.6-.3.5-2h-1l.7.6-.3 1.3.6.7-.4 1.2-1.3.3-1 .2-1.1.2-2-.7-.7.1h-.4l-.1.1h-.8l-.5-.8-.2-.2v.4l-.5.4-.3-.4h-.4l-1 .1-.3-.2-.2.2.2.5.7.3h-.3v1h-.5l-.2.4-.3-.4-.2-.2v-1.2l-.5-.4v-.1l-.5-.4-.6.3h-.1l.2-.3-1-1 1.6.3.3-1.3H432l.1.1 1-1.2h.1l1.6.3.4-.4.1-2.3-.4-.8-.1-.5v-.8l-.7-1.2h-.2l-1.6.1v-.4h-.5v-.3l-.1.1-.2.2-.6-.4h-.1l-1.9.2-.3.2-.2.1-.6.2v-.1l-.8.2v-.1l.4-.8v-.1l-.4-.5.8-.6-.3-.6-.4.1.6-.4 1.5-.4 1-1h1l.2-.6h.2l.1-.6 1.6.1.5-.8h1.4l.2-.5h.6l.2-1-.6-.6 1-.6-.7-.7.1-.2.6-.5-.2-.3 1 .3 1.1.3 1.2-.3v.3l.1.3.7.2-.5-.1-.4.6.2.4h.3l.3.1.2.1v-.1l1.9-.8.1-.6v-.2l.3-.8 1 .9.2.1.4-.1h.7v-.1h.8l-.3-.1h-.1l-.2-.8.2-.6.4-.4.7-.2h.5l.1-.2h.2l.3-.3.2-.2.1-.1.6-.6.7-1.3-.1-.2.6-1h.2l1.4.8.1-1.6 1.7-.6H455.5l.7-.4.8.7h1l.4-.3.3-.3 1.2-1 .2-1 .2.5H460.6l.3-.2.3-.2.3-.3 2-2.4h.8l.3.4h.3l.7-.3h.1l2.3-2 .5-.2.6-.2.7-.5.4-.2 2.6-3.8 2-4.9v-.1l.1-2 .2-.6.8-1.7.4-.9-.1-3.4.5 1v-.5h1l1.2-.5 1.6-1.5.1-.1h-.8l-4 1.2h-.1l-1-2-.3-.4-1.1-2 1.3-3.8.9-.7.5-.5v-1.3l.3-.5v.8l2.3-2.1-1.7.9-.7.3-.8-1.3-.6-1.2-.2-.2-2.2-3.1v-.2l.4-.7.3-.3.1.2.5-.6-.5.3.4-1.3-1.1-3.1.6-.4-.1.3h.5l1.6-.3.7-1.4-.8.5-.7.4-.3-.7-.7-.1-.3.5-.6.5-2.6-.8h-.4l-.4.2-1 .3-2 .1-.5 1.1h-.2l-1.8-.2h-.1l-.3.1h-.2l-.3.2.1.3h-.4l.5.2-.7.3-1.1.2-.2.1-.4.2-.1.2-.6.6.2.7-1 .6-.3.7.3.1-.1.4v.5l.5.2v.9l-1.1.1-.5 1-.6-.6.3-.9-2.7-1.6-.1.2-1.5 1.5-.6-.4h-.1l-1 .8-.1-.4-1.1-.2-.4 1v.3l-1.5-1 1.8-2.5v-1.1l1-.4.2-.6v-.3l.6-.2.3-.2.5-1.3.2-.4h.7l.4-.7.2-.4.7-.4 1.1-.6.1-.6.2.6H456.6l1.4-.1 1.9-1.7 1.3-2h1.1l1-1 1.2-1.4.6-1.6v-1.3l-.1-.4-.2-1.9.2-.3.3-.2h.5l-.5.5.5 1 .3-.5v-1.3l.9-.7.4-.3.6-.8.8-1 1.2-.9v-.2l.5-1.5 1.3-.6.2-.1 1.4-1 .1-.1.3.4v-.4l.3.3.3-.1.3-.2.2.7 3.1-1.3h.2v-.4l3.2-1.3 1.4-1 1.7-.5.4.6.2.3v-.2.2l-.5-1v-.4l-.2-1-1.3-1.2.1-.2 1.6.1.6 1 .6-.1 1-.3.4.7 1 .3.3.6v.3l1 .4 3.8.2 2.4-1 1.4-.7h.4l.9-.8 4.4-1.5h.1l2.1-.2v1.1l1.2 1 .5.2.2-.4v.5l.1.2.5.3 1.7 1v.1l2.3 2.2.5.1-.2.3 3.1 2-1.5-1.4 1 .4-1.1-1h1l-.3-.1-.2-.2 2.3.7 3 2.4 1 1.4-.2 1.2-2.6 1.1 2 2.1 1.6.7.8-.7-.8 2 1 .6-.2.5.8.9-.4.1.5.3-.4.6.5.5-.2 1 .7.3.3 1.3 1.3.5 1.4-.4.3.6 1.3.2-.4.9.5.8-.2 2-1 .1-1.7 1.9-1.7-3-1.6-.3-.2-.4-1.6.9-1.2-.8-.6-1.2-.3.7-1 .2-1 1.7-1.7.2-.7-.3-.7 2.4-1.3.2.4.4-.6.4 1 .7-1.5 1.3.5.3-.6 1.5v.8h.5l-.2.9 1.6.6 1.2-.8-.2.6.5 1h1.2l-.1.2.5-.1.1.4.7-.3.3.6-.4.5 1.1.5v.6h.8l.4.9-.2.4h-.4v-.8l-1 .4-.7-.3v1.2l-1 1 .3 1-.5 1.8-1.3.4 1 .7h-.5l-.8 1.3.1.7-1 .8h-1l1.2 2.9-1 .6.2.3 1.8-.5-.1-1 2.8-1.6.4.1.4 1.4-.3 2-1.2-.2.2 1.5-3.2.1-2.7 1.6-.7-.1-1.5 2.1.6 1.4 1.6.8 1 1.3 1.7.7 2 1.9.7.2 2.6-.6.8.3-.5 1.3-1.3.5-.5 2.7 2.5.6-1.1.6-1.1-.3-1.2.5-.5.4.2.8-1.1.1v1.5l-1.2.6.3 1.3-1 1.2.8.6.7-.5.4.4-.8.8-1.7.4-.2.6 1.4.7v.7l-.7.2-.1 1.6 1.4 1.7.1.7-.5 1 1.2 2.5 1.7 1.7.7 2h1.2l.2 1.3 3.7-1.8 1.3.8-.7.5.8-.3.2.8 2.6 1.6-.4 1 1.6 1.8.7-.8.2.5.7-.3.2.7h1l.7.5-.5.2v.8l-.6.5.3.5-.4 1.6.7 1-.4 1-.6.5.7 1.5-.6.3 1.1 1.7-1.1.7.7-.1-.5 1 .5.3.4 1.4v.3h-.2l-1.3.9-.7 1.3-1.8.3-2.4 1.4-1.8.8-1.5.6-.7-.3-1 .1-1.2-.5.4-.8-.8.5-.2.8-2 1.3-1 .7-.4.1-1.2.6-1 1.2.1.4-.7.7-.2.3v-.1l-.3.5v.2l-.2 1.4v.8l-.6.4-1.4-.2-2.2 1.1-.2-.5-.2.4-.6-.2-.2-.1-1.2.7h-2.5l-.4-.4-1-.2-2.4-.3-.5-.2h-.3l-1.4-.2-1.3-2.3-.9-.6-1-1v-.3l.3-.2-1-.4-.5.2h-1l-1-.3-.3-.8-.2-.4-.5-.3v-.1l-.5-1.8-1.1-2.2-.3-.1-.2-.7-.5.1.6-.3h-.5l-.2-.2-1.3-1.6.6-.6-1.6.4-.3-.2h-.3l-1 .6-.4.1v-.3h-1l-1.5 1-.3 1.1.5.4.5.4-.3.2-1-.2-.5.2h-.2l-.3-.4-1.2.8-1.5-.5-.3-.6-1.8.9-.2.4.4.4.2.2-.3.3-.8-.3-.8-.2-.5.3v.4l-.8-.2-1.2-.7-.8-.6-1.1-.1.6-.4v-.8l-.6-1.7H466h.1l2-1 .7-1.5.5.4-.5.7.8-.3 1.3.4-.2.4 1.2-.2.2-.5 1.7-.6.5-.6.8-.3.5.3-.5-.5.5-.5-.3-.7-.3 1.2h-2l-.5.4-1.6-1.5-.3-.3-1 .2-.9.1-.3-.2-.4.3-.5.6-1.5-.5h-.2l-2.5-3.2.1-.4 2.2.3-1.5-.6-.5-.6.4-2.5-1.5 1.9-2.2-.8 1.7 1.5-1.1.8-4.4-.6-.6.4h-.7l-.7-.1-.8.2h-.1l-1.7.5-.9 1 .7.8-.6.7-.2.8.3.1-.2.3-.6.6.1.4h-.4l-1.3-.1v.6h-.6l-.2.1-.2.5-1.2-.7H445.3l-.6-.1-1.2 1-.3.3-.2.6.3.4h-1l-.2 1-.8-.1-1-.9h-.3l-.2-.1-.8.2-2-.7.3-1.3-.5-1.1v-.3l-2.4-.5v-.7l.7-.3-.2-.2H435.5l.6.3h-.2l.3.4 1 .2.4-.3-.5-.4.1-.4 1-.1 1.7.4-.1.3.4.2.1.1-.1-.6 1.2-1zm20.5-110.3l1.2-.1h.1l.5.6.7-.3.2.2.2-.1.8.2.6.2.2-.4.7 1.8-.9 1.5.7-.5.4 1 1.3.1-.2.5.1.3v.3l.2.1.3 1v.3l.6.4-.4 1 .3.1.3.1.3-.1 1.9-.6 1-.9.6.2 2.4.4-.7.7-.5.6-.6 1.8-.5.4-2.2 1.6-.2.5-.3.2-.3-.1-1 .5v.1h-.1l-.4 1.3-.1.6-1 .4-2.4 2-.7.2-.6-.5.4 1.6-2.6-1-.2-.1-.6.6v-.1l.3-.5-.5-1.2 1-.3h.3v-1.6l-.4.4-1.8 2-1-1.7-.7.3v-.6h-.7l.3-1.4-1-1.2v-.4l-1.3-1.1.3-.3-.5-.3v-.4l-.6-.5.8 1.7h-.1l-1.5.4-.5-.3-.1-.2.1-.6-.6-.8.3-.6-1.3-.6h-.1l-1.2.4.2-1v-.1l-.3-.2-.5-.3.6-.5.1-.6.8.3.5-.1.7.4.2-.3.1.1-.3.6.2-.4.4.4.2.3h.8v.7l.4.2h.2l.5-.8.2.2.6-.6-1 .4.1-1-.8-1 .6-.3.5-2.4-.2-.4-.5-1.5.1-.1 1.3-.2h.3l.8-.6-.2.6.3-.3v.1l1-.7.1-.1.3.1.8.4v-.5l1-.5zm-34.6 108l.7.4-.4-.1-.5.5-.8-.6.5-.5zm-1.7-7.2h-.2l-.6-.6.4-.3-.1-.2.2-.3h.4zm25.7 13.7l-.4.5-.8-.1-.2-.7 1.2.3zm-4.2-71.8l-.8 1.2.3-1.4.5.2zm-27.2 65.8v.3l-.1-.1zm-7.4.8zm100.5-98.7zm-43.6 3.7z"/></svg>